%TF.GenerationSoftware,KiCad,Pcbnew,(5.1.8)-1*%
%TF.CreationDate,2021-02-19T09:53:25-07:00*%
%TF.ProjectId,Ardu-Shift_PCB,41726475-2d53-4686-9966-745f5043422e,rev?*%
%TF.SameCoordinates,Original*%
%TF.FileFunction,Soldermask,Top*%
%TF.FilePolarity,Negative*%
%FSLAX46Y46*%
G04 Gerber Fmt 4.6, Leading zero omitted, Abs format (unit mm)*
G04 Created by KiCad (PCBNEW (5.1.8)-1) date 2021-02-19 09:53:25*
%MOMM*%
%LPD*%
G01*
G04 APERTURE LIST*
%ADD10C,1.524000*%
%ADD11O,1.600000X1.600000*%
%ADD12C,1.600000*%
%ADD13C,2.000000*%
%ADD14R,2.000000X2.000000*%
%ADD15O,1.700000X1.700000*%
%ADD16R,1.700000X1.700000*%
%ADD17C,1.800000*%
%ADD18R,1.800000X1.800000*%
G04 APERTURE END LIST*
D10*
%TO.C,U2*%
X109728000Y-73914000D03*
X109728000Y-76454000D03*
X109728000Y-89154000D03*
X109728000Y-84074000D03*
X109728000Y-78994000D03*
X109728000Y-94234000D03*
X109728000Y-91694000D03*
X109728000Y-96774000D03*
X109728000Y-86614000D03*
X109728000Y-81534000D03*
X109728000Y-71374000D03*
X109728000Y-68961000D03*
X124841000Y-68961000D03*
X124841000Y-71374000D03*
X124841000Y-73914000D03*
X124841000Y-76454000D03*
X124841000Y-78994000D03*
X124841000Y-81534000D03*
X124841000Y-84074000D03*
X124841000Y-86614000D03*
X124841000Y-89154000D03*
X124841000Y-91694000D03*
X124841000Y-94234000D03*
X124841000Y-96774000D03*
%TD*%
%TO.C,U3*%
X99314000Y-97409000D03*
X94234000Y-97409000D03*
X96774000Y-97409000D03*
X94234000Y-100584000D03*
X96774000Y-100584000D03*
X99314000Y-100584000D03*
%TD*%
D11*
%TO.C,F1*%
X103886000Y-97028000D03*
D12*
X103886000Y-89408000D03*
%TD*%
D13*
%TO.C,LS1*%
X61234000Y-43942000D03*
D14*
X68834000Y-43942000D03*
%TD*%
D15*
%TO.C,B2*%
X100076000Y-92456000D03*
D16*
X100076000Y-89916000D03*
%TD*%
D13*
%TO.C,UP1*%
X56538000Y-50292000D03*
X56538000Y-54792000D03*
X50038000Y-50292000D03*
X50038000Y-54792000D03*
%TD*%
D10*
%TO.C,U1*%
X78740000Y-40259000D03*
X81280000Y-40259000D03*
X83820000Y-40259000D03*
X93980000Y-40259000D03*
X91440000Y-40259000D03*
X88900000Y-40259000D03*
X86360000Y-40259000D03*
%TD*%
D13*
%TO.C,RIGHT1*%
X64920000Y-58674000D03*
X64920000Y-63174000D03*
X58420000Y-58674000D03*
X58420000Y-63174000D03*
%TD*%
D11*
%TO.C,R3*%
X104648000Y-53340000D03*
D12*
X104648000Y-45720000D03*
%TD*%
D11*
%TO.C,R2*%
X109728000Y-53340000D03*
D12*
X109728000Y-45720000D03*
%TD*%
D11*
%TO.C,R1*%
X114808000Y-53340000D03*
D12*
X114808000Y-45720000D03*
%TD*%
D13*
%TO.C,LEFT1*%
X48156000Y-58674000D03*
X48156000Y-63174000D03*
X41656000Y-58674000D03*
X41656000Y-63174000D03*
%TD*%
%TO.C,DOWN1*%
X56538000Y-67056000D03*
X56538000Y-71556000D03*
X50038000Y-67056000D03*
X50038000Y-71556000D03*
%TD*%
D17*
%TO.C,D3*%
X105410000Y-39116000D03*
D18*
X105410000Y-41656000D03*
%TD*%
D17*
%TO.C,D2*%
X109728000Y-39116000D03*
D18*
X109728000Y-41656000D03*
%TD*%
D17*
%TO.C,D1*%
X114046000Y-39116000D03*
D18*
X114046000Y-41656000D03*
%TD*%
D13*
%TO.C,B1*%
X131214000Y-51816000D03*
X131214000Y-56316000D03*
X124714000Y-51816000D03*
X124714000Y-56316000D03*
%TD*%
%TO.C,A1*%
X117244000Y-58928000D03*
X117244000Y-63428000D03*
X110744000Y-58928000D03*
X110744000Y-63428000D03*
%TD*%
M02*
