%TF.GenerationSoftware,KiCad,Pcbnew,(5.1.8)-1*%
%TF.CreationDate,2021-02-19T09:53:25-07:00*%
%TF.ProjectId,Ardu-Shift_PCB,41726475-2d53-4686-9966-745f5043422e,rev?*%
%TF.SameCoordinates,Original*%
%TF.FileFunction,Copper,L2,Bot*%
%TF.FilePolarity,Positive*%
%FSLAX46Y46*%
G04 Gerber Fmt 4.6, Leading zero omitted, Abs format (unit mm)*
G04 Created by KiCad (PCBNEW (5.1.8)-1) date 2021-02-19 09:53:25*
%MOMM*%
%LPD*%
G01*
G04 APERTURE LIST*
%TA.AperFunction,ComponentPad*%
%ADD10C,1.524000*%
%TD*%
%TA.AperFunction,ComponentPad*%
%ADD11O,1.600000X1.600000*%
%TD*%
%TA.AperFunction,ComponentPad*%
%ADD12C,1.600000*%
%TD*%
%TA.AperFunction,ComponentPad*%
%ADD13C,2.000000*%
%TD*%
%TA.AperFunction,ComponentPad*%
%ADD14R,2.000000X2.000000*%
%TD*%
%TA.AperFunction,ComponentPad*%
%ADD15O,1.700000X1.700000*%
%TD*%
%TA.AperFunction,ComponentPad*%
%ADD16R,1.700000X1.700000*%
%TD*%
%TA.AperFunction,ComponentPad*%
%ADD17C,1.800000*%
%TD*%
%TA.AperFunction,ComponentPad*%
%ADD18R,1.800000X1.800000*%
%TD*%
%TA.AperFunction,ViaPad*%
%ADD19C,0.800000*%
%TD*%
%TA.AperFunction,Conductor*%
%ADD20C,0.400000*%
%TD*%
%TA.AperFunction,Conductor*%
%ADD21C,0.254000*%
%TD*%
%TA.AperFunction,Conductor*%
%ADD22C,0.100000*%
%TD*%
G04 APERTURE END LIST*
D10*
%TO.P,U2,14*%
%TO.N,Net-(U2-Pad14)*%
X109728000Y-73914000D03*
%TO.P,U2,15*%
%TO.N,SCK*%
X109728000Y-76454000D03*
%TO.P,U2,VCC*%
%TO.N,VCC*%
X109728000Y-89154000D03*
%TO.P,U2,A2*%
%TO.N,LEFT*%
X109728000Y-84074000D03*
%TO.P,U2,A0*%
%TO.N,UP*%
X109728000Y-78994000D03*
%TO.P,U2,GND*%
%TO.N,GND*%
X109728000Y-94234000D03*
%TO.P,U2,RST*%
%TO.N,Net-(U2-PadRST)*%
X109728000Y-91694000D03*
%TO.P,U2,RAW*%
%TO.N,BAT+*%
X109728000Y-96774000D03*
%TO.P,U2,A3*%
%TO.N,DOWN*%
X109728000Y-86614000D03*
%TO.P,U2,A1*%
%TO.N,RIGHT*%
X109728000Y-81534000D03*
%TO.P,U2,16*%
%TO.N,MOSI*%
X109728000Y-71374000D03*
%TO.P,U2,10*%
%TO.N,R_LED*%
X109728000Y-68961000D03*
%TO.P,U2,9*%
%TO.N,B_LED*%
X124841000Y-68961000D03*
%TO.P,U2,8*%
%TO.N,B_Button*%
X124841000Y-71374000D03*
%TO.P,U2,7*%
%TO.N,A_Button*%
X124841000Y-73914000D03*
%TO.P,U2,6*%
%TO.N,Speaker-*%
X124841000Y-76454000D03*
%TO.P,U2,5*%
%TO.N,Speaker+*%
X124841000Y-78994000D03*
%TO.P,U2,4*%
%TO.N,DC*%
X124841000Y-81534000D03*
%TO.P,U2,3*%
%TO.N,G_LED*%
X124841000Y-84074000D03*
%TO.P,U2,2*%
%TO.N,RES*%
X124841000Y-86614000D03*
%TO.P,U2,GND*%
%TO.N,GND*%
X124841000Y-89154000D03*
X124841000Y-91694000D03*
%TO.P,U2,0*%
%TO.N,Net-(U2-Pad0)*%
X124841000Y-94234000D03*
%TO.P,U2,1*%
%TO.N,CS*%
X124841000Y-96774000D03*
%TD*%
%TO.P,U3,1*%
%TO.N,GND*%
X99314000Y-97409000D03*
%TO.P,U3,3*%
%TO.N,Net-(B2-Pad2)*%
X94234000Y-97409000D03*
%TO.P,U3,2*%
%TO.N,GND*%
X96774000Y-97409000D03*
%TO.P,U3,3*%
%TO.N,Net-(B2-Pad2)*%
X94234000Y-100584000D03*
%TO.P,U3,2*%
%TO.N,GND*%
X96774000Y-100584000D03*
%TO.P,U3,1*%
X99314000Y-100584000D03*
%TD*%
D11*
%TO.P,F1,2*%
%TO.N,BAT+*%
X103886000Y-97028000D03*
D12*
%TO.P,F1,1*%
%TO.N,Net-(B2-Pad1)*%
X103886000Y-89408000D03*
%TD*%
D13*
%TO.P,LS1,2*%
%TO.N,Speaker-*%
X61234000Y-43942000D03*
D14*
%TO.P,LS1,1*%
%TO.N,Speaker+*%
X68834000Y-43942000D03*
%TD*%
D15*
%TO.P,B2,2*%
%TO.N,Net-(B2-Pad2)*%
X100076000Y-92456000D03*
D16*
%TO.P,B2,1*%
%TO.N,Net-(B2-Pad1)*%
X100076000Y-89916000D03*
%TD*%
D13*
%TO.P,UP1,1*%
%TO.N,UP*%
X56538000Y-50292000D03*
%TO.P,UP1,2*%
%TO.N,GND*%
X56538000Y-54792000D03*
%TO.P,UP1,1*%
%TO.N,UP*%
X50038000Y-50292000D03*
%TO.P,UP1,2*%
%TO.N,GND*%
X50038000Y-54792000D03*
%TD*%
D10*
%TO.P,U1,GND*%
%TO.N,GND*%
X78740000Y-40259000D03*
%TO.P,U1,VCC*%
%TO.N,VCC*%
X81280000Y-40259000D03*
%TO.P,U1,D0*%
%TO.N,SCK*%
X83820000Y-40259000D03*
%TO.P,U1,CS*%
%TO.N,CS*%
X93980000Y-40259000D03*
%TO.P,U1,DC*%
%TO.N,DC*%
X91440000Y-40259000D03*
%TO.P,U1,RES*%
%TO.N,RES*%
X88900000Y-40259000D03*
%TO.P,U1,D1*%
%TO.N,MOSI*%
X86360000Y-40259000D03*
%TD*%
D13*
%TO.P,RIGHT1,1*%
%TO.N,RIGHT*%
X64920000Y-58674000D03*
%TO.P,RIGHT1,2*%
%TO.N,GND*%
X64920000Y-63174000D03*
%TO.P,RIGHT1,1*%
%TO.N,RIGHT*%
X58420000Y-58674000D03*
%TO.P,RIGHT1,2*%
%TO.N,GND*%
X58420000Y-63174000D03*
%TD*%
D11*
%TO.P,R3,2*%
%TO.N,R_LED*%
X104648000Y-53340000D03*
D12*
%TO.P,R3,1*%
%TO.N,Net-(D3-Pad1)*%
X104648000Y-45720000D03*
%TD*%
D11*
%TO.P,R2,2*%
%TO.N,G_LED*%
X109728000Y-53340000D03*
D12*
%TO.P,R2,1*%
%TO.N,Net-(D2-Pad1)*%
X109728000Y-45720000D03*
%TD*%
D11*
%TO.P,R1,2*%
%TO.N,B_LED*%
X114808000Y-53340000D03*
D12*
%TO.P,R1,1*%
%TO.N,Net-(D1-Pad1)*%
X114808000Y-45720000D03*
%TD*%
D13*
%TO.P,LEFT1,1*%
%TO.N,LEFT*%
X48156000Y-58674000D03*
%TO.P,LEFT1,2*%
%TO.N,GND*%
X48156000Y-63174000D03*
%TO.P,LEFT1,1*%
%TO.N,LEFT*%
X41656000Y-58674000D03*
%TO.P,LEFT1,2*%
%TO.N,GND*%
X41656000Y-63174000D03*
%TD*%
%TO.P,DOWN1,1*%
%TO.N,DOWN*%
X56538000Y-67056000D03*
%TO.P,DOWN1,2*%
%TO.N,GND*%
X56538000Y-71556000D03*
%TO.P,DOWN1,1*%
%TO.N,DOWN*%
X50038000Y-67056000D03*
%TO.P,DOWN1,2*%
%TO.N,GND*%
X50038000Y-71556000D03*
%TD*%
D17*
%TO.P,D3,2*%
%TO.N,VCC*%
X105410000Y-39116000D03*
D18*
%TO.P,D3,1*%
%TO.N,Net-(D3-Pad1)*%
X105410000Y-41656000D03*
%TD*%
D17*
%TO.P,D2,2*%
%TO.N,VCC*%
X109728000Y-39116000D03*
D18*
%TO.P,D2,1*%
%TO.N,Net-(D2-Pad1)*%
X109728000Y-41656000D03*
%TD*%
D17*
%TO.P,D1,2*%
%TO.N,VCC*%
X114046000Y-39116000D03*
D18*
%TO.P,D1,1*%
%TO.N,Net-(D1-Pad1)*%
X114046000Y-41656000D03*
%TD*%
D13*
%TO.P,B1,1*%
%TO.N,B_Button*%
X131214000Y-51816000D03*
%TO.P,B1,2*%
%TO.N,GND*%
X131214000Y-56316000D03*
%TO.P,B1,1*%
%TO.N,B_Button*%
X124714000Y-51816000D03*
%TO.P,B1,2*%
%TO.N,GND*%
X124714000Y-56316000D03*
%TD*%
%TO.P,A1,1*%
%TO.N,A_Button*%
X117244000Y-58928000D03*
%TO.P,A1,2*%
%TO.N,GND*%
X117244000Y-63428000D03*
%TO.P,A1,1*%
%TO.N,A_Button*%
X110744000Y-58928000D03*
%TO.P,A1,2*%
%TO.N,GND*%
X110744000Y-63428000D03*
%TD*%
D19*
%TO.N,CS*%
X93980000Y-45466000D03*
X106426000Y-62738000D03*
%TD*%
D20*
%TO.N,Speaker-*%
X86953998Y-44450000D02*
X74676000Y-44450000D01*
X71120000Y-40894000D02*
X64282000Y-40894000D01*
X74676000Y-44450000D02*
X71120000Y-40894000D01*
X108289998Y-65786000D02*
X86953998Y-44450000D01*
X64282000Y-40894000D02*
X61234000Y-43942000D01*
X112776000Y-65786000D02*
X108289998Y-65786000D01*
X123444000Y-76454000D02*
X112776000Y-65786000D01*
X124841000Y-76454000D02*
X123444000Y-76454000D01*
%TO.N,Speaker+*%
X73152000Y-43942000D02*
X68834000Y-43942000D01*
X112395000Y-66548000D02*
X107950000Y-66548000D01*
X124841000Y-78994000D02*
X112395000Y-66548000D01*
X86614000Y-45212000D02*
X87122000Y-45720000D01*
X87122000Y-45720000D02*
X86868000Y-45466000D01*
X74422000Y-45212000D02*
X86614000Y-45212000D01*
X107950000Y-66548000D02*
X87122000Y-45720000D01*
X74422000Y-45212000D02*
X73152000Y-43942000D01*
%TO.N,GND*%
X41656000Y-63174000D02*
X48156000Y-63174000D01*
X50038000Y-71556000D02*
X56538000Y-71556000D01*
X58420000Y-63174000D02*
X64920000Y-63174000D01*
X50038000Y-54792000D02*
X56538000Y-54792000D01*
X110744000Y-63428000D02*
X117244000Y-63428000D01*
X124714000Y-56316000D02*
X131214000Y-56316000D01*
%TO.N,DOWN*%
X50038000Y-67056000D02*
X56538000Y-67056000D01*
%TO.N,LEFT*%
X41656000Y-58674000D02*
X48156000Y-58674000D01*
%TO.N,UP*%
X50038000Y-50292000D02*
X56538000Y-50292000D01*
%TO.N,RES*%
X88900000Y-40259000D02*
X88900000Y-39116000D01*
X88900000Y-39116000D02*
X89916000Y-38100000D01*
X89916000Y-38100000D02*
X94742000Y-38100000D01*
X94742000Y-38100000D02*
X95758000Y-39116000D01*
X95758000Y-39116000D02*
X95758000Y-43180000D01*
X95758000Y-43180000D02*
X100838000Y-48260000D01*
X100838000Y-48260000D02*
X116586000Y-48260000D01*
X116586000Y-48260000D02*
X121666000Y-53340000D01*
X121666000Y-53340000D02*
X121666000Y-58674000D01*
X121666000Y-58674000D02*
X129032000Y-66040000D01*
X124841000Y-86614000D02*
X127000000Y-84455000D01*
X127000000Y-84455000D02*
X127000000Y-80518000D01*
X127000000Y-80518000D02*
X129032000Y-78486000D01*
X129032000Y-66040000D02*
X129032000Y-78486000D01*
%TO.N,RIGHT*%
X58420000Y-58674000D02*
X64920000Y-58674000D01*
%TO.N,BAT+*%
X104140000Y-96774000D02*
X103886000Y-97028000D01*
X109728000Y-96774000D02*
X104140000Y-96774000D01*
%TO.N,Net-(B2-Pad1)*%
X100584000Y-89408000D02*
X100076000Y-89916000D01*
X103886000Y-89408000D02*
X100584000Y-89408000D01*
%TO.N,A_Button*%
X110744000Y-58928000D02*
X117244000Y-58928000D01*
%TO.N,B_Button*%
X124714000Y-51816000D02*
X131214000Y-51816000D01*
%TO.N,Net-(B2-Pad2)*%
X99187000Y-92456000D02*
X100076000Y-92456000D01*
X94234000Y-97409000D02*
X99187000Y-92456000D01*
X94234000Y-97409000D02*
X94234000Y-100584000D01*
%TO.N,CS*%
X106426000Y-62738000D02*
X93980000Y-50292000D01*
X93980000Y-45466000D02*
X93980000Y-50292000D01*
%TO.N,DC*%
X100457000Y-49276000D02*
X91440000Y-40259000D01*
X120904000Y-53848000D02*
X116332000Y-49276000D01*
X116332000Y-49276000D02*
X100457000Y-49276000D01*
X128270000Y-66294000D02*
X120904000Y-58928000D01*
X120904000Y-58928000D02*
X120904000Y-53848000D01*
X128270000Y-78105000D02*
X128270000Y-66294000D01*
X124841000Y-81534000D02*
X128270000Y-78105000D01*
%TD*%
D21*
%TO.N,GND*%
X132862249Y-36292437D02*
X133619774Y-36499672D01*
X134328625Y-36837777D01*
X134966404Y-37296067D01*
X135512946Y-37860055D01*
X135950977Y-38511913D01*
X136266651Y-39231038D01*
X136451206Y-39999768D01*
X136500000Y-40664207D01*
X136500001Y-96490597D01*
X136427563Y-97302249D01*
X136220328Y-98059774D01*
X135882221Y-98768627D01*
X135423928Y-99406410D01*
X134859945Y-99952946D01*
X134208085Y-100390978D01*
X133488963Y-100706651D01*
X132720232Y-100891206D01*
X132055792Y-100940000D01*
X100665029Y-100940000D01*
X100703023Y-100786865D01*
X100715910Y-100511983D01*
X100674922Y-100239867D01*
X100581636Y-99980977D01*
X100519656Y-99865020D01*
X100279565Y-99798040D01*
X99493605Y-100584000D01*
X99507748Y-100598143D01*
X99328143Y-100777748D01*
X99314000Y-100763605D01*
X99299858Y-100777748D01*
X99120253Y-100598143D01*
X99134395Y-100584000D01*
X98348435Y-99798040D01*
X98108344Y-99865020D01*
X98046921Y-99995644D01*
X98041636Y-99980977D01*
X97979656Y-99865020D01*
X97739565Y-99798040D01*
X96953605Y-100584000D01*
X96967748Y-100598143D01*
X96788143Y-100777748D01*
X96774000Y-100763605D01*
X96759858Y-100777748D01*
X96580253Y-100598143D01*
X96594395Y-100584000D01*
X95808435Y-99798040D01*
X95568344Y-99865020D01*
X95504515Y-100000760D01*
X95472005Y-99922273D01*
X95319120Y-99693465D01*
X95244090Y-99618435D01*
X95988040Y-99618435D01*
X96774000Y-100404395D01*
X97559960Y-99618435D01*
X98528040Y-99618435D01*
X99314000Y-100404395D01*
X100099960Y-99618435D01*
X100032980Y-99378344D01*
X99783952Y-99261244D01*
X99516865Y-99194977D01*
X99241983Y-99182090D01*
X98969867Y-99223078D01*
X98710977Y-99316364D01*
X98595020Y-99378344D01*
X98528040Y-99618435D01*
X97559960Y-99618435D01*
X97492980Y-99378344D01*
X97243952Y-99261244D01*
X96976865Y-99194977D01*
X96701983Y-99182090D01*
X96429867Y-99223078D01*
X96170977Y-99316364D01*
X96055020Y-99378344D01*
X95988040Y-99618435D01*
X95244090Y-99618435D01*
X95124535Y-99498880D01*
X95069000Y-99461773D01*
X95069000Y-98531227D01*
X95124535Y-98494120D01*
X95244090Y-98374565D01*
X95988040Y-98374565D01*
X96055020Y-98614656D01*
X96304048Y-98731756D01*
X96571135Y-98798023D01*
X96846017Y-98810910D01*
X97118133Y-98769922D01*
X97377023Y-98676636D01*
X97492980Y-98614656D01*
X97559960Y-98374565D01*
X98528040Y-98374565D01*
X98595020Y-98614656D01*
X98844048Y-98731756D01*
X99111135Y-98798023D01*
X99386017Y-98810910D01*
X99658133Y-98769922D01*
X99917023Y-98676636D01*
X100032980Y-98614656D01*
X100099960Y-98374565D01*
X99314000Y-97588605D01*
X98528040Y-98374565D01*
X97559960Y-98374565D01*
X96774000Y-97588605D01*
X95988040Y-98374565D01*
X95244090Y-98374565D01*
X95319120Y-98299535D01*
X95472005Y-98070727D01*
X95501692Y-97999057D01*
X95506364Y-98012023D01*
X95568344Y-98127980D01*
X95808435Y-98194960D01*
X96594395Y-97409000D01*
X96953605Y-97409000D01*
X97739565Y-98194960D01*
X97979656Y-98127980D01*
X98041079Y-97997356D01*
X98046364Y-98012023D01*
X98108344Y-98127980D01*
X98348435Y-98194960D01*
X99134395Y-97409000D01*
X99493605Y-97409000D01*
X100279565Y-98194960D01*
X100519656Y-98127980D01*
X100636756Y-97878952D01*
X100703023Y-97611865D01*
X100715910Y-97336983D01*
X100674922Y-97064867D01*
X100610711Y-96886665D01*
X102451000Y-96886665D01*
X102451000Y-97169335D01*
X102506147Y-97446574D01*
X102614320Y-97707727D01*
X102771363Y-97942759D01*
X102971241Y-98142637D01*
X103206273Y-98299680D01*
X103467426Y-98407853D01*
X103744665Y-98463000D01*
X104027335Y-98463000D01*
X104304574Y-98407853D01*
X104565727Y-98299680D01*
X104800759Y-98142637D01*
X105000637Y-97942759D01*
X105157680Y-97707727D01*
X105198574Y-97609000D01*
X108605773Y-97609000D01*
X108642880Y-97664535D01*
X108837465Y-97859120D01*
X109066273Y-98012005D01*
X109320510Y-98117314D01*
X109590408Y-98171000D01*
X109865592Y-98171000D01*
X110135490Y-98117314D01*
X110389727Y-98012005D01*
X110618535Y-97859120D01*
X110813120Y-97664535D01*
X110966005Y-97435727D01*
X111071314Y-97181490D01*
X111125000Y-96911592D01*
X111125000Y-96636408D01*
X111071314Y-96366510D01*
X110966005Y-96112273D01*
X110813120Y-95883465D01*
X110618535Y-95688880D01*
X110389727Y-95535995D01*
X110318057Y-95506308D01*
X110331023Y-95501636D01*
X110446980Y-95439656D01*
X110513960Y-95199565D01*
X109728000Y-94413605D01*
X108942040Y-95199565D01*
X109009020Y-95439656D01*
X109144760Y-95503485D01*
X109066273Y-95535995D01*
X108837465Y-95688880D01*
X108642880Y-95883465D01*
X108605773Y-95939000D01*
X104826396Y-95939000D01*
X104800759Y-95913363D01*
X104565727Y-95756320D01*
X104304574Y-95648147D01*
X104027335Y-95593000D01*
X103744665Y-95593000D01*
X103467426Y-95648147D01*
X103206273Y-95756320D01*
X102971241Y-95913363D01*
X102771363Y-96113241D01*
X102614320Y-96348273D01*
X102506147Y-96609426D01*
X102451000Y-96886665D01*
X100610711Y-96886665D01*
X100581636Y-96805977D01*
X100519656Y-96690020D01*
X100279565Y-96623040D01*
X99493605Y-97409000D01*
X99134395Y-97409000D01*
X98348435Y-96623040D01*
X98108344Y-96690020D01*
X98046921Y-96820644D01*
X98041636Y-96805977D01*
X97979656Y-96690020D01*
X97739565Y-96623040D01*
X96953605Y-97409000D01*
X96594395Y-97409000D01*
X96580253Y-97394858D01*
X96759858Y-97215253D01*
X96774000Y-97229395D01*
X97559960Y-96443435D01*
X98528040Y-96443435D01*
X99314000Y-97229395D01*
X100099960Y-96443435D01*
X100032980Y-96203344D01*
X99783952Y-96086244D01*
X99516865Y-96019977D01*
X99241983Y-96007090D01*
X98969867Y-96048078D01*
X98710977Y-96141364D01*
X98595020Y-96203344D01*
X98528040Y-96443435D01*
X97559960Y-96443435D01*
X97492980Y-96203344D01*
X97243952Y-96086244D01*
X96976865Y-96019977D01*
X96811637Y-96012231D01*
X98517851Y-94306017D01*
X108326090Y-94306017D01*
X108367078Y-94578133D01*
X108460364Y-94837023D01*
X108522344Y-94952980D01*
X108762435Y-95019960D01*
X109548395Y-94234000D01*
X109907605Y-94234000D01*
X110693565Y-95019960D01*
X110933656Y-94952980D01*
X111050756Y-94703952D01*
X111117023Y-94436865D01*
X111129910Y-94161983D01*
X111120033Y-94096408D01*
X123444000Y-94096408D01*
X123444000Y-94371592D01*
X123497686Y-94641490D01*
X123602995Y-94895727D01*
X123755880Y-95124535D01*
X123950465Y-95319120D01*
X124179273Y-95472005D01*
X124256515Y-95504000D01*
X124179273Y-95535995D01*
X123950465Y-95688880D01*
X123755880Y-95883465D01*
X123602995Y-96112273D01*
X123497686Y-96366510D01*
X123444000Y-96636408D01*
X123444000Y-96911592D01*
X123497686Y-97181490D01*
X123602995Y-97435727D01*
X123755880Y-97664535D01*
X123950465Y-97859120D01*
X124179273Y-98012005D01*
X124433510Y-98117314D01*
X124703408Y-98171000D01*
X124978592Y-98171000D01*
X125248490Y-98117314D01*
X125502727Y-98012005D01*
X125731535Y-97859120D01*
X125926120Y-97664535D01*
X126079005Y-97435727D01*
X126184314Y-97181490D01*
X126238000Y-96911592D01*
X126238000Y-96636408D01*
X126184314Y-96366510D01*
X126094828Y-96150471D01*
X128328111Y-96150471D01*
X128328111Y-96889529D01*
X128472294Y-97614386D01*
X128755119Y-98297186D01*
X129165717Y-98911690D01*
X129688310Y-99434283D01*
X130302814Y-99844881D01*
X130985614Y-100127706D01*
X131710471Y-100271889D01*
X132449529Y-100271889D01*
X133174386Y-100127706D01*
X133857186Y-99844881D01*
X134471690Y-99434283D01*
X134994283Y-98911690D01*
X135404881Y-98297186D01*
X135687706Y-97614386D01*
X135831889Y-96889529D01*
X135831889Y-96150471D01*
X135687706Y-95425614D01*
X135404881Y-94742814D01*
X134994283Y-94128310D01*
X134471690Y-93605717D01*
X133857186Y-93195119D01*
X133174386Y-92912294D01*
X132449529Y-92768111D01*
X131710471Y-92768111D01*
X130985614Y-92912294D01*
X130302814Y-93195119D01*
X129688310Y-93605717D01*
X129165717Y-94128310D01*
X128755119Y-94742814D01*
X128472294Y-95425614D01*
X128328111Y-96150471D01*
X126094828Y-96150471D01*
X126079005Y-96112273D01*
X125926120Y-95883465D01*
X125731535Y-95688880D01*
X125502727Y-95535995D01*
X125425485Y-95504000D01*
X125502727Y-95472005D01*
X125731535Y-95319120D01*
X125926120Y-95124535D01*
X126079005Y-94895727D01*
X126184314Y-94641490D01*
X126238000Y-94371592D01*
X126238000Y-94096408D01*
X126184314Y-93826510D01*
X126079005Y-93572273D01*
X125926120Y-93343465D01*
X125731535Y-93148880D01*
X125502727Y-92995995D01*
X125431057Y-92966308D01*
X125444023Y-92961636D01*
X125559980Y-92899656D01*
X125626960Y-92659565D01*
X124841000Y-91873605D01*
X124055040Y-92659565D01*
X124122020Y-92899656D01*
X124257760Y-92963485D01*
X124179273Y-92995995D01*
X123950465Y-93148880D01*
X123755880Y-93343465D01*
X123602995Y-93572273D01*
X123497686Y-93826510D01*
X123444000Y-94096408D01*
X111120033Y-94096408D01*
X111088922Y-93889867D01*
X110995636Y-93630977D01*
X110933656Y-93515020D01*
X110693565Y-93448040D01*
X109907605Y-94234000D01*
X109548395Y-94234000D01*
X108762435Y-93448040D01*
X108522344Y-93515020D01*
X108405244Y-93764048D01*
X108338977Y-94031135D01*
X108326090Y-94306017D01*
X98517851Y-94306017D01*
X99180337Y-93643532D01*
X99372589Y-93771990D01*
X99642842Y-93883932D01*
X99929740Y-93941000D01*
X100222260Y-93941000D01*
X100509158Y-93883932D01*
X100779411Y-93771990D01*
X101022632Y-93609475D01*
X101229475Y-93402632D01*
X101391990Y-93159411D01*
X101503932Y-92889158D01*
X101561000Y-92602260D01*
X101561000Y-92309740D01*
X101503932Y-92022842D01*
X101391990Y-91752589D01*
X101229475Y-91509368D01*
X101097620Y-91377513D01*
X101170180Y-91355502D01*
X101280494Y-91296537D01*
X101377185Y-91217185D01*
X101456537Y-91120494D01*
X101515502Y-91010180D01*
X101551812Y-90890482D01*
X101564072Y-90766000D01*
X101564072Y-90243000D01*
X102718070Y-90243000D01*
X102771363Y-90322759D01*
X102971241Y-90522637D01*
X103206273Y-90679680D01*
X103467426Y-90787853D01*
X103744665Y-90843000D01*
X104027335Y-90843000D01*
X104304574Y-90787853D01*
X104565727Y-90679680D01*
X104800759Y-90522637D01*
X105000637Y-90322759D01*
X105157680Y-90087727D01*
X105265853Y-89826574D01*
X105321000Y-89549335D01*
X105321000Y-89266665D01*
X105265853Y-88989426D01*
X105157680Y-88728273D01*
X105000637Y-88493241D01*
X104800759Y-88293363D01*
X104565727Y-88136320D01*
X104304574Y-88028147D01*
X104027335Y-87973000D01*
X103744665Y-87973000D01*
X103467426Y-88028147D01*
X103206273Y-88136320D01*
X102971241Y-88293363D01*
X102771363Y-88493241D01*
X102718070Y-88573000D01*
X101326233Y-88573000D01*
X101280494Y-88535463D01*
X101170180Y-88476498D01*
X101050482Y-88440188D01*
X100926000Y-88427928D01*
X99226000Y-88427928D01*
X99101518Y-88440188D01*
X98981820Y-88476498D01*
X98871506Y-88535463D01*
X98774815Y-88614815D01*
X98695463Y-88711506D01*
X98636498Y-88821820D01*
X98600188Y-88941518D01*
X98587928Y-89066000D01*
X98587928Y-90766000D01*
X98600188Y-90890482D01*
X98636498Y-91010180D01*
X98695463Y-91120494D01*
X98774815Y-91217185D01*
X98871506Y-91296537D01*
X98981820Y-91355502D01*
X99054380Y-91377513D01*
X98922525Y-91509368D01*
X98775762Y-91729015D01*
X98720854Y-91758364D01*
X98593709Y-91862709D01*
X98567563Y-91894568D01*
X94437102Y-96025031D01*
X94371592Y-96012000D01*
X94096408Y-96012000D01*
X93826510Y-96065686D01*
X93572273Y-96170995D01*
X93343465Y-96323880D01*
X93148880Y-96518465D01*
X92995995Y-96747273D01*
X92890686Y-97001510D01*
X92837000Y-97271408D01*
X92837000Y-97546592D01*
X92890686Y-97816490D01*
X92995995Y-98070727D01*
X93148880Y-98299535D01*
X93343465Y-98494120D01*
X93399000Y-98531228D01*
X93399001Y-99461772D01*
X93343465Y-99498880D01*
X93148880Y-99693465D01*
X92995995Y-99922273D01*
X92890686Y-100176510D01*
X92837000Y-100446408D01*
X92837000Y-100721592D01*
X92880444Y-100940000D01*
X40669392Y-100940000D01*
X39857751Y-100867563D01*
X39100226Y-100660328D01*
X38391373Y-100322221D01*
X37753590Y-99863928D01*
X37207054Y-99299945D01*
X36769022Y-98648085D01*
X36453349Y-97928963D01*
X36268794Y-97160232D01*
X36220000Y-96495792D01*
X36220000Y-96134519D01*
X36726150Y-96134519D01*
X36726150Y-96905481D01*
X36876557Y-97661628D01*
X37171592Y-98373903D01*
X37599915Y-99014934D01*
X38145066Y-99560085D01*
X38786097Y-99988408D01*
X39498372Y-100283443D01*
X40254519Y-100433850D01*
X41025481Y-100433850D01*
X41781628Y-100283443D01*
X42493903Y-99988408D01*
X43134934Y-99560085D01*
X43680085Y-99014934D01*
X44108408Y-98373903D01*
X44403443Y-97661628D01*
X44553850Y-96905481D01*
X44553850Y-96134519D01*
X44403443Y-95378372D01*
X44108408Y-94666097D01*
X43680085Y-94025066D01*
X43134934Y-93479915D01*
X42493903Y-93051592D01*
X41781628Y-92756557D01*
X41025481Y-92606150D01*
X40254519Y-92606150D01*
X39498372Y-92756557D01*
X38786097Y-93051592D01*
X38145066Y-93479915D01*
X37599915Y-94025066D01*
X37171592Y-94666097D01*
X36876557Y-95378372D01*
X36726150Y-96134519D01*
X36220000Y-96134519D01*
X36220000Y-72691413D01*
X49082192Y-72691413D01*
X49177956Y-72955814D01*
X49467571Y-73096704D01*
X49779108Y-73178384D01*
X50100595Y-73197718D01*
X50419675Y-73153961D01*
X50724088Y-73048795D01*
X50898044Y-72955814D01*
X50993808Y-72691413D01*
X55582192Y-72691413D01*
X55677956Y-72955814D01*
X55967571Y-73096704D01*
X56279108Y-73178384D01*
X56600595Y-73197718D01*
X56919675Y-73153961D01*
X57224088Y-73048795D01*
X57398044Y-72955814D01*
X57493808Y-72691413D01*
X56538000Y-71735605D01*
X55582192Y-72691413D01*
X50993808Y-72691413D01*
X50038000Y-71735605D01*
X49082192Y-72691413D01*
X36220000Y-72691413D01*
X36220000Y-71618595D01*
X48396282Y-71618595D01*
X48440039Y-71937675D01*
X48545205Y-72242088D01*
X48638186Y-72416044D01*
X48902587Y-72511808D01*
X49858395Y-71556000D01*
X50217605Y-71556000D01*
X51173413Y-72511808D01*
X51437814Y-72416044D01*
X51578704Y-72126429D01*
X51660384Y-71814892D01*
X51672189Y-71618595D01*
X54896282Y-71618595D01*
X54940039Y-71937675D01*
X55045205Y-72242088D01*
X55138186Y-72416044D01*
X55402587Y-72511808D01*
X56358395Y-71556000D01*
X56717605Y-71556000D01*
X57673413Y-72511808D01*
X57937814Y-72416044D01*
X58078704Y-72126429D01*
X58160384Y-71814892D01*
X58179718Y-71493405D01*
X58135961Y-71174325D01*
X58030795Y-70869912D01*
X57937814Y-70695956D01*
X57673413Y-70600192D01*
X56717605Y-71556000D01*
X56358395Y-71556000D01*
X55402587Y-70600192D01*
X55138186Y-70695956D01*
X54997296Y-70985571D01*
X54915616Y-71297108D01*
X54896282Y-71618595D01*
X51672189Y-71618595D01*
X51679718Y-71493405D01*
X51635961Y-71174325D01*
X51530795Y-70869912D01*
X51437814Y-70695956D01*
X51173413Y-70600192D01*
X50217605Y-71556000D01*
X49858395Y-71556000D01*
X48902587Y-70600192D01*
X48638186Y-70695956D01*
X48497296Y-70985571D01*
X48415616Y-71297108D01*
X48396282Y-71618595D01*
X36220000Y-71618595D01*
X36220000Y-70420587D01*
X49082192Y-70420587D01*
X50038000Y-71376395D01*
X50993808Y-70420587D01*
X55582192Y-70420587D01*
X56538000Y-71376395D01*
X57493808Y-70420587D01*
X57398044Y-70156186D01*
X57108429Y-70015296D01*
X56796892Y-69933616D01*
X56475405Y-69914282D01*
X56156325Y-69958039D01*
X55851912Y-70063205D01*
X55677956Y-70156186D01*
X55582192Y-70420587D01*
X50993808Y-70420587D01*
X50898044Y-70156186D01*
X50608429Y-70015296D01*
X50296892Y-69933616D01*
X49975405Y-69914282D01*
X49656325Y-69958039D01*
X49351912Y-70063205D01*
X49177956Y-70156186D01*
X49082192Y-70420587D01*
X36220000Y-70420587D01*
X36220000Y-68823408D01*
X108331000Y-68823408D01*
X108331000Y-69098592D01*
X108384686Y-69368490D01*
X108489995Y-69622727D01*
X108642880Y-69851535D01*
X108837465Y-70046120D01*
X109019123Y-70167500D01*
X108837465Y-70288880D01*
X108642880Y-70483465D01*
X108489995Y-70712273D01*
X108384686Y-70966510D01*
X108331000Y-71236408D01*
X108331000Y-71511592D01*
X108384686Y-71781490D01*
X108489995Y-72035727D01*
X108642880Y-72264535D01*
X108837465Y-72459120D01*
X109066273Y-72612005D01*
X109143515Y-72644000D01*
X109066273Y-72675995D01*
X108837465Y-72828880D01*
X108642880Y-73023465D01*
X108489995Y-73252273D01*
X108384686Y-73506510D01*
X108331000Y-73776408D01*
X108331000Y-74051592D01*
X108384686Y-74321490D01*
X108489995Y-74575727D01*
X108642880Y-74804535D01*
X108837465Y-74999120D01*
X109066273Y-75152005D01*
X109143515Y-75184000D01*
X109066273Y-75215995D01*
X108837465Y-75368880D01*
X108642880Y-75563465D01*
X108489995Y-75792273D01*
X108384686Y-76046510D01*
X108331000Y-76316408D01*
X108331000Y-76591592D01*
X108384686Y-76861490D01*
X108489995Y-77115727D01*
X108642880Y-77344535D01*
X108837465Y-77539120D01*
X109066273Y-77692005D01*
X109143515Y-77724000D01*
X109066273Y-77755995D01*
X108837465Y-77908880D01*
X108642880Y-78103465D01*
X108489995Y-78332273D01*
X108384686Y-78586510D01*
X108331000Y-78856408D01*
X108331000Y-79131592D01*
X108384686Y-79401490D01*
X108489995Y-79655727D01*
X108642880Y-79884535D01*
X108837465Y-80079120D01*
X109066273Y-80232005D01*
X109143515Y-80264000D01*
X109066273Y-80295995D01*
X108837465Y-80448880D01*
X108642880Y-80643465D01*
X108489995Y-80872273D01*
X108384686Y-81126510D01*
X108331000Y-81396408D01*
X108331000Y-81671592D01*
X108384686Y-81941490D01*
X108489995Y-82195727D01*
X108642880Y-82424535D01*
X108837465Y-82619120D01*
X109066273Y-82772005D01*
X109143515Y-82804000D01*
X109066273Y-82835995D01*
X108837465Y-82988880D01*
X108642880Y-83183465D01*
X108489995Y-83412273D01*
X108384686Y-83666510D01*
X108331000Y-83936408D01*
X108331000Y-84211592D01*
X108384686Y-84481490D01*
X108489995Y-84735727D01*
X108642880Y-84964535D01*
X108837465Y-85159120D01*
X109066273Y-85312005D01*
X109143515Y-85344000D01*
X109066273Y-85375995D01*
X108837465Y-85528880D01*
X108642880Y-85723465D01*
X108489995Y-85952273D01*
X108384686Y-86206510D01*
X108331000Y-86476408D01*
X108331000Y-86751592D01*
X108384686Y-87021490D01*
X108489995Y-87275727D01*
X108642880Y-87504535D01*
X108837465Y-87699120D01*
X109066273Y-87852005D01*
X109143515Y-87884000D01*
X109066273Y-87915995D01*
X108837465Y-88068880D01*
X108642880Y-88263465D01*
X108489995Y-88492273D01*
X108384686Y-88746510D01*
X108331000Y-89016408D01*
X108331000Y-89291592D01*
X108384686Y-89561490D01*
X108489995Y-89815727D01*
X108642880Y-90044535D01*
X108837465Y-90239120D01*
X109066273Y-90392005D01*
X109143515Y-90424000D01*
X109066273Y-90455995D01*
X108837465Y-90608880D01*
X108642880Y-90803465D01*
X108489995Y-91032273D01*
X108384686Y-91286510D01*
X108331000Y-91556408D01*
X108331000Y-91831592D01*
X108384686Y-92101490D01*
X108489995Y-92355727D01*
X108642880Y-92584535D01*
X108837465Y-92779120D01*
X109066273Y-92932005D01*
X109137943Y-92961692D01*
X109124977Y-92966364D01*
X109009020Y-93028344D01*
X108942040Y-93268435D01*
X109728000Y-94054395D01*
X110513960Y-93268435D01*
X110446980Y-93028344D01*
X110311240Y-92964515D01*
X110389727Y-92932005D01*
X110618535Y-92779120D01*
X110813120Y-92584535D01*
X110966005Y-92355727D01*
X111071314Y-92101490D01*
X111125000Y-91831592D01*
X111125000Y-91766017D01*
X123439090Y-91766017D01*
X123480078Y-92038133D01*
X123573364Y-92297023D01*
X123635344Y-92412980D01*
X123875435Y-92479960D01*
X124661395Y-91694000D01*
X125020605Y-91694000D01*
X125806565Y-92479960D01*
X126046656Y-92412980D01*
X126163756Y-92163952D01*
X126230023Y-91896865D01*
X126242910Y-91621983D01*
X126201922Y-91349867D01*
X126108636Y-91090977D01*
X126046656Y-90975020D01*
X125806565Y-90908040D01*
X125020605Y-91694000D01*
X124661395Y-91694000D01*
X123875435Y-90908040D01*
X123635344Y-90975020D01*
X123518244Y-91224048D01*
X123451977Y-91491135D01*
X123439090Y-91766017D01*
X111125000Y-91766017D01*
X111125000Y-91556408D01*
X111071314Y-91286510D01*
X110966005Y-91032273D01*
X110813120Y-90803465D01*
X110618535Y-90608880D01*
X110389727Y-90455995D01*
X110312485Y-90424000D01*
X110389727Y-90392005D01*
X110618535Y-90239120D01*
X110738090Y-90119565D01*
X124055040Y-90119565D01*
X124122020Y-90359656D01*
X124252644Y-90421079D01*
X124237977Y-90426364D01*
X124122020Y-90488344D01*
X124055040Y-90728435D01*
X124841000Y-91514395D01*
X125626960Y-90728435D01*
X125559980Y-90488344D01*
X125429356Y-90426921D01*
X125444023Y-90421636D01*
X125559980Y-90359656D01*
X125626960Y-90119565D01*
X124841000Y-89333605D01*
X124055040Y-90119565D01*
X110738090Y-90119565D01*
X110813120Y-90044535D01*
X110966005Y-89815727D01*
X111071314Y-89561490D01*
X111125000Y-89291592D01*
X111125000Y-89226017D01*
X123439090Y-89226017D01*
X123480078Y-89498133D01*
X123573364Y-89757023D01*
X123635344Y-89872980D01*
X123875435Y-89939960D01*
X124661395Y-89154000D01*
X125020605Y-89154000D01*
X125806565Y-89939960D01*
X126046656Y-89872980D01*
X126163756Y-89623952D01*
X126230023Y-89356865D01*
X126242910Y-89081983D01*
X126201922Y-88809867D01*
X126108636Y-88550977D01*
X126046656Y-88435020D01*
X125806565Y-88368040D01*
X125020605Y-89154000D01*
X124661395Y-89154000D01*
X123875435Y-88368040D01*
X123635344Y-88435020D01*
X123518244Y-88684048D01*
X123451977Y-88951135D01*
X123439090Y-89226017D01*
X111125000Y-89226017D01*
X111125000Y-89016408D01*
X111071314Y-88746510D01*
X110966005Y-88492273D01*
X110813120Y-88263465D01*
X110618535Y-88068880D01*
X110389727Y-87915995D01*
X110312485Y-87884000D01*
X110389727Y-87852005D01*
X110618535Y-87699120D01*
X110813120Y-87504535D01*
X110966005Y-87275727D01*
X111071314Y-87021490D01*
X111125000Y-86751592D01*
X111125000Y-86476408D01*
X111071314Y-86206510D01*
X110966005Y-85952273D01*
X110813120Y-85723465D01*
X110618535Y-85528880D01*
X110389727Y-85375995D01*
X110312485Y-85344000D01*
X110389727Y-85312005D01*
X110618535Y-85159120D01*
X110813120Y-84964535D01*
X110966005Y-84735727D01*
X111071314Y-84481490D01*
X111125000Y-84211592D01*
X111125000Y-83936408D01*
X111071314Y-83666510D01*
X110966005Y-83412273D01*
X110813120Y-83183465D01*
X110618535Y-82988880D01*
X110389727Y-82835995D01*
X110312485Y-82804000D01*
X110389727Y-82772005D01*
X110618535Y-82619120D01*
X110813120Y-82424535D01*
X110966005Y-82195727D01*
X111071314Y-81941490D01*
X111125000Y-81671592D01*
X111125000Y-81396408D01*
X111071314Y-81126510D01*
X110966005Y-80872273D01*
X110813120Y-80643465D01*
X110618535Y-80448880D01*
X110389727Y-80295995D01*
X110312485Y-80264000D01*
X110389727Y-80232005D01*
X110618535Y-80079120D01*
X110813120Y-79884535D01*
X110966005Y-79655727D01*
X111071314Y-79401490D01*
X111125000Y-79131592D01*
X111125000Y-78856408D01*
X111071314Y-78586510D01*
X110966005Y-78332273D01*
X110813120Y-78103465D01*
X110618535Y-77908880D01*
X110389727Y-77755995D01*
X110312485Y-77724000D01*
X110389727Y-77692005D01*
X110618535Y-77539120D01*
X110813120Y-77344535D01*
X110966005Y-77115727D01*
X111071314Y-76861490D01*
X111125000Y-76591592D01*
X111125000Y-76316408D01*
X111071314Y-76046510D01*
X110966005Y-75792273D01*
X110813120Y-75563465D01*
X110618535Y-75368880D01*
X110389727Y-75215995D01*
X110312485Y-75184000D01*
X110389727Y-75152005D01*
X110618535Y-74999120D01*
X110813120Y-74804535D01*
X110966005Y-74575727D01*
X111071314Y-74321490D01*
X111125000Y-74051592D01*
X111125000Y-73776408D01*
X111071314Y-73506510D01*
X110966005Y-73252273D01*
X110813120Y-73023465D01*
X110618535Y-72828880D01*
X110389727Y-72675995D01*
X110312485Y-72644000D01*
X110389727Y-72612005D01*
X110618535Y-72459120D01*
X110813120Y-72264535D01*
X110966005Y-72035727D01*
X111071314Y-71781490D01*
X111125000Y-71511592D01*
X111125000Y-71236408D01*
X111071314Y-70966510D01*
X110966005Y-70712273D01*
X110813120Y-70483465D01*
X110618535Y-70288880D01*
X110436877Y-70167500D01*
X110618535Y-70046120D01*
X110813120Y-69851535D01*
X110966005Y-69622727D01*
X111071314Y-69368490D01*
X111125000Y-69098592D01*
X111125000Y-68823408D01*
X111071314Y-68553510D01*
X110966005Y-68299273D01*
X110813120Y-68070465D01*
X110618535Y-67875880D01*
X110389727Y-67722995D01*
X110135490Y-67617686D01*
X109865592Y-67564000D01*
X109590408Y-67564000D01*
X109320510Y-67617686D01*
X109066273Y-67722995D01*
X108837465Y-67875880D01*
X108642880Y-68070465D01*
X108489995Y-68299273D01*
X108384686Y-68553510D01*
X108331000Y-68823408D01*
X36220000Y-68823408D01*
X36220000Y-66894967D01*
X48403000Y-66894967D01*
X48403000Y-67217033D01*
X48465832Y-67532912D01*
X48589082Y-67830463D01*
X48768013Y-68098252D01*
X48995748Y-68325987D01*
X49263537Y-68504918D01*
X49561088Y-68628168D01*
X49876967Y-68691000D01*
X50199033Y-68691000D01*
X50514912Y-68628168D01*
X50812463Y-68504918D01*
X51080252Y-68325987D01*
X51307987Y-68098252D01*
X51446468Y-67891000D01*
X55129532Y-67891000D01*
X55268013Y-68098252D01*
X55495748Y-68325987D01*
X55763537Y-68504918D01*
X56061088Y-68628168D01*
X56376967Y-68691000D01*
X56699033Y-68691000D01*
X57014912Y-68628168D01*
X57312463Y-68504918D01*
X57580252Y-68325987D01*
X57807987Y-68098252D01*
X57986918Y-67830463D01*
X58110168Y-67532912D01*
X58173000Y-67217033D01*
X58173000Y-66894967D01*
X58110168Y-66579088D01*
X57986918Y-66281537D01*
X57807987Y-66013748D01*
X57580252Y-65786013D01*
X57312463Y-65607082D01*
X57014912Y-65483832D01*
X56699033Y-65421000D01*
X56376967Y-65421000D01*
X56061088Y-65483832D01*
X55763537Y-65607082D01*
X55495748Y-65786013D01*
X55268013Y-66013748D01*
X55129532Y-66221000D01*
X51446468Y-66221000D01*
X51307987Y-66013748D01*
X51080252Y-65786013D01*
X50812463Y-65607082D01*
X50514912Y-65483832D01*
X50199033Y-65421000D01*
X49876967Y-65421000D01*
X49561088Y-65483832D01*
X49263537Y-65607082D01*
X48995748Y-65786013D01*
X48768013Y-66013748D01*
X48589082Y-66281537D01*
X48465832Y-66579088D01*
X48403000Y-66894967D01*
X36220000Y-66894967D01*
X36220000Y-64309413D01*
X40700192Y-64309413D01*
X40795956Y-64573814D01*
X41085571Y-64714704D01*
X41397108Y-64796384D01*
X41718595Y-64815718D01*
X42037675Y-64771961D01*
X42342088Y-64666795D01*
X42516044Y-64573814D01*
X42611808Y-64309413D01*
X47200192Y-64309413D01*
X47295956Y-64573814D01*
X47585571Y-64714704D01*
X47897108Y-64796384D01*
X48218595Y-64815718D01*
X48537675Y-64771961D01*
X48842088Y-64666795D01*
X49016044Y-64573814D01*
X49111808Y-64309413D01*
X57464192Y-64309413D01*
X57559956Y-64573814D01*
X57849571Y-64714704D01*
X58161108Y-64796384D01*
X58482595Y-64815718D01*
X58801675Y-64771961D01*
X59106088Y-64666795D01*
X59280044Y-64573814D01*
X59375808Y-64309413D01*
X63964192Y-64309413D01*
X64059956Y-64573814D01*
X64349571Y-64714704D01*
X64661108Y-64796384D01*
X64982595Y-64815718D01*
X65301675Y-64771961D01*
X65606088Y-64666795D01*
X65780044Y-64573814D01*
X65875808Y-64309413D01*
X64920000Y-63353605D01*
X63964192Y-64309413D01*
X59375808Y-64309413D01*
X58420000Y-63353605D01*
X57464192Y-64309413D01*
X49111808Y-64309413D01*
X48156000Y-63353605D01*
X47200192Y-64309413D01*
X42611808Y-64309413D01*
X41656000Y-63353605D01*
X40700192Y-64309413D01*
X36220000Y-64309413D01*
X36220000Y-63236595D01*
X40014282Y-63236595D01*
X40058039Y-63555675D01*
X40163205Y-63860088D01*
X40256186Y-64034044D01*
X40520587Y-64129808D01*
X41476395Y-63174000D01*
X41835605Y-63174000D01*
X42791413Y-64129808D01*
X43055814Y-64034044D01*
X43196704Y-63744429D01*
X43278384Y-63432892D01*
X43290189Y-63236595D01*
X46514282Y-63236595D01*
X46558039Y-63555675D01*
X46663205Y-63860088D01*
X46756186Y-64034044D01*
X47020587Y-64129808D01*
X47976395Y-63174000D01*
X48335605Y-63174000D01*
X49291413Y-64129808D01*
X49555814Y-64034044D01*
X49696704Y-63744429D01*
X49778384Y-63432892D01*
X49790189Y-63236595D01*
X56778282Y-63236595D01*
X56822039Y-63555675D01*
X56927205Y-63860088D01*
X57020186Y-64034044D01*
X57284587Y-64129808D01*
X58240395Y-63174000D01*
X58599605Y-63174000D01*
X59555413Y-64129808D01*
X59819814Y-64034044D01*
X59960704Y-63744429D01*
X60042384Y-63432892D01*
X60054189Y-63236595D01*
X63278282Y-63236595D01*
X63322039Y-63555675D01*
X63427205Y-63860088D01*
X63520186Y-64034044D01*
X63784587Y-64129808D01*
X64740395Y-63174000D01*
X65099605Y-63174000D01*
X66055413Y-64129808D01*
X66319814Y-64034044D01*
X66460704Y-63744429D01*
X66542384Y-63432892D01*
X66561718Y-63111405D01*
X66517961Y-62792325D01*
X66412795Y-62487912D01*
X66319814Y-62313956D01*
X66055413Y-62218192D01*
X65099605Y-63174000D01*
X64740395Y-63174000D01*
X63784587Y-62218192D01*
X63520186Y-62313956D01*
X63379296Y-62603571D01*
X63297616Y-62915108D01*
X63278282Y-63236595D01*
X60054189Y-63236595D01*
X60061718Y-63111405D01*
X60017961Y-62792325D01*
X59912795Y-62487912D01*
X59819814Y-62313956D01*
X59555413Y-62218192D01*
X58599605Y-63174000D01*
X58240395Y-63174000D01*
X57284587Y-62218192D01*
X57020186Y-62313956D01*
X56879296Y-62603571D01*
X56797616Y-62915108D01*
X56778282Y-63236595D01*
X49790189Y-63236595D01*
X49797718Y-63111405D01*
X49753961Y-62792325D01*
X49648795Y-62487912D01*
X49555814Y-62313956D01*
X49291413Y-62218192D01*
X48335605Y-63174000D01*
X47976395Y-63174000D01*
X47020587Y-62218192D01*
X46756186Y-62313956D01*
X46615296Y-62603571D01*
X46533616Y-62915108D01*
X46514282Y-63236595D01*
X43290189Y-63236595D01*
X43297718Y-63111405D01*
X43253961Y-62792325D01*
X43148795Y-62487912D01*
X43055814Y-62313956D01*
X42791413Y-62218192D01*
X41835605Y-63174000D01*
X41476395Y-63174000D01*
X40520587Y-62218192D01*
X40256186Y-62313956D01*
X40115296Y-62603571D01*
X40033616Y-62915108D01*
X40014282Y-63236595D01*
X36220000Y-63236595D01*
X36220000Y-62038587D01*
X40700192Y-62038587D01*
X41656000Y-62994395D01*
X42611808Y-62038587D01*
X47200192Y-62038587D01*
X48156000Y-62994395D01*
X49111808Y-62038587D01*
X57464192Y-62038587D01*
X58420000Y-62994395D01*
X59375808Y-62038587D01*
X63964192Y-62038587D01*
X64920000Y-62994395D01*
X65875808Y-62038587D01*
X65780044Y-61774186D01*
X65490429Y-61633296D01*
X65178892Y-61551616D01*
X64857405Y-61532282D01*
X64538325Y-61576039D01*
X64233912Y-61681205D01*
X64059956Y-61774186D01*
X63964192Y-62038587D01*
X59375808Y-62038587D01*
X59280044Y-61774186D01*
X58990429Y-61633296D01*
X58678892Y-61551616D01*
X58357405Y-61532282D01*
X58038325Y-61576039D01*
X57733912Y-61681205D01*
X57559956Y-61774186D01*
X57464192Y-62038587D01*
X49111808Y-62038587D01*
X49016044Y-61774186D01*
X48726429Y-61633296D01*
X48414892Y-61551616D01*
X48093405Y-61532282D01*
X47774325Y-61576039D01*
X47469912Y-61681205D01*
X47295956Y-61774186D01*
X47200192Y-62038587D01*
X42611808Y-62038587D01*
X42516044Y-61774186D01*
X42226429Y-61633296D01*
X41914892Y-61551616D01*
X41593405Y-61532282D01*
X41274325Y-61576039D01*
X40969912Y-61681205D01*
X40795956Y-61774186D01*
X40700192Y-62038587D01*
X36220000Y-62038587D01*
X36220000Y-58512967D01*
X40021000Y-58512967D01*
X40021000Y-58835033D01*
X40083832Y-59150912D01*
X40207082Y-59448463D01*
X40386013Y-59716252D01*
X40613748Y-59943987D01*
X40881537Y-60122918D01*
X41179088Y-60246168D01*
X41494967Y-60309000D01*
X41817033Y-60309000D01*
X42132912Y-60246168D01*
X42430463Y-60122918D01*
X42698252Y-59943987D01*
X42925987Y-59716252D01*
X43064468Y-59509000D01*
X46747532Y-59509000D01*
X46886013Y-59716252D01*
X47113748Y-59943987D01*
X47381537Y-60122918D01*
X47679088Y-60246168D01*
X47994967Y-60309000D01*
X48317033Y-60309000D01*
X48632912Y-60246168D01*
X48930463Y-60122918D01*
X49198252Y-59943987D01*
X49425987Y-59716252D01*
X49604918Y-59448463D01*
X49728168Y-59150912D01*
X49791000Y-58835033D01*
X49791000Y-58512967D01*
X56785000Y-58512967D01*
X56785000Y-58835033D01*
X56847832Y-59150912D01*
X56971082Y-59448463D01*
X57150013Y-59716252D01*
X57377748Y-59943987D01*
X57645537Y-60122918D01*
X57943088Y-60246168D01*
X58258967Y-60309000D01*
X58581033Y-60309000D01*
X58896912Y-60246168D01*
X59194463Y-60122918D01*
X59462252Y-59943987D01*
X59689987Y-59716252D01*
X59828468Y-59509000D01*
X63511532Y-59509000D01*
X63650013Y-59716252D01*
X63877748Y-59943987D01*
X64145537Y-60122918D01*
X64443088Y-60246168D01*
X64758967Y-60309000D01*
X65081033Y-60309000D01*
X65396912Y-60246168D01*
X65694463Y-60122918D01*
X65962252Y-59943987D01*
X66189987Y-59716252D01*
X66368918Y-59448463D01*
X66492168Y-59150912D01*
X66555000Y-58835033D01*
X66555000Y-58512967D01*
X66492168Y-58197088D01*
X66368918Y-57899537D01*
X66189987Y-57631748D01*
X65962252Y-57404013D01*
X65694463Y-57225082D01*
X65396912Y-57101832D01*
X65081033Y-57039000D01*
X64758967Y-57039000D01*
X64443088Y-57101832D01*
X64145537Y-57225082D01*
X63877748Y-57404013D01*
X63650013Y-57631748D01*
X63511532Y-57839000D01*
X59828468Y-57839000D01*
X59689987Y-57631748D01*
X59462252Y-57404013D01*
X59194463Y-57225082D01*
X58896912Y-57101832D01*
X58581033Y-57039000D01*
X58258967Y-57039000D01*
X57943088Y-57101832D01*
X57645537Y-57225082D01*
X57377748Y-57404013D01*
X57150013Y-57631748D01*
X56971082Y-57899537D01*
X56847832Y-58197088D01*
X56785000Y-58512967D01*
X49791000Y-58512967D01*
X49728168Y-58197088D01*
X49604918Y-57899537D01*
X49425987Y-57631748D01*
X49198252Y-57404013D01*
X48930463Y-57225082D01*
X48632912Y-57101832D01*
X48317033Y-57039000D01*
X47994967Y-57039000D01*
X47679088Y-57101832D01*
X47381537Y-57225082D01*
X47113748Y-57404013D01*
X46886013Y-57631748D01*
X46747532Y-57839000D01*
X43064468Y-57839000D01*
X42925987Y-57631748D01*
X42698252Y-57404013D01*
X42430463Y-57225082D01*
X42132912Y-57101832D01*
X41817033Y-57039000D01*
X41494967Y-57039000D01*
X41179088Y-57101832D01*
X40881537Y-57225082D01*
X40613748Y-57404013D01*
X40386013Y-57631748D01*
X40207082Y-57899537D01*
X40083832Y-58197088D01*
X40021000Y-58512967D01*
X36220000Y-58512967D01*
X36220000Y-55927413D01*
X49082192Y-55927413D01*
X49177956Y-56191814D01*
X49467571Y-56332704D01*
X49779108Y-56414384D01*
X50100595Y-56433718D01*
X50419675Y-56389961D01*
X50724088Y-56284795D01*
X50898044Y-56191814D01*
X50993808Y-55927413D01*
X55582192Y-55927413D01*
X55677956Y-56191814D01*
X55967571Y-56332704D01*
X56279108Y-56414384D01*
X56600595Y-56433718D01*
X56919675Y-56389961D01*
X57224088Y-56284795D01*
X57398044Y-56191814D01*
X57493808Y-55927413D01*
X56538000Y-54971605D01*
X55582192Y-55927413D01*
X50993808Y-55927413D01*
X50038000Y-54971605D01*
X49082192Y-55927413D01*
X36220000Y-55927413D01*
X36220000Y-54854595D01*
X48396282Y-54854595D01*
X48440039Y-55173675D01*
X48545205Y-55478088D01*
X48638186Y-55652044D01*
X48902587Y-55747808D01*
X49858395Y-54792000D01*
X50217605Y-54792000D01*
X51173413Y-55747808D01*
X51437814Y-55652044D01*
X51578704Y-55362429D01*
X51660384Y-55050892D01*
X51672189Y-54854595D01*
X54896282Y-54854595D01*
X54940039Y-55173675D01*
X55045205Y-55478088D01*
X55138186Y-55652044D01*
X55402587Y-55747808D01*
X56358395Y-54792000D01*
X56717605Y-54792000D01*
X57673413Y-55747808D01*
X57937814Y-55652044D01*
X58078704Y-55362429D01*
X58160384Y-55050892D01*
X58179718Y-54729405D01*
X58135961Y-54410325D01*
X58030795Y-54105912D01*
X57937814Y-53931956D01*
X57673413Y-53836192D01*
X56717605Y-54792000D01*
X56358395Y-54792000D01*
X55402587Y-53836192D01*
X55138186Y-53931956D01*
X54997296Y-54221571D01*
X54915616Y-54533108D01*
X54896282Y-54854595D01*
X51672189Y-54854595D01*
X51679718Y-54729405D01*
X51635961Y-54410325D01*
X51530795Y-54105912D01*
X51437814Y-53931956D01*
X51173413Y-53836192D01*
X50217605Y-54792000D01*
X49858395Y-54792000D01*
X48902587Y-53836192D01*
X48638186Y-53931956D01*
X48497296Y-54221571D01*
X48415616Y-54533108D01*
X48396282Y-54854595D01*
X36220000Y-54854595D01*
X36220000Y-53656587D01*
X49082192Y-53656587D01*
X50038000Y-54612395D01*
X50993808Y-53656587D01*
X55582192Y-53656587D01*
X56538000Y-54612395D01*
X57493808Y-53656587D01*
X57398044Y-53392186D01*
X57108429Y-53251296D01*
X56796892Y-53169616D01*
X56475405Y-53150282D01*
X56156325Y-53194039D01*
X55851912Y-53299205D01*
X55677956Y-53392186D01*
X55582192Y-53656587D01*
X50993808Y-53656587D01*
X50898044Y-53392186D01*
X50608429Y-53251296D01*
X50296892Y-53169616D01*
X49975405Y-53150282D01*
X49656325Y-53194039D01*
X49351912Y-53299205D01*
X49177956Y-53392186D01*
X49082192Y-53656587D01*
X36220000Y-53656587D01*
X36220000Y-50130967D01*
X48403000Y-50130967D01*
X48403000Y-50453033D01*
X48465832Y-50768912D01*
X48589082Y-51066463D01*
X48768013Y-51334252D01*
X48995748Y-51561987D01*
X49263537Y-51740918D01*
X49561088Y-51864168D01*
X49876967Y-51927000D01*
X50199033Y-51927000D01*
X50514912Y-51864168D01*
X50812463Y-51740918D01*
X51080252Y-51561987D01*
X51307987Y-51334252D01*
X51446468Y-51127000D01*
X55129532Y-51127000D01*
X55268013Y-51334252D01*
X55495748Y-51561987D01*
X55763537Y-51740918D01*
X56061088Y-51864168D01*
X56376967Y-51927000D01*
X56699033Y-51927000D01*
X57014912Y-51864168D01*
X57312463Y-51740918D01*
X57580252Y-51561987D01*
X57807987Y-51334252D01*
X57986918Y-51066463D01*
X58110168Y-50768912D01*
X58173000Y-50453033D01*
X58173000Y-50130967D01*
X58110168Y-49815088D01*
X57986918Y-49517537D01*
X57807987Y-49249748D01*
X57580252Y-49022013D01*
X57312463Y-48843082D01*
X57014912Y-48719832D01*
X56699033Y-48657000D01*
X56376967Y-48657000D01*
X56061088Y-48719832D01*
X55763537Y-48843082D01*
X55495748Y-49022013D01*
X55268013Y-49249748D01*
X55129532Y-49457000D01*
X51446468Y-49457000D01*
X51307987Y-49249748D01*
X51080252Y-49022013D01*
X50812463Y-48843082D01*
X50514912Y-48719832D01*
X50199033Y-48657000D01*
X49876967Y-48657000D01*
X49561088Y-48719832D01*
X49263537Y-48843082D01*
X48995748Y-49022013D01*
X48768013Y-49249748D01*
X48589082Y-49517537D01*
X48465832Y-49815088D01*
X48403000Y-50130967D01*
X36220000Y-50130967D01*
X36220000Y-40669392D01*
X36255234Y-40274592D01*
X36929951Y-40274592D01*
X36929951Y-41005408D01*
X37072526Y-41722181D01*
X37352198Y-42397367D01*
X37758217Y-43005018D01*
X38274982Y-43521783D01*
X38882633Y-43927802D01*
X39557819Y-44207474D01*
X40274592Y-44350049D01*
X41005408Y-44350049D01*
X41722181Y-44207474D01*
X42397367Y-43927802D01*
X42617121Y-43780967D01*
X59599000Y-43780967D01*
X59599000Y-44103033D01*
X59661832Y-44418912D01*
X59785082Y-44716463D01*
X59964013Y-44984252D01*
X60191748Y-45211987D01*
X60459537Y-45390918D01*
X60757088Y-45514168D01*
X61072967Y-45577000D01*
X61395033Y-45577000D01*
X61710912Y-45514168D01*
X62008463Y-45390918D01*
X62276252Y-45211987D01*
X62503987Y-44984252D01*
X62682918Y-44716463D01*
X62806168Y-44418912D01*
X62869000Y-44103033D01*
X62869000Y-43780967D01*
X62820372Y-43536496D01*
X64627869Y-41729000D01*
X70774133Y-41729000D01*
X72152133Y-43107000D01*
X70472072Y-43107000D01*
X70472072Y-42942000D01*
X70459812Y-42817518D01*
X70423502Y-42697820D01*
X70364537Y-42587506D01*
X70285185Y-42490815D01*
X70188494Y-42411463D01*
X70078180Y-42352498D01*
X69958482Y-42316188D01*
X69834000Y-42303928D01*
X67834000Y-42303928D01*
X67709518Y-42316188D01*
X67589820Y-42352498D01*
X67479506Y-42411463D01*
X67382815Y-42490815D01*
X67303463Y-42587506D01*
X67244498Y-42697820D01*
X67208188Y-42817518D01*
X67195928Y-42942000D01*
X67195928Y-44942000D01*
X67208188Y-45066482D01*
X67244498Y-45186180D01*
X67303463Y-45296494D01*
X67382815Y-45393185D01*
X67479506Y-45472537D01*
X67589820Y-45531502D01*
X67709518Y-45567812D01*
X67834000Y-45580072D01*
X69834000Y-45580072D01*
X69958482Y-45567812D01*
X70078180Y-45531502D01*
X70188494Y-45472537D01*
X70285185Y-45393185D01*
X70364537Y-45296494D01*
X70423502Y-45186180D01*
X70459812Y-45066482D01*
X70472072Y-44942000D01*
X70472072Y-44777000D01*
X72806133Y-44777000D01*
X73802558Y-45773426D01*
X73828709Y-45805291D01*
X73955854Y-45909636D01*
X74100913Y-45987172D01*
X74258311Y-46034918D01*
X74380981Y-46047000D01*
X74380983Y-46047000D01*
X74421999Y-46051040D01*
X74463015Y-46047000D01*
X86268133Y-46047000D01*
X86502562Y-46281429D01*
X107330559Y-67109427D01*
X107356709Y-67141291D01*
X107483854Y-67245636D01*
X107628913Y-67323172D01*
X107786311Y-67370918D01*
X107949999Y-67387040D01*
X107991018Y-67383000D01*
X112049133Y-67383000D01*
X123457031Y-78790899D01*
X123444000Y-78856408D01*
X123444000Y-79131592D01*
X123497686Y-79401490D01*
X123602995Y-79655727D01*
X123755880Y-79884535D01*
X123950465Y-80079120D01*
X124179273Y-80232005D01*
X124256515Y-80264000D01*
X124179273Y-80295995D01*
X123950465Y-80448880D01*
X123755880Y-80643465D01*
X123602995Y-80872273D01*
X123497686Y-81126510D01*
X123444000Y-81396408D01*
X123444000Y-81671592D01*
X123497686Y-81941490D01*
X123602995Y-82195727D01*
X123755880Y-82424535D01*
X123950465Y-82619120D01*
X124179273Y-82772005D01*
X124256515Y-82804000D01*
X124179273Y-82835995D01*
X123950465Y-82988880D01*
X123755880Y-83183465D01*
X123602995Y-83412273D01*
X123497686Y-83666510D01*
X123444000Y-83936408D01*
X123444000Y-84211592D01*
X123497686Y-84481490D01*
X123602995Y-84735727D01*
X123755880Y-84964535D01*
X123950465Y-85159120D01*
X124179273Y-85312005D01*
X124256515Y-85344000D01*
X124179273Y-85375995D01*
X123950465Y-85528880D01*
X123755880Y-85723465D01*
X123602995Y-85952273D01*
X123497686Y-86206510D01*
X123444000Y-86476408D01*
X123444000Y-86751592D01*
X123497686Y-87021490D01*
X123602995Y-87275727D01*
X123755880Y-87504535D01*
X123950465Y-87699120D01*
X124179273Y-87852005D01*
X124250943Y-87881692D01*
X124237977Y-87886364D01*
X124122020Y-87948344D01*
X124055040Y-88188435D01*
X124841000Y-88974395D01*
X125626960Y-88188435D01*
X125559980Y-87948344D01*
X125424240Y-87884515D01*
X125502727Y-87852005D01*
X125731535Y-87699120D01*
X125926120Y-87504535D01*
X126079005Y-87275727D01*
X126184314Y-87021490D01*
X126238000Y-86751592D01*
X126238000Y-86476408D01*
X126224969Y-86410898D01*
X127561428Y-85074440D01*
X127593291Y-85048291D01*
X127697636Y-84921146D01*
X127775172Y-84776087D01*
X127822918Y-84618689D01*
X127835000Y-84496019D01*
X127835000Y-84496018D01*
X127839040Y-84455001D01*
X127835000Y-84413982D01*
X127835000Y-80863867D01*
X129593432Y-79105437D01*
X129625291Y-79079291D01*
X129695288Y-78994000D01*
X129729636Y-78952146D01*
X129807172Y-78807087D01*
X129854918Y-78649689D01*
X129871040Y-78486000D01*
X129867000Y-78444982D01*
X129867000Y-66081018D01*
X129871040Y-66039999D01*
X129854918Y-65876311D01*
X129807172Y-65718913D01*
X129729636Y-65573854D01*
X129684477Y-65518828D01*
X129625291Y-65446709D01*
X129593428Y-65420560D01*
X122501000Y-58328133D01*
X122501000Y-57451413D01*
X123758192Y-57451413D01*
X123853956Y-57715814D01*
X124143571Y-57856704D01*
X124455108Y-57938384D01*
X124776595Y-57957718D01*
X125095675Y-57913961D01*
X125400088Y-57808795D01*
X125574044Y-57715814D01*
X125669808Y-57451413D01*
X130258192Y-57451413D01*
X130353956Y-57715814D01*
X130643571Y-57856704D01*
X130955108Y-57938384D01*
X131276595Y-57957718D01*
X131595675Y-57913961D01*
X131900088Y-57808795D01*
X132074044Y-57715814D01*
X132169808Y-57451413D01*
X131214000Y-56495605D01*
X130258192Y-57451413D01*
X125669808Y-57451413D01*
X124714000Y-56495605D01*
X123758192Y-57451413D01*
X122501000Y-57451413D01*
X122501000Y-56378595D01*
X123072282Y-56378595D01*
X123116039Y-56697675D01*
X123221205Y-57002088D01*
X123314186Y-57176044D01*
X123578587Y-57271808D01*
X124534395Y-56316000D01*
X124893605Y-56316000D01*
X125849413Y-57271808D01*
X126113814Y-57176044D01*
X126254704Y-56886429D01*
X126336384Y-56574892D01*
X126348189Y-56378595D01*
X129572282Y-56378595D01*
X129616039Y-56697675D01*
X129721205Y-57002088D01*
X129814186Y-57176044D01*
X130078587Y-57271808D01*
X131034395Y-56316000D01*
X131393605Y-56316000D01*
X132349413Y-57271808D01*
X132613814Y-57176044D01*
X132754704Y-56886429D01*
X132836384Y-56574892D01*
X132855718Y-56253405D01*
X132811961Y-55934325D01*
X132706795Y-55629912D01*
X132613814Y-55455956D01*
X132349413Y-55360192D01*
X131393605Y-56316000D01*
X131034395Y-56316000D01*
X130078587Y-55360192D01*
X129814186Y-55455956D01*
X129673296Y-55745571D01*
X129591616Y-56057108D01*
X129572282Y-56378595D01*
X126348189Y-56378595D01*
X126355718Y-56253405D01*
X126311961Y-55934325D01*
X126206795Y-55629912D01*
X126113814Y-55455956D01*
X125849413Y-55360192D01*
X124893605Y-56316000D01*
X124534395Y-56316000D01*
X123578587Y-55360192D01*
X123314186Y-55455956D01*
X123173296Y-55745571D01*
X123091616Y-56057108D01*
X123072282Y-56378595D01*
X122501000Y-56378595D01*
X122501000Y-55180587D01*
X123758192Y-55180587D01*
X124714000Y-56136395D01*
X125669808Y-55180587D01*
X130258192Y-55180587D01*
X131214000Y-56136395D01*
X132169808Y-55180587D01*
X132074044Y-54916186D01*
X131784429Y-54775296D01*
X131472892Y-54693616D01*
X131151405Y-54674282D01*
X130832325Y-54718039D01*
X130527912Y-54823205D01*
X130353956Y-54916186D01*
X130258192Y-55180587D01*
X125669808Y-55180587D01*
X125574044Y-54916186D01*
X125284429Y-54775296D01*
X124972892Y-54693616D01*
X124651405Y-54674282D01*
X124332325Y-54718039D01*
X124027912Y-54823205D01*
X123853956Y-54916186D01*
X123758192Y-55180587D01*
X122501000Y-55180587D01*
X122501000Y-53381018D01*
X122505040Y-53340000D01*
X122488918Y-53176311D01*
X122441172Y-53018913D01*
X122363636Y-52873854D01*
X122285439Y-52778570D01*
X122285437Y-52778568D01*
X122259291Y-52746709D01*
X122227433Y-52720564D01*
X121161836Y-51654967D01*
X123079000Y-51654967D01*
X123079000Y-51977033D01*
X123141832Y-52292912D01*
X123265082Y-52590463D01*
X123444013Y-52858252D01*
X123671748Y-53085987D01*
X123939537Y-53264918D01*
X124237088Y-53388168D01*
X124552967Y-53451000D01*
X124875033Y-53451000D01*
X125190912Y-53388168D01*
X125488463Y-53264918D01*
X125756252Y-53085987D01*
X125983987Y-52858252D01*
X126122468Y-52651000D01*
X129805532Y-52651000D01*
X129944013Y-52858252D01*
X130171748Y-53085987D01*
X130439537Y-53264918D01*
X130737088Y-53388168D01*
X131052967Y-53451000D01*
X131375033Y-53451000D01*
X131690912Y-53388168D01*
X131988463Y-53264918D01*
X132256252Y-53085987D01*
X132483987Y-52858252D01*
X132662918Y-52590463D01*
X132786168Y-52292912D01*
X132849000Y-51977033D01*
X132849000Y-51654967D01*
X132786168Y-51339088D01*
X132662918Y-51041537D01*
X132483987Y-50773748D01*
X132256252Y-50546013D01*
X131988463Y-50367082D01*
X131690912Y-50243832D01*
X131375033Y-50181000D01*
X131052967Y-50181000D01*
X130737088Y-50243832D01*
X130439537Y-50367082D01*
X130171748Y-50546013D01*
X129944013Y-50773748D01*
X129805532Y-50981000D01*
X126122468Y-50981000D01*
X125983987Y-50773748D01*
X125756252Y-50546013D01*
X125488463Y-50367082D01*
X125190912Y-50243832D01*
X124875033Y-50181000D01*
X124552967Y-50181000D01*
X124237088Y-50243832D01*
X123939537Y-50367082D01*
X123671748Y-50546013D01*
X123444013Y-50773748D01*
X123265082Y-51041537D01*
X123141832Y-51339088D01*
X123079000Y-51654967D01*
X121161836Y-51654967D01*
X117205446Y-47698579D01*
X117179291Y-47666709D01*
X117052146Y-47562364D01*
X116907087Y-47484828D01*
X116749689Y-47437082D01*
X116627019Y-47425000D01*
X116627018Y-47425000D01*
X116586000Y-47420960D01*
X116544982Y-47425000D01*
X101183869Y-47425000D01*
X99337534Y-45578665D01*
X103213000Y-45578665D01*
X103213000Y-45861335D01*
X103268147Y-46138574D01*
X103376320Y-46399727D01*
X103533363Y-46634759D01*
X103733241Y-46834637D01*
X103968273Y-46991680D01*
X104229426Y-47099853D01*
X104506665Y-47155000D01*
X104789335Y-47155000D01*
X105066574Y-47099853D01*
X105327727Y-46991680D01*
X105562759Y-46834637D01*
X105762637Y-46634759D01*
X105919680Y-46399727D01*
X106027853Y-46138574D01*
X106083000Y-45861335D01*
X106083000Y-45578665D01*
X108293000Y-45578665D01*
X108293000Y-45861335D01*
X108348147Y-46138574D01*
X108456320Y-46399727D01*
X108613363Y-46634759D01*
X108813241Y-46834637D01*
X109048273Y-46991680D01*
X109309426Y-47099853D01*
X109586665Y-47155000D01*
X109869335Y-47155000D01*
X110146574Y-47099853D01*
X110407727Y-46991680D01*
X110642759Y-46834637D01*
X110842637Y-46634759D01*
X110999680Y-46399727D01*
X111107853Y-46138574D01*
X111163000Y-45861335D01*
X111163000Y-45578665D01*
X113373000Y-45578665D01*
X113373000Y-45861335D01*
X113428147Y-46138574D01*
X113536320Y-46399727D01*
X113693363Y-46634759D01*
X113893241Y-46834637D01*
X114128273Y-46991680D01*
X114389426Y-47099853D01*
X114666665Y-47155000D01*
X114949335Y-47155000D01*
X115226574Y-47099853D01*
X115487727Y-46991680D01*
X115722759Y-46834637D01*
X115922637Y-46634759D01*
X116079680Y-46399727D01*
X116187853Y-46138574D01*
X116243000Y-45861335D01*
X116243000Y-45578665D01*
X116187853Y-45301426D01*
X116079680Y-45040273D01*
X115922637Y-44805241D01*
X115722759Y-44605363D01*
X115487727Y-44448320D01*
X115226574Y-44340147D01*
X114949335Y-44285000D01*
X114666665Y-44285000D01*
X114389426Y-44340147D01*
X114128273Y-44448320D01*
X113893241Y-44605363D01*
X113693363Y-44805241D01*
X113536320Y-45040273D01*
X113428147Y-45301426D01*
X113373000Y-45578665D01*
X111163000Y-45578665D01*
X111107853Y-45301426D01*
X110999680Y-45040273D01*
X110842637Y-44805241D01*
X110642759Y-44605363D01*
X110407727Y-44448320D01*
X110146574Y-44340147D01*
X109869335Y-44285000D01*
X109586665Y-44285000D01*
X109309426Y-44340147D01*
X109048273Y-44448320D01*
X108813241Y-44605363D01*
X108613363Y-44805241D01*
X108456320Y-45040273D01*
X108348147Y-45301426D01*
X108293000Y-45578665D01*
X106083000Y-45578665D01*
X106027853Y-45301426D01*
X105919680Y-45040273D01*
X105762637Y-44805241D01*
X105562759Y-44605363D01*
X105327727Y-44448320D01*
X105066574Y-44340147D01*
X104789335Y-44285000D01*
X104506665Y-44285000D01*
X104229426Y-44340147D01*
X103968273Y-44448320D01*
X103733241Y-44605363D01*
X103533363Y-44805241D01*
X103376320Y-45040273D01*
X103268147Y-45301426D01*
X103213000Y-45578665D01*
X99337534Y-45578665D01*
X96593000Y-42834133D01*
X96593000Y-40756000D01*
X103871928Y-40756000D01*
X103871928Y-42556000D01*
X103884188Y-42680482D01*
X103920498Y-42800180D01*
X103979463Y-42910494D01*
X104058815Y-43007185D01*
X104155506Y-43086537D01*
X104265820Y-43145502D01*
X104385518Y-43181812D01*
X104510000Y-43194072D01*
X106310000Y-43194072D01*
X106434482Y-43181812D01*
X106554180Y-43145502D01*
X106664494Y-43086537D01*
X106761185Y-43007185D01*
X106840537Y-42910494D01*
X106899502Y-42800180D01*
X106935812Y-42680482D01*
X106948072Y-42556000D01*
X106948072Y-40756000D01*
X108189928Y-40756000D01*
X108189928Y-42556000D01*
X108202188Y-42680482D01*
X108238498Y-42800180D01*
X108297463Y-42910494D01*
X108376815Y-43007185D01*
X108473506Y-43086537D01*
X108583820Y-43145502D01*
X108703518Y-43181812D01*
X108828000Y-43194072D01*
X110628000Y-43194072D01*
X110752482Y-43181812D01*
X110872180Y-43145502D01*
X110982494Y-43086537D01*
X111079185Y-43007185D01*
X111158537Y-42910494D01*
X111217502Y-42800180D01*
X111253812Y-42680482D01*
X111266072Y-42556000D01*
X111266072Y-40756000D01*
X112507928Y-40756000D01*
X112507928Y-42556000D01*
X112520188Y-42680482D01*
X112556498Y-42800180D01*
X112615463Y-42910494D01*
X112694815Y-43007185D01*
X112791506Y-43086537D01*
X112901820Y-43145502D01*
X113021518Y-43181812D01*
X113146000Y-43194072D01*
X114946000Y-43194072D01*
X115070482Y-43181812D01*
X115190180Y-43145502D01*
X115300494Y-43086537D01*
X115397185Y-43007185D01*
X115476537Y-42910494D01*
X115535502Y-42800180D01*
X115571812Y-42680482D01*
X115584072Y-42556000D01*
X115584072Y-40756000D01*
X115571812Y-40631518D01*
X115535502Y-40511820D01*
X115476537Y-40401506D01*
X115397185Y-40304815D01*
X115370615Y-40283009D01*
X128455414Y-40283009D01*
X128455414Y-40996991D01*
X128594705Y-41697253D01*
X128867933Y-42356885D01*
X129264600Y-42950539D01*
X129769461Y-43455400D01*
X130363115Y-43852067D01*
X131022747Y-44125295D01*
X131723009Y-44264586D01*
X132436991Y-44264586D01*
X133137253Y-44125295D01*
X133796885Y-43852067D01*
X134390539Y-43455400D01*
X134895400Y-42950539D01*
X135292067Y-42356885D01*
X135565295Y-41697253D01*
X135704586Y-40996991D01*
X135704586Y-40283009D01*
X135565295Y-39582747D01*
X135292067Y-38923115D01*
X134895400Y-38329461D01*
X134390539Y-37824600D01*
X133796885Y-37427933D01*
X133137253Y-37154705D01*
X132436991Y-37015414D01*
X131723009Y-37015414D01*
X131022747Y-37154705D01*
X130363115Y-37427933D01*
X129769461Y-37824600D01*
X129264600Y-38329461D01*
X128867933Y-38923115D01*
X128594705Y-39582747D01*
X128455414Y-40283009D01*
X115370615Y-40283009D01*
X115300494Y-40225463D01*
X115190180Y-40166498D01*
X115171873Y-40160944D01*
X115238312Y-40094505D01*
X115406299Y-39843095D01*
X115522011Y-39563743D01*
X115581000Y-39267184D01*
X115581000Y-38964816D01*
X115522011Y-38668257D01*
X115406299Y-38388905D01*
X115238312Y-38137495D01*
X115024505Y-37923688D01*
X114773095Y-37755701D01*
X114493743Y-37639989D01*
X114197184Y-37581000D01*
X113894816Y-37581000D01*
X113598257Y-37639989D01*
X113318905Y-37755701D01*
X113067495Y-37923688D01*
X112853688Y-38137495D01*
X112685701Y-38388905D01*
X112569989Y-38668257D01*
X112511000Y-38964816D01*
X112511000Y-39267184D01*
X112569989Y-39563743D01*
X112685701Y-39843095D01*
X112853688Y-40094505D01*
X112920127Y-40160944D01*
X112901820Y-40166498D01*
X112791506Y-40225463D01*
X112694815Y-40304815D01*
X112615463Y-40401506D01*
X112556498Y-40511820D01*
X112520188Y-40631518D01*
X112507928Y-40756000D01*
X111266072Y-40756000D01*
X111253812Y-40631518D01*
X111217502Y-40511820D01*
X111158537Y-40401506D01*
X111079185Y-40304815D01*
X110982494Y-40225463D01*
X110872180Y-40166498D01*
X110853873Y-40160944D01*
X110920312Y-40094505D01*
X111088299Y-39843095D01*
X111204011Y-39563743D01*
X111263000Y-39267184D01*
X111263000Y-38964816D01*
X111204011Y-38668257D01*
X111088299Y-38388905D01*
X110920312Y-38137495D01*
X110706505Y-37923688D01*
X110455095Y-37755701D01*
X110175743Y-37639989D01*
X109879184Y-37581000D01*
X109576816Y-37581000D01*
X109280257Y-37639989D01*
X109000905Y-37755701D01*
X108749495Y-37923688D01*
X108535688Y-38137495D01*
X108367701Y-38388905D01*
X108251989Y-38668257D01*
X108193000Y-38964816D01*
X108193000Y-39267184D01*
X108251989Y-39563743D01*
X108367701Y-39843095D01*
X108535688Y-40094505D01*
X108602127Y-40160944D01*
X108583820Y-40166498D01*
X108473506Y-40225463D01*
X108376815Y-40304815D01*
X108297463Y-40401506D01*
X108238498Y-40511820D01*
X108202188Y-40631518D01*
X108189928Y-40756000D01*
X106948072Y-40756000D01*
X106935812Y-40631518D01*
X106899502Y-40511820D01*
X106840537Y-40401506D01*
X106761185Y-40304815D01*
X106664494Y-40225463D01*
X106554180Y-40166498D01*
X106535873Y-40160944D01*
X106602312Y-40094505D01*
X106770299Y-39843095D01*
X106886011Y-39563743D01*
X106945000Y-39267184D01*
X106945000Y-38964816D01*
X106886011Y-38668257D01*
X106770299Y-38388905D01*
X106602312Y-38137495D01*
X106388505Y-37923688D01*
X106137095Y-37755701D01*
X105857743Y-37639989D01*
X105561184Y-37581000D01*
X105258816Y-37581000D01*
X104962257Y-37639989D01*
X104682905Y-37755701D01*
X104431495Y-37923688D01*
X104217688Y-38137495D01*
X104049701Y-38388905D01*
X103933989Y-38668257D01*
X103875000Y-38964816D01*
X103875000Y-39267184D01*
X103933989Y-39563743D01*
X104049701Y-39843095D01*
X104217688Y-40094505D01*
X104284127Y-40160944D01*
X104265820Y-40166498D01*
X104155506Y-40225463D01*
X104058815Y-40304815D01*
X103979463Y-40401506D01*
X103920498Y-40511820D01*
X103884188Y-40631518D01*
X103871928Y-40756000D01*
X96593000Y-40756000D01*
X96593000Y-39157018D01*
X96597040Y-39116000D01*
X96589891Y-39043410D01*
X96580918Y-38952311D01*
X96533172Y-38794913D01*
X96455636Y-38649854D01*
X96351291Y-38522709D01*
X96319428Y-38496560D01*
X95361446Y-37538579D01*
X95335291Y-37506709D01*
X95208146Y-37402364D01*
X95063087Y-37324828D01*
X94905689Y-37277082D01*
X94783019Y-37265000D01*
X94783018Y-37265000D01*
X94742000Y-37260960D01*
X94700982Y-37265000D01*
X89957018Y-37265000D01*
X89916000Y-37260960D01*
X89874981Y-37265000D01*
X89752311Y-37277082D01*
X89594913Y-37324828D01*
X89449854Y-37402364D01*
X89322709Y-37506709D01*
X89296558Y-37538574D01*
X88338574Y-38496559D01*
X88306710Y-38522709D01*
X88261594Y-38577683D01*
X88202364Y-38649855D01*
X88124828Y-38794914D01*
X88077082Y-38952312D01*
X88060960Y-39116000D01*
X88063129Y-39138023D01*
X88009465Y-39173880D01*
X87814880Y-39368465D01*
X87661995Y-39597273D01*
X87630000Y-39674515D01*
X87598005Y-39597273D01*
X87445120Y-39368465D01*
X87250535Y-39173880D01*
X87021727Y-39020995D01*
X86767490Y-38915686D01*
X86497592Y-38862000D01*
X86222408Y-38862000D01*
X85952510Y-38915686D01*
X85698273Y-39020995D01*
X85469465Y-39173880D01*
X85274880Y-39368465D01*
X85121995Y-39597273D01*
X85090000Y-39674515D01*
X85058005Y-39597273D01*
X84905120Y-39368465D01*
X84710535Y-39173880D01*
X84481727Y-39020995D01*
X84227490Y-38915686D01*
X83957592Y-38862000D01*
X83682408Y-38862000D01*
X83412510Y-38915686D01*
X83158273Y-39020995D01*
X82929465Y-39173880D01*
X82734880Y-39368465D01*
X82581995Y-39597273D01*
X82550000Y-39674515D01*
X82518005Y-39597273D01*
X82365120Y-39368465D01*
X82170535Y-39173880D01*
X81941727Y-39020995D01*
X81687490Y-38915686D01*
X81417592Y-38862000D01*
X81142408Y-38862000D01*
X80872510Y-38915686D01*
X80618273Y-39020995D01*
X80389465Y-39173880D01*
X80194880Y-39368465D01*
X80041995Y-39597273D01*
X80012308Y-39668943D01*
X80007636Y-39655977D01*
X79945656Y-39540020D01*
X79705565Y-39473040D01*
X78919605Y-40259000D01*
X79705565Y-41044960D01*
X79945656Y-40977980D01*
X80009485Y-40842240D01*
X80041995Y-40920727D01*
X80194880Y-41149535D01*
X80389465Y-41344120D01*
X80618273Y-41497005D01*
X80872510Y-41602314D01*
X81142408Y-41656000D01*
X81417592Y-41656000D01*
X81687490Y-41602314D01*
X81941727Y-41497005D01*
X82170535Y-41344120D01*
X82365120Y-41149535D01*
X82518005Y-40920727D01*
X82550000Y-40843485D01*
X82581995Y-40920727D01*
X82734880Y-41149535D01*
X82929465Y-41344120D01*
X83158273Y-41497005D01*
X83412510Y-41602314D01*
X83682408Y-41656000D01*
X83957592Y-41656000D01*
X84227490Y-41602314D01*
X84481727Y-41497005D01*
X84710535Y-41344120D01*
X84905120Y-41149535D01*
X85058005Y-40920727D01*
X85090000Y-40843485D01*
X85121995Y-40920727D01*
X85274880Y-41149535D01*
X85469465Y-41344120D01*
X85698273Y-41497005D01*
X85952510Y-41602314D01*
X86222408Y-41656000D01*
X86497592Y-41656000D01*
X86767490Y-41602314D01*
X87021727Y-41497005D01*
X87250535Y-41344120D01*
X87445120Y-41149535D01*
X87598005Y-40920727D01*
X87630000Y-40843485D01*
X87661995Y-40920727D01*
X87814880Y-41149535D01*
X88009465Y-41344120D01*
X88238273Y-41497005D01*
X88492510Y-41602314D01*
X88762408Y-41656000D01*
X89037592Y-41656000D01*
X89307490Y-41602314D01*
X89561727Y-41497005D01*
X89790535Y-41344120D01*
X89985120Y-41149535D01*
X90138005Y-40920727D01*
X90170000Y-40843485D01*
X90201995Y-40920727D01*
X90354880Y-41149535D01*
X90549465Y-41344120D01*
X90778273Y-41497005D01*
X91032510Y-41602314D01*
X91302408Y-41656000D01*
X91577592Y-41656000D01*
X91643102Y-41642969D01*
X99837563Y-49837432D01*
X99863709Y-49869291D01*
X99990854Y-49973636D01*
X100135913Y-50051172D01*
X100293311Y-50098918D01*
X100415981Y-50111000D01*
X100415982Y-50111000D01*
X100457000Y-50115040D01*
X100498018Y-50111000D01*
X115986133Y-50111000D01*
X120069001Y-54193869D01*
X120069000Y-58886981D01*
X120064960Y-58928000D01*
X120069000Y-58969018D01*
X120081082Y-59091688D01*
X120128828Y-59249086D01*
X120206364Y-59394145D01*
X120310709Y-59521291D01*
X120342579Y-59547446D01*
X127435001Y-66639869D01*
X127435000Y-77759132D01*
X126238000Y-78956132D01*
X126238000Y-78856408D01*
X126184314Y-78586510D01*
X126079005Y-78332273D01*
X125926120Y-78103465D01*
X125731535Y-77908880D01*
X125502727Y-77755995D01*
X125425485Y-77724000D01*
X125502727Y-77692005D01*
X125731535Y-77539120D01*
X125926120Y-77344535D01*
X126079005Y-77115727D01*
X126184314Y-76861490D01*
X126238000Y-76591592D01*
X126238000Y-76316408D01*
X126184314Y-76046510D01*
X126079005Y-75792273D01*
X125926120Y-75563465D01*
X125731535Y-75368880D01*
X125502727Y-75215995D01*
X125425485Y-75184000D01*
X125502727Y-75152005D01*
X125731535Y-74999120D01*
X125926120Y-74804535D01*
X126079005Y-74575727D01*
X126184314Y-74321490D01*
X126238000Y-74051592D01*
X126238000Y-73776408D01*
X126184314Y-73506510D01*
X126079005Y-73252273D01*
X125926120Y-73023465D01*
X125731535Y-72828880D01*
X125502727Y-72675995D01*
X125425485Y-72644000D01*
X125502727Y-72612005D01*
X125731535Y-72459120D01*
X125926120Y-72264535D01*
X126079005Y-72035727D01*
X126184314Y-71781490D01*
X126238000Y-71511592D01*
X126238000Y-71236408D01*
X126184314Y-70966510D01*
X126079005Y-70712273D01*
X125926120Y-70483465D01*
X125731535Y-70288880D01*
X125549877Y-70167500D01*
X125731535Y-70046120D01*
X125926120Y-69851535D01*
X126079005Y-69622727D01*
X126184314Y-69368490D01*
X126238000Y-69098592D01*
X126238000Y-68823408D01*
X126184314Y-68553510D01*
X126079005Y-68299273D01*
X125926120Y-68070465D01*
X125731535Y-67875880D01*
X125502727Y-67722995D01*
X125248490Y-67617686D01*
X124978592Y-67564000D01*
X124703408Y-67564000D01*
X124433510Y-67617686D01*
X124179273Y-67722995D01*
X123950465Y-67875880D01*
X123755880Y-68070465D01*
X123602995Y-68299273D01*
X123497686Y-68553510D01*
X123444000Y-68823408D01*
X123444000Y-69098592D01*
X123497686Y-69368490D01*
X123602995Y-69622727D01*
X123755880Y-69851535D01*
X123950465Y-70046120D01*
X124132123Y-70167500D01*
X123950465Y-70288880D01*
X123755880Y-70483465D01*
X123602995Y-70712273D01*
X123497686Y-70966510D01*
X123444000Y-71236408D01*
X123444000Y-71511592D01*
X123497686Y-71781490D01*
X123602995Y-72035727D01*
X123755880Y-72264535D01*
X123950465Y-72459120D01*
X124179273Y-72612005D01*
X124256515Y-72644000D01*
X124179273Y-72675995D01*
X123950465Y-72828880D01*
X123755880Y-73023465D01*
X123602995Y-73252273D01*
X123497686Y-73506510D01*
X123444000Y-73776408D01*
X123444000Y-74051592D01*
X123497686Y-74321490D01*
X123602995Y-74575727D01*
X123755880Y-74804535D01*
X123950465Y-74999120D01*
X124179273Y-75152005D01*
X124256515Y-75184000D01*
X124179273Y-75215995D01*
X123950465Y-75368880D01*
X123755880Y-75563465D01*
X123747249Y-75576381D01*
X113395446Y-65224579D01*
X113369291Y-65192709D01*
X113242146Y-65088364D01*
X113097087Y-65010828D01*
X112939689Y-64963082D01*
X112817019Y-64951000D01*
X112817018Y-64951000D01*
X112776000Y-64946960D01*
X112734982Y-64951000D01*
X111342657Y-64951000D01*
X111430088Y-64920795D01*
X111604044Y-64827814D01*
X111699808Y-64563413D01*
X116288192Y-64563413D01*
X116383956Y-64827814D01*
X116673571Y-64968704D01*
X116985108Y-65050384D01*
X117306595Y-65069718D01*
X117625675Y-65025961D01*
X117930088Y-64920795D01*
X118104044Y-64827814D01*
X118199808Y-64563413D01*
X117244000Y-63607605D01*
X116288192Y-64563413D01*
X111699808Y-64563413D01*
X110744000Y-63607605D01*
X109788192Y-64563413D01*
X109883956Y-64827814D01*
X110137178Y-64951000D01*
X108635867Y-64951000D01*
X107175462Y-63490595D01*
X109102282Y-63490595D01*
X109146039Y-63809675D01*
X109251205Y-64114088D01*
X109344186Y-64288044D01*
X109608587Y-64383808D01*
X110564395Y-63428000D01*
X110923605Y-63428000D01*
X111879413Y-64383808D01*
X112143814Y-64288044D01*
X112284704Y-63998429D01*
X112366384Y-63686892D01*
X112378189Y-63490595D01*
X115602282Y-63490595D01*
X115646039Y-63809675D01*
X115751205Y-64114088D01*
X115844186Y-64288044D01*
X116108587Y-64383808D01*
X117064395Y-63428000D01*
X117423605Y-63428000D01*
X118379413Y-64383808D01*
X118643814Y-64288044D01*
X118784704Y-63998429D01*
X118866384Y-63686892D01*
X118885718Y-63365405D01*
X118841961Y-63046325D01*
X118736795Y-62741912D01*
X118643814Y-62567956D01*
X118379413Y-62472192D01*
X117423605Y-63428000D01*
X117064395Y-63428000D01*
X116108587Y-62472192D01*
X115844186Y-62567956D01*
X115703296Y-62857571D01*
X115621616Y-63169108D01*
X115602282Y-63490595D01*
X112378189Y-63490595D01*
X112385718Y-63365405D01*
X112341961Y-63046325D01*
X112236795Y-62741912D01*
X112143814Y-62567956D01*
X111879413Y-62472192D01*
X110923605Y-63428000D01*
X110564395Y-63428000D01*
X109608587Y-62472192D01*
X109344186Y-62567956D01*
X109203296Y-62857571D01*
X109121616Y-63169108D01*
X109102282Y-63490595D01*
X107175462Y-63490595D01*
X107156289Y-63471422D01*
X107229937Y-63397774D01*
X107343205Y-63228256D01*
X107421226Y-63039898D01*
X107461000Y-62839939D01*
X107461000Y-62636061D01*
X107421226Y-62436102D01*
X107361780Y-62292587D01*
X109788192Y-62292587D01*
X110744000Y-63248395D01*
X111699808Y-62292587D01*
X116288192Y-62292587D01*
X117244000Y-63248395D01*
X118199808Y-62292587D01*
X118104044Y-62028186D01*
X117814429Y-61887296D01*
X117502892Y-61805616D01*
X117181405Y-61786282D01*
X116862325Y-61830039D01*
X116557912Y-61935205D01*
X116383956Y-62028186D01*
X116288192Y-62292587D01*
X111699808Y-62292587D01*
X111604044Y-62028186D01*
X111314429Y-61887296D01*
X111002892Y-61805616D01*
X110681405Y-61786282D01*
X110362325Y-61830039D01*
X110057912Y-61935205D01*
X109883956Y-62028186D01*
X109788192Y-62292587D01*
X107361780Y-62292587D01*
X107343205Y-62247744D01*
X107229937Y-62078226D01*
X107085774Y-61934063D01*
X106916256Y-61820795D01*
X106727898Y-61742774D01*
X106582776Y-61713908D01*
X103635835Y-58766967D01*
X109109000Y-58766967D01*
X109109000Y-59089033D01*
X109171832Y-59404912D01*
X109295082Y-59702463D01*
X109474013Y-59970252D01*
X109701748Y-60197987D01*
X109969537Y-60376918D01*
X110267088Y-60500168D01*
X110582967Y-60563000D01*
X110905033Y-60563000D01*
X111220912Y-60500168D01*
X111518463Y-60376918D01*
X111786252Y-60197987D01*
X112013987Y-59970252D01*
X112152468Y-59763000D01*
X115835532Y-59763000D01*
X115974013Y-59970252D01*
X116201748Y-60197987D01*
X116469537Y-60376918D01*
X116767088Y-60500168D01*
X117082967Y-60563000D01*
X117405033Y-60563000D01*
X117720912Y-60500168D01*
X118018463Y-60376918D01*
X118286252Y-60197987D01*
X118513987Y-59970252D01*
X118692918Y-59702463D01*
X118816168Y-59404912D01*
X118879000Y-59089033D01*
X118879000Y-58766967D01*
X118816168Y-58451088D01*
X118692918Y-58153537D01*
X118513987Y-57885748D01*
X118286252Y-57658013D01*
X118018463Y-57479082D01*
X117720912Y-57355832D01*
X117405033Y-57293000D01*
X117082967Y-57293000D01*
X116767088Y-57355832D01*
X116469537Y-57479082D01*
X116201748Y-57658013D01*
X115974013Y-57885748D01*
X115835532Y-58093000D01*
X112152468Y-58093000D01*
X112013987Y-57885748D01*
X111786252Y-57658013D01*
X111518463Y-57479082D01*
X111220912Y-57355832D01*
X110905033Y-57293000D01*
X110582967Y-57293000D01*
X110267088Y-57355832D01*
X109969537Y-57479082D01*
X109701748Y-57658013D01*
X109474013Y-57885748D01*
X109295082Y-58153537D01*
X109171832Y-58451088D01*
X109109000Y-58766967D01*
X103635835Y-58766967D01*
X98067533Y-53198665D01*
X103213000Y-53198665D01*
X103213000Y-53481335D01*
X103268147Y-53758574D01*
X103376320Y-54019727D01*
X103533363Y-54254759D01*
X103733241Y-54454637D01*
X103968273Y-54611680D01*
X104229426Y-54719853D01*
X104506665Y-54775000D01*
X104789335Y-54775000D01*
X105066574Y-54719853D01*
X105327727Y-54611680D01*
X105562759Y-54454637D01*
X105762637Y-54254759D01*
X105919680Y-54019727D01*
X106027853Y-53758574D01*
X106083000Y-53481335D01*
X106083000Y-53198665D01*
X108293000Y-53198665D01*
X108293000Y-53481335D01*
X108348147Y-53758574D01*
X108456320Y-54019727D01*
X108613363Y-54254759D01*
X108813241Y-54454637D01*
X109048273Y-54611680D01*
X109309426Y-54719853D01*
X109586665Y-54775000D01*
X109869335Y-54775000D01*
X110146574Y-54719853D01*
X110407727Y-54611680D01*
X110642759Y-54454637D01*
X110842637Y-54254759D01*
X110999680Y-54019727D01*
X111107853Y-53758574D01*
X111163000Y-53481335D01*
X111163000Y-53198665D01*
X113373000Y-53198665D01*
X113373000Y-53481335D01*
X113428147Y-53758574D01*
X113536320Y-54019727D01*
X113693363Y-54254759D01*
X113893241Y-54454637D01*
X114128273Y-54611680D01*
X114389426Y-54719853D01*
X114666665Y-54775000D01*
X114949335Y-54775000D01*
X115226574Y-54719853D01*
X115487727Y-54611680D01*
X115722759Y-54454637D01*
X115922637Y-54254759D01*
X116079680Y-54019727D01*
X116187853Y-53758574D01*
X116243000Y-53481335D01*
X116243000Y-53198665D01*
X116187853Y-52921426D01*
X116079680Y-52660273D01*
X115922637Y-52425241D01*
X115722759Y-52225363D01*
X115487727Y-52068320D01*
X115226574Y-51960147D01*
X114949335Y-51905000D01*
X114666665Y-51905000D01*
X114389426Y-51960147D01*
X114128273Y-52068320D01*
X113893241Y-52225363D01*
X113693363Y-52425241D01*
X113536320Y-52660273D01*
X113428147Y-52921426D01*
X113373000Y-53198665D01*
X111163000Y-53198665D01*
X111107853Y-52921426D01*
X110999680Y-52660273D01*
X110842637Y-52425241D01*
X110642759Y-52225363D01*
X110407727Y-52068320D01*
X110146574Y-51960147D01*
X109869335Y-51905000D01*
X109586665Y-51905000D01*
X109309426Y-51960147D01*
X109048273Y-52068320D01*
X108813241Y-52225363D01*
X108613363Y-52425241D01*
X108456320Y-52660273D01*
X108348147Y-52921426D01*
X108293000Y-53198665D01*
X106083000Y-53198665D01*
X106027853Y-52921426D01*
X105919680Y-52660273D01*
X105762637Y-52425241D01*
X105562759Y-52225363D01*
X105327727Y-52068320D01*
X105066574Y-51960147D01*
X104789335Y-51905000D01*
X104506665Y-51905000D01*
X104229426Y-51960147D01*
X103968273Y-52068320D01*
X103733241Y-52225363D01*
X103533363Y-52425241D01*
X103376320Y-52660273D01*
X103268147Y-52921426D01*
X103213000Y-53198665D01*
X98067533Y-53198665D01*
X94815000Y-49946133D01*
X94815000Y-46079285D01*
X94897205Y-45956256D01*
X94975226Y-45767898D01*
X95015000Y-45567939D01*
X95015000Y-45364061D01*
X94975226Y-45164102D01*
X94897205Y-44975744D01*
X94783937Y-44806226D01*
X94639774Y-44662063D01*
X94470256Y-44548795D01*
X94281898Y-44470774D01*
X94081939Y-44431000D01*
X93878061Y-44431000D01*
X93678102Y-44470774D01*
X93489744Y-44548795D01*
X93320226Y-44662063D01*
X93176063Y-44806226D01*
X93062795Y-44975744D01*
X92984774Y-45164102D01*
X92945000Y-45364061D01*
X92945000Y-45567939D01*
X92984774Y-45767898D01*
X93062795Y-45956256D01*
X93145000Y-46079285D01*
X93145001Y-49460135D01*
X87573444Y-43888579D01*
X87547289Y-43856709D01*
X87420144Y-43752364D01*
X87275085Y-43674828D01*
X87117687Y-43627082D01*
X86995017Y-43615000D01*
X86995016Y-43615000D01*
X86953998Y-43610960D01*
X86912980Y-43615000D01*
X75021868Y-43615000D01*
X72631433Y-41224565D01*
X77954040Y-41224565D01*
X78021020Y-41464656D01*
X78270048Y-41581756D01*
X78537135Y-41648023D01*
X78812017Y-41660910D01*
X79084133Y-41619922D01*
X79343023Y-41526636D01*
X79458980Y-41464656D01*
X79525960Y-41224565D01*
X78740000Y-40438605D01*
X77954040Y-41224565D01*
X72631433Y-41224565D01*
X71739446Y-40332579D01*
X71738165Y-40331017D01*
X77338090Y-40331017D01*
X77379078Y-40603133D01*
X77472364Y-40862023D01*
X77534344Y-40977980D01*
X77774435Y-41044960D01*
X78560395Y-40259000D01*
X77774435Y-39473040D01*
X77534344Y-39540020D01*
X77417244Y-39789048D01*
X77350977Y-40056135D01*
X77338090Y-40331017D01*
X71738165Y-40331017D01*
X71713291Y-40300709D01*
X71586146Y-40196364D01*
X71441087Y-40118828D01*
X71283689Y-40071082D01*
X71161019Y-40059000D01*
X71161018Y-40059000D01*
X71120000Y-40054960D01*
X71078982Y-40059000D01*
X64323018Y-40059000D01*
X64282000Y-40054960D01*
X64118311Y-40071082D01*
X63960913Y-40118828D01*
X63815854Y-40196364D01*
X63730990Y-40266010D01*
X63688709Y-40300709D01*
X63662563Y-40332568D01*
X61639504Y-42355628D01*
X61395033Y-42307000D01*
X61072967Y-42307000D01*
X60757088Y-42369832D01*
X60459537Y-42493082D01*
X60191748Y-42672013D01*
X59964013Y-42899748D01*
X59785082Y-43167537D01*
X59661832Y-43465088D01*
X59599000Y-43780967D01*
X42617121Y-43780967D01*
X43005018Y-43521783D01*
X43521783Y-43005018D01*
X43927802Y-42397367D01*
X44207474Y-41722181D01*
X44350049Y-41005408D01*
X44350049Y-40274592D01*
X44207474Y-39557819D01*
X44097963Y-39293435D01*
X77954040Y-39293435D01*
X78740000Y-40079395D01*
X79525960Y-39293435D01*
X79458980Y-39053344D01*
X79209952Y-38936244D01*
X78942865Y-38869977D01*
X78667983Y-38857090D01*
X78395867Y-38898078D01*
X78136977Y-38991364D01*
X78021020Y-39053344D01*
X77954040Y-39293435D01*
X44097963Y-39293435D01*
X43927802Y-38882633D01*
X43521783Y-38274982D01*
X43005018Y-37758217D01*
X42397367Y-37352198D01*
X41722181Y-37072526D01*
X41005408Y-36929951D01*
X40274592Y-36929951D01*
X39557819Y-37072526D01*
X38882633Y-37352198D01*
X38274982Y-37758217D01*
X37758217Y-38274982D01*
X37352198Y-38882633D01*
X37072526Y-39557819D01*
X36929951Y-40274592D01*
X36255234Y-40274592D01*
X36292437Y-39857751D01*
X36499672Y-39100226D01*
X36837777Y-38391375D01*
X37296067Y-37753596D01*
X37860055Y-37207054D01*
X38511913Y-36769023D01*
X39231038Y-36453349D01*
X39999768Y-36268794D01*
X40664207Y-36220000D01*
X132050608Y-36220000D01*
X132862249Y-36292437D01*
%TA.AperFunction,Conductor*%
D22*
G36*
X132862249Y-36292437D02*
G01*
X133619774Y-36499672D01*
X134328625Y-36837777D01*
X134966404Y-37296067D01*
X135512946Y-37860055D01*
X135950977Y-38511913D01*
X136266651Y-39231038D01*
X136451206Y-39999768D01*
X136500000Y-40664207D01*
X136500001Y-96490597D01*
X136427563Y-97302249D01*
X136220328Y-98059774D01*
X135882221Y-98768627D01*
X135423928Y-99406410D01*
X134859945Y-99952946D01*
X134208085Y-100390978D01*
X133488963Y-100706651D01*
X132720232Y-100891206D01*
X132055792Y-100940000D01*
X100665029Y-100940000D01*
X100703023Y-100786865D01*
X100715910Y-100511983D01*
X100674922Y-100239867D01*
X100581636Y-99980977D01*
X100519656Y-99865020D01*
X100279565Y-99798040D01*
X99493605Y-100584000D01*
X99507748Y-100598143D01*
X99328143Y-100777748D01*
X99314000Y-100763605D01*
X99299858Y-100777748D01*
X99120253Y-100598143D01*
X99134395Y-100584000D01*
X98348435Y-99798040D01*
X98108344Y-99865020D01*
X98046921Y-99995644D01*
X98041636Y-99980977D01*
X97979656Y-99865020D01*
X97739565Y-99798040D01*
X96953605Y-100584000D01*
X96967748Y-100598143D01*
X96788143Y-100777748D01*
X96774000Y-100763605D01*
X96759858Y-100777748D01*
X96580253Y-100598143D01*
X96594395Y-100584000D01*
X95808435Y-99798040D01*
X95568344Y-99865020D01*
X95504515Y-100000760D01*
X95472005Y-99922273D01*
X95319120Y-99693465D01*
X95244090Y-99618435D01*
X95988040Y-99618435D01*
X96774000Y-100404395D01*
X97559960Y-99618435D01*
X98528040Y-99618435D01*
X99314000Y-100404395D01*
X100099960Y-99618435D01*
X100032980Y-99378344D01*
X99783952Y-99261244D01*
X99516865Y-99194977D01*
X99241983Y-99182090D01*
X98969867Y-99223078D01*
X98710977Y-99316364D01*
X98595020Y-99378344D01*
X98528040Y-99618435D01*
X97559960Y-99618435D01*
X97492980Y-99378344D01*
X97243952Y-99261244D01*
X96976865Y-99194977D01*
X96701983Y-99182090D01*
X96429867Y-99223078D01*
X96170977Y-99316364D01*
X96055020Y-99378344D01*
X95988040Y-99618435D01*
X95244090Y-99618435D01*
X95124535Y-99498880D01*
X95069000Y-99461773D01*
X95069000Y-98531227D01*
X95124535Y-98494120D01*
X95244090Y-98374565D01*
X95988040Y-98374565D01*
X96055020Y-98614656D01*
X96304048Y-98731756D01*
X96571135Y-98798023D01*
X96846017Y-98810910D01*
X97118133Y-98769922D01*
X97377023Y-98676636D01*
X97492980Y-98614656D01*
X97559960Y-98374565D01*
X98528040Y-98374565D01*
X98595020Y-98614656D01*
X98844048Y-98731756D01*
X99111135Y-98798023D01*
X99386017Y-98810910D01*
X99658133Y-98769922D01*
X99917023Y-98676636D01*
X100032980Y-98614656D01*
X100099960Y-98374565D01*
X99314000Y-97588605D01*
X98528040Y-98374565D01*
X97559960Y-98374565D01*
X96774000Y-97588605D01*
X95988040Y-98374565D01*
X95244090Y-98374565D01*
X95319120Y-98299535D01*
X95472005Y-98070727D01*
X95501692Y-97999057D01*
X95506364Y-98012023D01*
X95568344Y-98127980D01*
X95808435Y-98194960D01*
X96594395Y-97409000D01*
X96953605Y-97409000D01*
X97739565Y-98194960D01*
X97979656Y-98127980D01*
X98041079Y-97997356D01*
X98046364Y-98012023D01*
X98108344Y-98127980D01*
X98348435Y-98194960D01*
X99134395Y-97409000D01*
X99493605Y-97409000D01*
X100279565Y-98194960D01*
X100519656Y-98127980D01*
X100636756Y-97878952D01*
X100703023Y-97611865D01*
X100715910Y-97336983D01*
X100674922Y-97064867D01*
X100610711Y-96886665D01*
X102451000Y-96886665D01*
X102451000Y-97169335D01*
X102506147Y-97446574D01*
X102614320Y-97707727D01*
X102771363Y-97942759D01*
X102971241Y-98142637D01*
X103206273Y-98299680D01*
X103467426Y-98407853D01*
X103744665Y-98463000D01*
X104027335Y-98463000D01*
X104304574Y-98407853D01*
X104565727Y-98299680D01*
X104800759Y-98142637D01*
X105000637Y-97942759D01*
X105157680Y-97707727D01*
X105198574Y-97609000D01*
X108605773Y-97609000D01*
X108642880Y-97664535D01*
X108837465Y-97859120D01*
X109066273Y-98012005D01*
X109320510Y-98117314D01*
X109590408Y-98171000D01*
X109865592Y-98171000D01*
X110135490Y-98117314D01*
X110389727Y-98012005D01*
X110618535Y-97859120D01*
X110813120Y-97664535D01*
X110966005Y-97435727D01*
X111071314Y-97181490D01*
X111125000Y-96911592D01*
X111125000Y-96636408D01*
X111071314Y-96366510D01*
X110966005Y-96112273D01*
X110813120Y-95883465D01*
X110618535Y-95688880D01*
X110389727Y-95535995D01*
X110318057Y-95506308D01*
X110331023Y-95501636D01*
X110446980Y-95439656D01*
X110513960Y-95199565D01*
X109728000Y-94413605D01*
X108942040Y-95199565D01*
X109009020Y-95439656D01*
X109144760Y-95503485D01*
X109066273Y-95535995D01*
X108837465Y-95688880D01*
X108642880Y-95883465D01*
X108605773Y-95939000D01*
X104826396Y-95939000D01*
X104800759Y-95913363D01*
X104565727Y-95756320D01*
X104304574Y-95648147D01*
X104027335Y-95593000D01*
X103744665Y-95593000D01*
X103467426Y-95648147D01*
X103206273Y-95756320D01*
X102971241Y-95913363D01*
X102771363Y-96113241D01*
X102614320Y-96348273D01*
X102506147Y-96609426D01*
X102451000Y-96886665D01*
X100610711Y-96886665D01*
X100581636Y-96805977D01*
X100519656Y-96690020D01*
X100279565Y-96623040D01*
X99493605Y-97409000D01*
X99134395Y-97409000D01*
X98348435Y-96623040D01*
X98108344Y-96690020D01*
X98046921Y-96820644D01*
X98041636Y-96805977D01*
X97979656Y-96690020D01*
X97739565Y-96623040D01*
X96953605Y-97409000D01*
X96594395Y-97409000D01*
X96580253Y-97394858D01*
X96759858Y-97215253D01*
X96774000Y-97229395D01*
X97559960Y-96443435D01*
X98528040Y-96443435D01*
X99314000Y-97229395D01*
X100099960Y-96443435D01*
X100032980Y-96203344D01*
X99783952Y-96086244D01*
X99516865Y-96019977D01*
X99241983Y-96007090D01*
X98969867Y-96048078D01*
X98710977Y-96141364D01*
X98595020Y-96203344D01*
X98528040Y-96443435D01*
X97559960Y-96443435D01*
X97492980Y-96203344D01*
X97243952Y-96086244D01*
X96976865Y-96019977D01*
X96811637Y-96012231D01*
X98517851Y-94306017D01*
X108326090Y-94306017D01*
X108367078Y-94578133D01*
X108460364Y-94837023D01*
X108522344Y-94952980D01*
X108762435Y-95019960D01*
X109548395Y-94234000D01*
X109907605Y-94234000D01*
X110693565Y-95019960D01*
X110933656Y-94952980D01*
X111050756Y-94703952D01*
X111117023Y-94436865D01*
X111129910Y-94161983D01*
X111120033Y-94096408D01*
X123444000Y-94096408D01*
X123444000Y-94371592D01*
X123497686Y-94641490D01*
X123602995Y-94895727D01*
X123755880Y-95124535D01*
X123950465Y-95319120D01*
X124179273Y-95472005D01*
X124256515Y-95504000D01*
X124179273Y-95535995D01*
X123950465Y-95688880D01*
X123755880Y-95883465D01*
X123602995Y-96112273D01*
X123497686Y-96366510D01*
X123444000Y-96636408D01*
X123444000Y-96911592D01*
X123497686Y-97181490D01*
X123602995Y-97435727D01*
X123755880Y-97664535D01*
X123950465Y-97859120D01*
X124179273Y-98012005D01*
X124433510Y-98117314D01*
X124703408Y-98171000D01*
X124978592Y-98171000D01*
X125248490Y-98117314D01*
X125502727Y-98012005D01*
X125731535Y-97859120D01*
X125926120Y-97664535D01*
X126079005Y-97435727D01*
X126184314Y-97181490D01*
X126238000Y-96911592D01*
X126238000Y-96636408D01*
X126184314Y-96366510D01*
X126094828Y-96150471D01*
X128328111Y-96150471D01*
X128328111Y-96889529D01*
X128472294Y-97614386D01*
X128755119Y-98297186D01*
X129165717Y-98911690D01*
X129688310Y-99434283D01*
X130302814Y-99844881D01*
X130985614Y-100127706D01*
X131710471Y-100271889D01*
X132449529Y-100271889D01*
X133174386Y-100127706D01*
X133857186Y-99844881D01*
X134471690Y-99434283D01*
X134994283Y-98911690D01*
X135404881Y-98297186D01*
X135687706Y-97614386D01*
X135831889Y-96889529D01*
X135831889Y-96150471D01*
X135687706Y-95425614D01*
X135404881Y-94742814D01*
X134994283Y-94128310D01*
X134471690Y-93605717D01*
X133857186Y-93195119D01*
X133174386Y-92912294D01*
X132449529Y-92768111D01*
X131710471Y-92768111D01*
X130985614Y-92912294D01*
X130302814Y-93195119D01*
X129688310Y-93605717D01*
X129165717Y-94128310D01*
X128755119Y-94742814D01*
X128472294Y-95425614D01*
X128328111Y-96150471D01*
X126094828Y-96150471D01*
X126079005Y-96112273D01*
X125926120Y-95883465D01*
X125731535Y-95688880D01*
X125502727Y-95535995D01*
X125425485Y-95504000D01*
X125502727Y-95472005D01*
X125731535Y-95319120D01*
X125926120Y-95124535D01*
X126079005Y-94895727D01*
X126184314Y-94641490D01*
X126238000Y-94371592D01*
X126238000Y-94096408D01*
X126184314Y-93826510D01*
X126079005Y-93572273D01*
X125926120Y-93343465D01*
X125731535Y-93148880D01*
X125502727Y-92995995D01*
X125431057Y-92966308D01*
X125444023Y-92961636D01*
X125559980Y-92899656D01*
X125626960Y-92659565D01*
X124841000Y-91873605D01*
X124055040Y-92659565D01*
X124122020Y-92899656D01*
X124257760Y-92963485D01*
X124179273Y-92995995D01*
X123950465Y-93148880D01*
X123755880Y-93343465D01*
X123602995Y-93572273D01*
X123497686Y-93826510D01*
X123444000Y-94096408D01*
X111120033Y-94096408D01*
X111088922Y-93889867D01*
X110995636Y-93630977D01*
X110933656Y-93515020D01*
X110693565Y-93448040D01*
X109907605Y-94234000D01*
X109548395Y-94234000D01*
X108762435Y-93448040D01*
X108522344Y-93515020D01*
X108405244Y-93764048D01*
X108338977Y-94031135D01*
X108326090Y-94306017D01*
X98517851Y-94306017D01*
X99180337Y-93643532D01*
X99372589Y-93771990D01*
X99642842Y-93883932D01*
X99929740Y-93941000D01*
X100222260Y-93941000D01*
X100509158Y-93883932D01*
X100779411Y-93771990D01*
X101022632Y-93609475D01*
X101229475Y-93402632D01*
X101391990Y-93159411D01*
X101503932Y-92889158D01*
X101561000Y-92602260D01*
X101561000Y-92309740D01*
X101503932Y-92022842D01*
X101391990Y-91752589D01*
X101229475Y-91509368D01*
X101097620Y-91377513D01*
X101170180Y-91355502D01*
X101280494Y-91296537D01*
X101377185Y-91217185D01*
X101456537Y-91120494D01*
X101515502Y-91010180D01*
X101551812Y-90890482D01*
X101564072Y-90766000D01*
X101564072Y-90243000D01*
X102718070Y-90243000D01*
X102771363Y-90322759D01*
X102971241Y-90522637D01*
X103206273Y-90679680D01*
X103467426Y-90787853D01*
X103744665Y-90843000D01*
X104027335Y-90843000D01*
X104304574Y-90787853D01*
X104565727Y-90679680D01*
X104800759Y-90522637D01*
X105000637Y-90322759D01*
X105157680Y-90087727D01*
X105265853Y-89826574D01*
X105321000Y-89549335D01*
X105321000Y-89266665D01*
X105265853Y-88989426D01*
X105157680Y-88728273D01*
X105000637Y-88493241D01*
X104800759Y-88293363D01*
X104565727Y-88136320D01*
X104304574Y-88028147D01*
X104027335Y-87973000D01*
X103744665Y-87973000D01*
X103467426Y-88028147D01*
X103206273Y-88136320D01*
X102971241Y-88293363D01*
X102771363Y-88493241D01*
X102718070Y-88573000D01*
X101326233Y-88573000D01*
X101280494Y-88535463D01*
X101170180Y-88476498D01*
X101050482Y-88440188D01*
X100926000Y-88427928D01*
X99226000Y-88427928D01*
X99101518Y-88440188D01*
X98981820Y-88476498D01*
X98871506Y-88535463D01*
X98774815Y-88614815D01*
X98695463Y-88711506D01*
X98636498Y-88821820D01*
X98600188Y-88941518D01*
X98587928Y-89066000D01*
X98587928Y-90766000D01*
X98600188Y-90890482D01*
X98636498Y-91010180D01*
X98695463Y-91120494D01*
X98774815Y-91217185D01*
X98871506Y-91296537D01*
X98981820Y-91355502D01*
X99054380Y-91377513D01*
X98922525Y-91509368D01*
X98775762Y-91729015D01*
X98720854Y-91758364D01*
X98593709Y-91862709D01*
X98567563Y-91894568D01*
X94437102Y-96025031D01*
X94371592Y-96012000D01*
X94096408Y-96012000D01*
X93826510Y-96065686D01*
X93572273Y-96170995D01*
X93343465Y-96323880D01*
X93148880Y-96518465D01*
X92995995Y-96747273D01*
X92890686Y-97001510D01*
X92837000Y-97271408D01*
X92837000Y-97546592D01*
X92890686Y-97816490D01*
X92995995Y-98070727D01*
X93148880Y-98299535D01*
X93343465Y-98494120D01*
X93399000Y-98531228D01*
X93399001Y-99461772D01*
X93343465Y-99498880D01*
X93148880Y-99693465D01*
X92995995Y-99922273D01*
X92890686Y-100176510D01*
X92837000Y-100446408D01*
X92837000Y-100721592D01*
X92880444Y-100940000D01*
X40669392Y-100940000D01*
X39857751Y-100867563D01*
X39100226Y-100660328D01*
X38391373Y-100322221D01*
X37753590Y-99863928D01*
X37207054Y-99299945D01*
X36769022Y-98648085D01*
X36453349Y-97928963D01*
X36268794Y-97160232D01*
X36220000Y-96495792D01*
X36220000Y-96134519D01*
X36726150Y-96134519D01*
X36726150Y-96905481D01*
X36876557Y-97661628D01*
X37171592Y-98373903D01*
X37599915Y-99014934D01*
X38145066Y-99560085D01*
X38786097Y-99988408D01*
X39498372Y-100283443D01*
X40254519Y-100433850D01*
X41025481Y-100433850D01*
X41781628Y-100283443D01*
X42493903Y-99988408D01*
X43134934Y-99560085D01*
X43680085Y-99014934D01*
X44108408Y-98373903D01*
X44403443Y-97661628D01*
X44553850Y-96905481D01*
X44553850Y-96134519D01*
X44403443Y-95378372D01*
X44108408Y-94666097D01*
X43680085Y-94025066D01*
X43134934Y-93479915D01*
X42493903Y-93051592D01*
X41781628Y-92756557D01*
X41025481Y-92606150D01*
X40254519Y-92606150D01*
X39498372Y-92756557D01*
X38786097Y-93051592D01*
X38145066Y-93479915D01*
X37599915Y-94025066D01*
X37171592Y-94666097D01*
X36876557Y-95378372D01*
X36726150Y-96134519D01*
X36220000Y-96134519D01*
X36220000Y-72691413D01*
X49082192Y-72691413D01*
X49177956Y-72955814D01*
X49467571Y-73096704D01*
X49779108Y-73178384D01*
X50100595Y-73197718D01*
X50419675Y-73153961D01*
X50724088Y-73048795D01*
X50898044Y-72955814D01*
X50993808Y-72691413D01*
X55582192Y-72691413D01*
X55677956Y-72955814D01*
X55967571Y-73096704D01*
X56279108Y-73178384D01*
X56600595Y-73197718D01*
X56919675Y-73153961D01*
X57224088Y-73048795D01*
X57398044Y-72955814D01*
X57493808Y-72691413D01*
X56538000Y-71735605D01*
X55582192Y-72691413D01*
X50993808Y-72691413D01*
X50038000Y-71735605D01*
X49082192Y-72691413D01*
X36220000Y-72691413D01*
X36220000Y-71618595D01*
X48396282Y-71618595D01*
X48440039Y-71937675D01*
X48545205Y-72242088D01*
X48638186Y-72416044D01*
X48902587Y-72511808D01*
X49858395Y-71556000D01*
X50217605Y-71556000D01*
X51173413Y-72511808D01*
X51437814Y-72416044D01*
X51578704Y-72126429D01*
X51660384Y-71814892D01*
X51672189Y-71618595D01*
X54896282Y-71618595D01*
X54940039Y-71937675D01*
X55045205Y-72242088D01*
X55138186Y-72416044D01*
X55402587Y-72511808D01*
X56358395Y-71556000D01*
X56717605Y-71556000D01*
X57673413Y-72511808D01*
X57937814Y-72416044D01*
X58078704Y-72126429D01*
X58160384Y-71814892D01*
X58179718Y-71493405D01*
X58135961Y-71174325D01*
X58030795Y-70869912D01*
X57937814Y-70695956D01*
X57673413Y-70600192D01*
X56717605Y-71556000D01*
X56358395Y-71556000D01*
X55402587Y-70600192D01*
X55138186Y-70695956D01*
X54997296Y-70985571D01*
X54915616Y-71297108D01*
X54896282Y-71618595D01*
X51672189Y-71618595D01*
X51679718Y-71493405D01*
X51635961Y-71174325D01*
X51530795Y-70869912D01*
X51437814Y-70695956D01*
X51173413Y-70600192D01*
X50217605Y-71556000D01*
X49858395Y-71556000D01*
X48902587Y-70600192D01*
X48638186Y-70695956D01*
X48497296Y-70985571D01*
X48415616Y-71297108D01*
X48396282Y-71618595D01*
X36220000Y-71618595D01*
X36220000Y-70420587D01*
X49082192Y-70420587D01*
X50038000Y-71376395D01*
X50993808Y-70420587D01*
X55582192Y-70420587D01*
X56538000Y-71376395D01*
X57493808Y-70420587D01*
X57398044Y-70156186D01*
X57108429Y-70015296D01*
X56796892Y-69933616D01*
X56475405Y-69914282D01*
X56156325Y-69958039D01*
X55851912Y-70063205D01*
X55677956Y-70156186D01*
X55582192Y-70420587D01*
X50993808Y-70420587D01*
X50898044Y-70156186D01*
X50608429Y-70015296D01*
X50296892Y-69933616D01*
X49975405Y-69914282D01*
X49656325Y-69958039D01*
X49351912Y-70063205D01*
X49177956Y-70156186D01*
X49082192Y-70420587D01*
X36220000Y-70420587D01*
X36220000Y-68823408D01*
X108331000Y-68823408D01*
X108331000Y-69098592D01*
X108384686Y-69368490D01*
X108489995Y-69622727D01*
X108642880Y-69851535D01*
X108837465Y-70046120D01*
X109019123Y-70167500D01*
X108837465Y-70288880D01*
X108642880Y-70483465D01*
X108489995Y-70712273D01*
X108384686Y-70966510D01*
X108331000Y-71236408D01*
X108331000Y-71511592D01*
X108384686Y-71781490D01*
X108489995Y-72035727D01*
X108642880Y-72264535D01*
X108837465Y-72459120D01*
X109066273Y-72612005D01*
X109143515Y-72644000D01*
X109066273Y-72675995D01*
X108837465Y-72828880D01*
X108642880Y-73023465D01*
X108489995Y-73252273D01*
X108384686Y-73506510D01*
X108331000Y-73776408D01*
X108331000Y-74051592D01*
X108384686Y-74321490D01*
X108489995Y-74575727D01*
X108642880Y-74804535D01*
X108837465Y-74999120D01*
X109066273Y-75152005D01*
X109143515Y-75184000D01*
X109066273Y-75215995D01*
X108837465Y-75368880D01*
X108642880Y-75563465D01*
X108489995Y-75792273D01*
X108384686Y-76046510D01*
X108331000Y-76316408D01*
X108331000Y-76591592D01*
X108384686Y-76861490D01*
X108489995Y-77115727D01*
X108642880Y-77344535D01*
X108837465Y-77539120D01*
X109066273Y-77692005D01*
X109143515Y-77724000D01*
X109066273Y-77755995D01*
X108837465Y-77908880D01*
X108642880Y-78103465D01*
X108489995Y-78332273D01*
X108384686Y-78586510D01*
X108331000Y-78856408D01*
X108331000Y-79131592D01*
X108384686Y-79401490D01*
X108489995Y-79655727D01*
X108642880Y-79884535D01*
X108837465Y-80079120D01*
X109066273Y-80232005D01*
X109143515Y-80264000D01*
X109066273Y-80295995D01*
X108837465Y-80448880D01*
X108642880Y-80643465D01*
X108489995Y-80872273D01*
X108384686Y-81126510D01*
X108331000Y-81396408D01*
X108331000Y-81671592D01*
X108384686Y-81941490D01*
X108489995Y-82195727D01*
X108642880Y-82424535D01*
X108837465Y-82619120D01*
X109066273Y-82772005D01*
X109143515Y-82804000D01*
X109066273Y-82835995D01*
X108837465Y-82988880D01*
X108642880Y-83183465D01*
X108489995Y-83412273D01*
X108384686Y-83666510D01*
X108331000Y-83936408D01*
X108331000Y-84211592D01*
X108384686Y-84481490D01*
X108489995Y-84735727D01*
X108642880Y-84964535D01*
X108837465Y-85159120D01*
X109066273Y-85312005D01*
X109143515Y-85344000D01*
X109066273Y-85375995D01*
X108837465Y-85528880D01*
X108642880Y-85723465D01*
X108489995Y-85952273D01*
X108384686Y-86206510D01*
X108331000Y-86476408D01*
X108331000Y-86751592D01*
X108384686Y-87021490D01*
X108489995Y-87275727D01*
X108642880Y-87504535D01*
X108837465Y-87699120D01*
X109066273Y-87852005D01*
X109143515Y-87884000D01*
X109066273Y-87915995D01*
X108837465Y-88068880D01*
X108642880Y-88263465D01*
X108489995Y-88492273D01*
X108384686Y-88746510D01*
X108331000Y-89016408D01*
X108331000Y-89291592D01*
X108384686Y-89561490D01*
X108489995Y-89815727D01*
X108642880Y-90044535D01*
X108837465Y-90239120D01*
X109066273Y-90392005D01*
X109143515Y-90424000D01*
X109066273Y-90455995D01*
X108837465Y-90608880D01*
X108642880Y-90803465D01*
X108489995Y-91032273D01*
X108384686Y-91286510D01*
X108331000Y-91556408D01*
X108331000Y-91831592D01*
X108384686Y-92101490D01*
X108489995Y-92355727D01*
X108642880Y-92584535D01*
X108837465Y-92779120D01*
X109066273Y-92932005D01*
X109137943Y-92961692D01*
X109124977Y-92966364D01*
X109009020Y-93028344D01*
X108942040Y-93268435D01*
X109728000Y-94054395D01*
X110513960Y-93268435D01*
X110446980Y-93028344D01*
X110311240Y-92964515D01*
X110389727Y-92932005D01*
X110618535Y-92779120D01*
X110813120Y-92584535D01*
X110966005Y-92355727D01*
X111071314Y-92101490D01*
X111125000Y-91831592D01*
X111125000Y-91766017D01*
X123439090Y-91766017D01*
X123480078Y-92038133D01*
X123573364Y-92297023D01*
X123635344Y-92412980D01*
X123875435Y-92479960D01*
X124661395Y-91694000D01*
X125020605Y-91694000D01*
X125806565Y-92479960D01*
X126046656Y-92412980D01*
X126163756Y-92163952D01*
X126230023Y-91896865D01*
X126242910Y-91621983D01*
X126201922Y-91349867D01*
X126108636Y-91090977D01*
X126046656Y-90975020D01*
X125806565Y-90908040D01*
X125020605Y-91694000D01*
X124661395Y-91694000D01*
X123875435Y-90908040D01*
X123635344Y-90975020D01*
X123518244Y-91224048D01*
X123451977Y-91491135D01*
X123439090Y-91766017D01*
X111125000Y-91766017D01*
X111125000Y-91556408D01*
X111071314Y-91286510D01*
X110966005Y-91032273D01*
X110813120Y-90803465D01*
X110618535Y-90608880D01*
X110389727Y-90455995D01*
X110312485Y-90424000D01*
X110389727Y-90392005D01*
X110618535Y-90239120D01*
X110738090Y-90119565D01*
X124055040Y-90119565D01*
X124122020Y-90359656D01*
X124252644Y-90421079D01*
X124237977Y-90426364D01*
X124122020Y-90488344D01*
X124055040Y-90728435D01*
X124841000Y-91514395D01*
X125626960Y-90728435D01*
X125559980Y-90488344D01*
X125429356Y-90426921D01*
X125444023Y-90421636D01*
X125559980Y-90359656D01*
X125626960Y-90119565D01*
X124841000Y-89333605D01*
X124055040Y-90119565D01*
X110738090Y-90119565D01*
X110813120Y-90044535D01*
X110966005Y-89815727D01*
X111071314Y-89561490D01*
X111125000Y-89291592D01*
X111125000Y-89226017D01*
X123439090Y-89226017D01*
X123480078Y-89498133D01*
X123573364Y-89757023D01*
X123635344Y-89872980D01*
X123875435Y-89939960D01*
X124661395Y-89154000D01*
X125020605Y-89154000D01*
X125806565Y-89939960D01*
X126046656Y-89872980D01*
X126163756Y-89623952D01*
X126230023Y-89356865D01*
X126242910Y-89081983D01*
X126201922Y-88809867D01*
X126108636Y-88550977D01*
X126046656Y-88435020D01*
X125806565Y-88368040D01*
X125020605Y-89154000D01*
X124661395Y-89154000D01*
X123875435Y-88368040D01*
X123635344Y-88435020D01*
X123518244Y-88684048D01*
X123451977Y-88951135D01*
X123439090Y-89226017D01*
X111125000Y-89226017D01*
X111125000Y-89016408D01*
X111071314Y-88746510D01*
X110966005Y-88492273D01*
X110813120Y-88263465D01*
X110618535Y-88068880D01*
X110389727Y-87915995D01*
X110312485Y-87884000D01*
X110389727Y-87852005D01*
X110618535Y-87699120D01*
X110813120Y-87504535D01*
X110966005Y-87275727D01*
X111071314Y-87021490D01*
X111125000Y-86751592D01*
X111125000Y-86476408D01*
X111071314Y-86206510D01*
X110966005Y-85952273D01*
X110813120Y-85723465D01*
X110618535Y-85528880D01*
X110389727Y-85375995D01*
X110312485Y-85344000D01*
X110389727Y-85312005D01*
X110618535Y-85159120D01*
X110813120Y-84964535D01*
X110966005Y-84735727D01*
X111071314Y-84481490D01*
X111125000Y-84211592D01*
X111125000Y-83936408D01*
X111071314Y-83666510D01*
X110966005Y-83412273D01*
X110813120Y-83183465D01*
X110618535Y-82988880D01*
X110389727Y-82835995D01*
X110312485Y-82804000D01*
X110389727Y-82772005D01*
X110618535Y-82619120D01*
X110813120Y-82424535D01*
X110966005Y-82195727D01*
X111071314Y-81941490D01*
X111125000Y-81671592D01*
X111125000Y-81396408D01*
X111071314Y-81126510D01*
X110966005Y-80872273D01*
X110813120Y-80643465D01*
X110618535Y-80448880D01*
X110389727Y-80295995D01*
X110312485Y-80264000D01*
X110389727Y-80232005D01*
X110618535Y-80079120D01*
X110813120Y-79884535D01*
X110966005Y-79655727D01*
X111071314Y-79401490D01*
X111125000Y-79131592D01*
X111125000Y-78856408D01*
X111071314Y-78586510D01*
X110966005Y-78332273D01*
X110813120Y-78103465D01*
X110618535Y-77908880D01*
X110389727Y-77755995D01*
X110312485Y-77724000D01*
X110389727Y-77692005D01*
X110618535Y-77539120D01*
X110813120Y-77344535D01*
X110966005Y-77115727D01*
X111071314Y-76861490D01*
X111125000Y-76591592D01*
X111125000Y-76316408D01*
X111071314Y-76046510D01*
X110966005Y-75792273D01*
X110813120Y-75563465D01*
X110618535Y-75368880D01*
X110389727Y-75215995D01*
X110312485Y-75184000D01*
X110389727Y-75152005D01*
X110618535Y-74999120D01*
X110813120Y-74804535D01*
X110966005Y-74575727D01*
X111071314Y-74321490D01*
X111125000Y-74051592D01*
X111125000Y-73776408D01*
X111071314Y-73506510D01*
X110966005Y-73252273D01*
X110813120Y-73023465D01*
X110618535Y-72828880D01*
X110389727Y-72675995D01*
X110312485Y-72644000D01*
X110389727Y-72612005D01*
X110618535Y-72459120D01*
X110813120Y-72264535D01*
X110966005Y-72035727D01*
X111071314Y-71781490D01*
X111125000Y-71511592D01*
X111125000Y-71236408D01*
X111071314Y-70966510D01*
X110966005Y-70712273D01*
X110813120Y-70483465D01*
X110618535Y-70288880D01*
X110436877Y-70167500D01*
X110618535Y-70046120D01*
X110813120Y-69851535D01*
X110966005Y-69622727D01*
X111071314Y-69368490D01*
X111125000Y-69098592D01*
X111125000Y-68823408D01*
X111071314Y-68553510D01*
X110966005Y-68299273D01*
X110813120Y-68070465D01*
X110618535Y-67875880D01*
X110389727Y-67722995D01*
X110135490Y-67617686D01*
X109865592Y-67564000D01*
X109590408Y-67564000D01*
X109320510Y-67617686D01*
X109066273Y-67722995D01*
X108837465Y-67875880D01*
X108642880Y-68070465D01*
X108489995Y-68299273D01*
X108384686Y-68553510D01*
X108331000Y-68823408D01*
X36220000Y-68823408D01*
X36220000Y-66894967D01*
X48403000Y-66894967D01*
X48403000Y-67217033D01*
X48465832Y-67532912D01*
X48589082Y-67830463D01*
X48768013Y-68098252D01*
X48995748Y-68325987D01*
X49263537Y-68504918D01*
X49561088Y-68628168D01*
X49876967Y-68691000D01*
X50199033Y-68691000D01*
X50514912Y-68628168D01*
X50812463Y-68504918D01*
X51080252Y-68325987D01*
X51307987Y-68098252D01*
X51446468Y-67891000D01*
X55129532Y-67891000D01*
X55268013Y-68098252D01*
X55495748Y-68325987D01*
X55763537Y-68504918D01*
X56061088Y-68628168D01*
X56376967Y-68691000D01*
X56699033Y-68691000D01*
X57014912Y-68628168D01*
X57312463Y-68504918D01*
X57580252Y-68325987D01*
X57807987Y-68098252D01*
X57986918Y-67830463D01*
X58110168Y-67532912D01*
X58173000Y-67217033D01*
X58173000Y-66894967D01*
X58110168Y-66579088D01*
X57986918Y-66281537D01*
X57807987Y-66013748D01*
X57580252Y-65786013D01*
X57312463Y-65607082D01*
X57014912Y-65483832D01*
X56699033Y-65421000D01*
X56376967Y-65421000D01*
X56061088Y-65483832D01*
X55763537Y-65607082D01*
X55495748Y-65786013D01*
X55268013Y-66013748D01*
X55129532Y-66221000D01*
X51446468Y-66221000D01*
X51307987Y-66013748D01*
X51080252Y-65786013D01*
X50812463Y-65607082D01*
X50514912Y-65483832D01*
X50199033Y-65421000D01*
X49876967Y-65421000D01*
X49561088Y-65483832D01*
X49263537Y-65607082D01*
X48995748Y-65786013D01*
X48768013Y-66013748D01*
X48589082Y-66281537D01*
X48465832Y-66579088D01*
X48403000Y-66894967D01*
X36220000Y-66894967D01*
X36220000Y-64309413D01*
X40700192Y-64309413D01*
X40795956Y-64573814D01*
X41085571Y-64714704D01*
X41397108Y-64796384D01*
X41718595Y-64815718D01*
X42037675Y-64771961D01*
X42342088Y-64666795D01*
X42516044Y-64573814D01*
X42611808Y-64309413D01*
X47200192Y-64309413D01*
X47295956Y-64573814D01*
X47585571Y-64714704D01*
X47897108Y-64796384D01*
X48218595Y-64815718D01*
X48537675Y-64771961D01*
X48842088Y-64666795D01*
X49016044Y-64573814D01*
X49111808Y-64309413D01*
X57464192Y-64309413D01*
X57559956Y-64573814D01*
X57849571Y-64714704D01*
X58161108Y-64796384D01*
X58482595Y-64815718D01*
X58801675Y-64771961D01*
X59106088Y-64666795D01*
X59280044Y-64573814D01*
X59375808Y-64309413D01*
X63964192Y-64309413D01*
X64059956Y-64573814D01*
X64349571Y-64714704D01*
X64661108Y-64796384D01*
X64982595Y-64815718D01*
X65301675Y-64771961D01*
X65606088Y-64666795D01*
X65780044Y-64573814D01*
X65875808Y-64309413D01*
X64920000Y-63353605D01*
X63964192Y-64309413D01*
X59375808Y-64309413D01*
X58420000Y-63353605D01*
X57464192Y-64309413D01*
X49111808Y-64309413D01*
X48156000Y-63353605D01*
X47200192Y-64309413D01*
X42611808Y-64309413D01*
X41656000Y-63353605D01*
X40700192Y-64309413D01*
X36220000Y-64309413D01*
X36220000Y-63236595D01*
X40014282Y-63236595D01*
X40058039Y-63555675D01*
X40163205Y-63860088D01*
X40256186Y-64034044D01*
X40520587Y-64129808D01*
X41476395Y-63174000D01*
X41835605Y-63174000D01*
X42791413Y-64129808D01*
X43055814Y-64034044D01*
X43196704Y-63744429D01*
X43278384Y-63432892D01*
X43290189Y-63236595D01*
X46514282Y-63236595D01*
X46558039Y-63555675D01*
X46663205Y-63860088D01*
X46756186Y-64034044D01*
X47020587Y-64129808D01*
X47976395Y-63174000D01*
X48335605Y-63174000D01*
X49291413Y-64129808D01*
X49555814Y-64034044D01*
X49696704Y-63744429D01*
X49778384Y-63432892D01*
X49790189Y-63236595D01*
X56778282Y-63236595D01*
X56822039Y-63555675D01*
X56927205Y-63860088D01*
X57020186Y-64034044D01*
X57284587Y-64129808D01*
X58240395Y-63174000D01*
X58599605Y-63174000D01*
X59555413Y-64129808D01*
X59819814Y-64034044D01*
X59960704Y-63744429D01*
X60042384Y-63432892D01*
X60054189Y-63236595D01*
X63278282Y-63236595D01*
X63322039Y-63555675D01*
X63427205Y-63860088D01*
X63520186Y-64034044D01*
X63784587Y-64129808D01*
X64740395Y-63174000D01*
X65099605Y-63174000D01*
X66055413Y-64129808D01*
X66319814Y-64034044D01*
X66460704Y-63744429D01*
X66542384Y-63432892D01*
X66561718Y-63111405D01*
X66517961Y-62792325D01*
X66412795Y-62487912D01*
X66319814Y-62313956D01*
X66055413Y-62218192D01*
X65099605Y-63174000D01*
X64740395Y-63174000D01*
X63784587Y-62218192D01*
X63520186Y-62313956D01*
X63379296Y-62603571D01*
X63297616Y-62915108D01*
X63278282Y-63236595D01*
X60054189Y-63236595D01*
X60061718Y-63111405D01*
X60017961Y-62792325D01*
X59912795Y-62487912D01*
X59819814Y-62313956D01*
X59555413Y-62218192D01*
X58599605Y-63174000D01*
X58240395Y-63174000D01*
X57284587Y-62218192D01*
X57020186Y-62313956D01*
X56879296Y-62603571D01*
X56797616Y-62915108D01*
X56778282Y-63236595D01*
X49790189Y-63236595D01*
X49797718Y-63111405D01*
X49753961Y-62792325D01*
X49648795Y-62487912D01*
X49555814Y-62313956D01*
X49291413Y-62218192D01*
X48335605Y-63174000D01*
X47976395Y-63174000D01*
X47020587Y-62218192D01*
X46756186Y-62313956D01*
X46615296Y-62603571D01*
X46533616Y-62915108D01*
X46514282Y-63236595D01*
X43290189Y-63236595D01*
X43297718Y-63111405D01*
X43253961Y-62792325D01*
X43148795Y-62487912D01*
X43055814Y-62313956D01*
X42791413Y-62218192D01*
X41835605Y-63174000D01*
X41476395Y-63174000D01*
X40520587Y-62218192D01*
X40256186Y-62313956D01*
X40115296Y-62603571D01*
X40033616Y-62915108D01*
X40014282Y-63236595D01*
X36220000Y-63236595D01*
X36220000Y-62038587D01*
X40700192Y-62038587D01*
X41656000Y-62994395D01*
X42611808Y-62038587D01*
X47200192Y-62038587D01*
X48156000Y-62994395D01*
X49111808Y-62038587D01*
X57464192Y-62038587D01*
X58420000Y-62994395D01*
X59375808Y-62038587D01*
X63964192Y-62038587D01*
X64920000Y-62994395D01*
X65875808Y-62038587D01*
X65780044Y-61774186D01*
X65490429Y-61633296D01*
X65178892Y-61551616D01*
X64857405Y-61532282D01*
X64538325Y-61576039D01*
X64233912Y-61681205D01*
X64059956Y-61774186D01*
X63964192Y-62038587D01*
X59375808Y-62038587D01*
X59280044Y-61774186D01*
X58990429Y-61633296D01*
X58678892Y-61551616D01*
X58357405Y-61532282D01*
X58038325Y-61576039D01*
X57733912Y-61681205D01*
X57559956Y-61774186D01*
X57464192Y-62038587D01*
X49111808Y-62038587D01*
X49016044Y-61774186D01*
X48726429Y-61633296D01*
X48414892Y-61551616D01*
X48093405Y-61532282D01*
X47774325Y-61576039D01*
X47469912Y-61681205D01*
X47295956Y-61774186D01*
X47200192Y-62038587D01*
X42611808Y-62038587D01*
X42516044Y-61774186D01*
X42226429Y-61633296D01*
X41914892Y-61551616D01*
X41593405Y-61532282D01*
X41274325Y-61576039D01*
X40969912Y-61681205D01*
X40795956Y-61774186D01*
X40700192Y-62038587D01*
X36220000Y-62038587D01*
X36220000Y-58512967D01*
X40021000Y-58512967D01*
X40021000Y-58835033D01*
X40083832Y-59150912D01*
X40207082Y-59448463D01*
X40386013Y-59716252D01*
X40613748Y-59943987D01*
X40881537Y-60122918D01*
X41179088Y-60246168D01*
X41494967Y-60309000D01*
X41817033Y-60309000D01*
X42132912Y-60246168D01*
X42430463Y-60122918D01*
X42698252Y-59943987D01*
X42925987Y-59716252D01*
X43064468Y-59509000D01*
X46747532Y-59509000D01*
X46886013Y-59716252D01*
X47113748Y-59943987D01*
X47381537Y-60122918D01*
X47679088Y-60246168D01*
X47994967Y-60309000D01*
X48317033Y-60309000D01*
X48632912Y-60246168D01*
X48930463Y-60122918D01*
X49198252Y-59943987D01*
X49425987Y-59716252D01*
X49604918Y-59448463D01*
X49728168Y-59150912D01*
X49791000Y-58835033D01*
X49791000Y-58512967D01*
X56785000Y-58512967D01*
X56785000Y-58835033D01*
X56847832Y-59150912D01*
X56971082Y-59448463D01*
X57150013Y-59716252D01*
X57377748Y-59943987D01*
X57645537Y-60122918D01*
X57943088Y-60246168D01*
X58258967Y-60309000D01*
X58581033Y-60309000D01*
X58896912Y-60246168D01*
X59194463Y-60122918D01*
X59462252Y-59943987D01*
X59689987Y-59716252D01*
X59828468Y-59509000D01*
X63511532Y-59509000D01*
X63650013Y-59716252D01*
X63877748Y-59943987D01*
X64145537Y-60122918D01*
X64443088Y-60246168D01*
X64758967Y-60309000D01*
X65081033Y-60309000D01*
X65396912Y-60246168D01*
X65694463Y-60122918D01*
X65962252Y-59943987D01*
X66189987Y-59716252D01*
X66368918Y-59448463D01*
X66492168Y-59150912D01*
X66555000Y-58835033D01*
X66555000Y-58512967D01*
X66492168Y-58197088D01*
X66368918Y-57899537D01*
X66189987Y-57631748D01*
X65962252Y-57404013D01*
X65694463Y-57225082D01*
X65396912Y-57101832D01*
X65081033Y-57039000D01*
X64758967Y-57039000D01*
X64443088Y-57101832D01*
X64145537Y-57225082D01*
X63877748Y-57404013D01*
X63650013Y-57631748D01*
X63511532Y-57839000D01*
X59828468Y-57839000D01*
X59689987Y-57631748D01*
X59462252Y-57404013D01*
X59194463Y-57225082D01*
X58896912Y-57101832D01*
X58581033Y-57039000D01*
X58258967Y-57039000D01*
X57943088Y-57101832D01*
X57645537Y-57225082D01*
X57377748Y-57404013D01*
X57150013Y-57631748D01*
X56971082Y-57899537D01*
X56847832Y-58197088D01*
X56785000Y-58512967D01*
X49791000Y-58512967D01*
X49728168Y-58197088D01*
X49604918Y-57899537D01*
X49425987Y-57631748D01*
X49198252Y-57404013D01*
X48930463Y-57225082D01*
X48632912Y-57101832D01*
X48317033Y-57039000D01*
X47994967Y-57039000D01*
X47679088Y-57101832D01*
X47381537Y-57225082D01*
X47113748Y-57404013D01*
X46886013Y-57631748D01*
X46747532Y-57839000D01*
X43064468Y-57839000D01*
X42925987Y-57631748D01*
X42698252Y-57404013D01*
X42430463Y-57225082D01*
X42132912Y-57101832D01*
X41817033Y-57039000D01*
X41494967Y-57039000D01*
X41179088Y-57101832D01*
X40881537Y-57225082D01*
X40613748Y-57404013D01*
X40386013Y-57631748D01*
X40207082Y-57899537D01*
X40083832Y-58197088D01*
X40021000Y-58512967D01*
X36220000Y-58512967D01*
X36220000Y-55927413D01*
X49082192Y-55927413D01*
X49177956Y-56191814D01*
X49467571Y-56332704D01*
X49779108Y-56414384D01*
X50100595Y-56433718D01*
X50419675Y-56389961D01*
X50724088Y-56284795D01*
X50898044Y-56191814D01*
X50993808Y-55927413D01*
X55582192Y-55927413D01*
X55677956Y-56191814D01*
X55967571Y-56332704D01*
X56279108Y-56414384D01*
X56600595Y-56433718D01*
X56919675Y-56389961D01*
X57224088Y-56284795D01*
X57398044Y-56191814D01*
X57493808Y-55927413D01*
X56538000Y-54971605D01*
X55582192Y-55927413D01*
X50993808Y-55927413D01*
X50038000Y-54971605D01*
X49082192Y-55927413D01*
X36220000Y-55927413D01*
X36220000Y-54854595D01*
X48396282Y-54854595D01*
X48440039Y-55173675D01*
X48545205Y-55478088D01*
X48638186Y-55652044D01*
X48902587Y-55747808D01*
X49858395Y-54792000D01*
X50217605Y-54792000D01*
X51173413Y-55747808D01*
X51437814Y-55652044D01*
X51578704Y-55362429D01*
X51660384Y-55050892D01*
X51672189Y-54854595D01*
X54896282Y-54854595D01*
X54940039Y-55173675D01*
X55045205Y-55478088D01*
X55138186Y-55652044D01*
X55402587Y-55747808D01*
X56358395Y-54792000D01*
X56717605Y-54792000D01*
X57673413Y-55747808D01*
X57937814Y-55652044D01*
X58078704Y-55362429D01*
X58160384Y-55050892D01*
X58179718Y-54729405D01*
X58135961Y-54410325D01*
X58030795Y-54105912D01*
X57937814Y-53931956D01*
X57673413Y-53836192D01*
X56717605Y-54792000D01*
X56358395Y-54792000D01*
X55402587Y-53836192D01*
X55138186Y-53931956D01*
X54997296Y-54221571D01*
X54915616Y-54533108D01*
X54896282Y-54854595D01*
X51672189Y-54854595D01*
X51679718Y-54729405D01*
X51635961Y-54410325D01*
X51530795Y-54105912D01*
X51437814Y-53931956D01*
X51173413Y-53836192D01*
X50217605Y-54792000D01*
X49858395Y-54792000D01*
X48902587Y-53836192D01*
X48638186Y-53931956D01*
X48497296Y-54221571D01*
X48415616Y-54533108D01*
X48396282Y-54854595D01*
X36220000Y-54854595D01*
X36220000Y-53656587D01*
X49082192Y-53656587D01*
X50038000Y-54612395D01*
X50993808Y-53656587D01*
X55582192Y-53656587D01*
X56538000Y-54612395D01*
X57493808Y-53656587D01*
X57398044Y-53392186D01*
X57108429Y-53251296D01*
X56796892Y-53169616D01*
X56475405Y-53150282D01*
X56156325Y-53194039D01*
X55851912Y-53299205D01*
X55677956Y-53392186D01*
X55582192Y-53656587D01*
X50993808Y-53656587D01*
X50898044Y-53392186D01*
X50608429Y-53251296D01*
X50296892Y-53169616D01*
X49975405Y-53150282D01*
X49656325Y-53194039D01*
X49351912Y-53299205D01*
X49177956Y-53392186D01*
X49082192Y-53656587D01*
X36220000Y-53656587D01*
X36220000Y-50130967D01*
X48403000Y-50130967D01*
X48403000Y-50453033D01*
X48465832Y-50768912D01*
X48589082Y-51066463D01*
X48768013Y-51334252D01*
X48995748Y-51561987D01*
X49263537Y-51740918D01*
X49561088Y-51864168D01*
X49876967Y-51927000D01*
X50199033Y-51927000D01*
X50514912Y-51864168D01*
X50812463Y-51740918D01*
X51080252Y-51561987D01*
X51307987Y-51334252D01*
X51446468Y-51127000D01*
X55129532Y-51127000D01*
X55268013Y-51334252D01*
X55495748Y-51561987D01*
X55763537Y-51740918D01*
X56061088Y-51864168D01*
X56376967Y-51927000D01*
X56699033Y-51927000D01*
X57014912Y-51864168D01*
X57312463Y-51740918D01*
X57580252Y-51561987D01*
X57807987Y-51334252D01*
X57986918Y-51066463D01*
X58110168Y-50768912D01*
X58173000Y-50453033D01*
X58173000Y-50130967D01*
X58110168Y-49815088D01*
X57986918Y-49517537D01*
X57807987Y-49249748D01*
X57580252Y-49022013D01*
X57312463Y-48843082D01*
X57014912Y-48719832D01*
X56699033Y-48657000D01*
X56376967Y-48657000D01*
X56061088Y-48719832D01*
X55763537Y-48843082D01*
X55495748Y-49022013D01*
X55268013Y-49249748D01*
X55129532Y-49457000D01*
X51446468Y-49457000D01*
X51307987Y-49249748D01*
X51080252Y-49022013D01*
X50812463Y-48843082D01*
X50514912Y-48719832D01*
X50199033Y-48657000D01*
X49876967Y-48657000D01*
X49561088Y-48719832D01*
X49263537Y-48843082D01*
X48995748Y-49022013D01*
X48768013Y-49249748D01*
X48589082Y-49517537D01*
X48465832Y-49815088D01*
X48403000Y-50130967D01*
X36220000Y-50130967D01*
X36220000Y-40669392D01*
X36255234Y-40274592D01*
X36929951Y-40274592D01*
X36929951Y-41005408D01*
X37072526Y-41722181D01*
X37352198Y-42397367D01*
X37758217Y-43005018D01*
X38274982Y-43521783D01*
X38882633Y-43927802D01*
X39557819Y-44207474D01*
X40274592Y-44350049D01*
X41005408Y-44350049D01*
X41722181Y-44207474D01*
X42397367Y-43927802D01*
X42617121Y-43780967D01*
X59599000Y-43780967D01*
X59599000Y-44103033D01*
X59661832Y-44418912D01*
X59785082Y-44716463D01*
X59964013Y-44984252D01*
X60191748Y-45211987D01*
X60459537Y-45390918D01*
X60757088Y-45514168D01*
X61072967Y-45577000D01*
X61395033Y-45577000D01*
X61710912Y-45514168D01*
X62008463Y-45390918D01*
X62276252Y-45211987D01*
X62503987Y-44984252D01*
X62682918Y-44716463D01*
X62806168Y-44418912D01*
X62869000Y-44103033D01*
X62869000Y-43780967D01*
X62820372Y-43536496D01*
X64627869Y-41729000D01*
X70774133Y-41729000D01*
X72152133Y-43107000D01*
X70472072Y-43107000D01*
X70472072Y-42942000D01*
X70459812Y-42817518D01*
X70423502Y-42697820D01*
X70364537Y-42587506D01*
X70285185Y-42490815D01*
X70188494Y-42411463D01*
X70078180Y-42352498D01*
X69958482Y-42316188D01*
X69834000Y-42303928D01*
X67834000Y-42303928D01*
X67709518Y-42316188D01*
X67589820Y-42352498D01*
X67479506Y-42411463D01*
X67382815Y-42490815D01*
X67303463Y-42587506D01*
X67244498Y-42697820D01*
X67208188Y-42817518D01*
X67195928Y-42942000D01*
X67195928Y-44942000D01*
X67208188Y-45066482D01*
X67244498Y-45186180D01*
X67303463Y-45296494D01*
X67382815Y-45393185D01*
X67479506Y-45472537D01*
X67589820Y-45531502D01*
X67709518Y-45567812D01*
X67834000Y-45580072D01*
X69834000Y-45580072D01*
X69958482Y-45567812D01*
X70078180Y-45531502D01*
X70188494Y-45472537D01*
X70285185Y-45393185D01*
X70364537Y-45296494D01*
X70423502Y-45186180D01*
X70459812Y-45066482D01*
X70472072Y-44942000D01*
X70472072Y-44777000D01*
X72806133Y-44777000D01*
X73802558Y-45773426D01*
X73828709Y-45805291D01*
X73955854Y-45909636D01*
X74100913Y-45987172D01*
X74258311Y-46034918D01*
X74380981Y-46047000D01*
X74380983Y-46047000D01*
X74421999Y-46051040D01*
X74463015Y-46047000D01*
X86268133Y-46047000D01*
X86502562Y-46281429D01*
X107330559Y-67109427D01*
X107356709Y-67141291D01*
X107483854Y-67245636D01*
X107628913Y-67323172D01*
X107786311Y-67370918D01*
X107949999Y-67387040D01*
X107991018Y-67383000D01*
X112049133Y-67383000D01*
X123457031Y-78790899D01*
X123444000Y-78856408D01*
X123444000Y-79131592D01*
X123497686Y-79401490D01*
X123602995Y-79655727D01*
X123755880Y-79884535D01*
X123950465Y-80079120D01*
X124179273Y-80232005D01*
X124256515Y-80264000D01*
X124179273Y-80295995D01*
X123950465Y-80448880D01*
X123755880Y-80643465D01*
X123602995Y-80872273D01*
X123497686Y-81126510D01*
X123444000Y-81396408D01*
X123444000Y-81671592D01*
X123497686Y-81941490D01*
X123602995Y-82195727D01*
X123755880Y-82424535D01*
X123950465Y-82619120D01*
X124179273Y-82772005D01*
X124256515Y-82804000D01*
X124179273Y-82835995D01*
X123950465Y-82988880D01*
X123755880Y-83183465D01*
X123602995Y-83412273D01*
X123497686Y-83666510D01*
X123444000Y-83936408D01*
X123444000Y-84211592D01*
X123497686Y-84481490D01*
X123602995Y-84735727D01*
X123755880Y-84964535D01*
X123950465Y-85159120D01*
X124179273Y-85312005D01*
X124256515Y-85344000D01*
X124179273Y-85375995D01*
X123950465Y-85528880D01*
X123755880Y-85723465D01*
X123602995Y-85952273D01*
X123497686Y-86206510D01*
X123444000Y-86476408D01*
X123444000Y-86751592D01*
X123497686Y-87021490D01*
X123602995Y-87275727D01*
X123755880Y-87504535D01*
X123950465Y-87699120D01*
X124179273Y-87852005D01*
X124250943Y-87881692D01*
X124237977Y-87886364D01*
X124122020Y-87948344D01*
X124055040Y-88188435D01*
X124841000Y-88974395D01*
X125626960Y-88188435D01*
X125559980Y-87948344D01*
X125424240Y-87884515D01*
X125502727Y-87852005D01*
X125731535Y-87699120D01*
X125926120Y-87504535D01*
X126079005Y-87275727D01*
X126184314Y-87021490D01*
X126238000Y-86751592D01*
X126238000Y-86476408D01*
X126224969Y-86410898D01*
X127561428Y-85074440D01*
X127593291Y-85048291D01*
X127697636Y-84921146D01*
X127775172Y-84776087D01*
X127822918Y-84618689D01*
X127835000Y-84496019D01*
X127835000Y-84496018D01*
X127839040Y-84455001D01*
X127835000Y-84413982D01*
X127835000Y-80863867D01*
X129593432Y-79105437D01*
X129625291Y-79079291D01*
X129695288Y-78994000D01*
X129729636Y-78952146D01*
X129807172Y-78807087D01*
X129854918Y-78649689D01*
X129871040Y-78486000D01*
X129867000Y-78444982D01*
X129867000Y-66081018D01*
X129871040Y-66039999D01*
X129854918Y-65876311D01*
X129807172Y-65718913D01*
X129729636Y-65573854D01*
X129684477Y-65518828D01*
X129625291Y-65446709D01*
X129593428Y-65420560D01*
X122501000Y-58328133D01*
X122501000Y-57451413D01*
X123758192Y-57451413D01*
X123853956Y-57715814D01*
X124143571Y-57856704D01*
X124455108Y-57938384D01*
X124776595Y-57957718D01*
X125095675Y-57913961D01*
X125400088Y-57808795D01*
X125574044Y-57715814D01*
X125669808Y-57451413D01*
X130258192Y-57451413D01*
X130353956Y-57715814D01*
X130643571Y-57856704D01*
X130955108Y-57938384D01*
X131276595Y-57957718D01*
X131595675Y-57913961D01*
X131900088Y-57808795D01*
X132074044Y-57715814D01*
X132169808Y-57451413D01*
X131214000Y-56495605D01*
X130258192Y-57451413D01*
X125669808Y-57451413D01*
X124714000Y-56495605D01*
X123758192Y-57451413D01*
X122501000Y-57451413D01*
X122501000Y-56378595D01*
X123072282Y-56378595D01*
X123116039Y-56697675D01*
X123221205Y-57002088D01*
X123314186Y-57176044D01*
X123578587Y-57271808D01*
X124534395Y-56316000D01*
X124893605Y-56316000D01*
X125849413Y-57271808D01*
X126113814Y-57176044D01*
X126254704Y-56886429D01*
X126336384Y-56574892D01*
X126348189Y-56378595D01*
X129572282Y-56378595D01*
X129616039Y-56697675D01*
X129721205Y-57002088D01*
X129814186Y-57176044D01*
X130078587Y-57271808D01*
X131034395Y-56316000D01*
X131393605Y-56316000D01*
X132349413Y-57271808D01*
X132613814Y-57176044D01*
X132754704Y-56886429D01*
X132836384Y-56574892D01*
X132855718Y-56253405D01*
X132811961Y-55934325D01*
X132706795Y-55629912D01*
X132613814Y-55455956D01*
X132349413Y-55360192D01*
X131393605Y-56316000D01*
X131034395Y-56316000D01*
X130078587Y-55360192D01*
X129814186Y-55455956D01*
X129673296Y-55745571D01*
X129591616Y-56057108D01*
X129572282Y-56378595D01*
X126348189Y-56378595D01*
X126355718Y-56253405D01*
X126311961Y-55934325D01*
X126206795Y-55629912D01*
X126113814Y-55455956D01*
X125849413Y-55360192D01*
X124893605Y-56316000D01*
X124534395Y-56316000D01*
X123578587Y-55360192D01*
X123314186Y-55455956D01*
X123173296Y-55745571D01*
X123091616Y-56057108D01*
X123072282Y-56378595D01*
X122501000Y-56378595D01*
X122501000Y-55180587D01*
X123758192Y-55180587D01*
X124714000Y-56136395D01*
X125669808Y-55180587D01*
X130258192Y-55180587D01*
X131214000Y-56136395D01*
X132169808Y-55180587D01*
X132074044Y-54916186D01*
X131784429Y-54775296D01*
X131472892Y-54693616D01*
X131151405Y-54674282D01*
X130832325Y-54718039D01*
X130527912Y-54823205D01*
X130353956Y-54916186D01*
X130258192Y-55180587D01*
X125669808Y-55180587D01*
X125574044Y-54916186D01*
X125284429Y-54775296D01*
X124972892Y-54693616D01*
X124651405Y-54674282D01*
X124332325Y-54718039D01*
X124027912Y-54823205D01*
X123853956Y-54916186D01*
X123758192Y-55180587D01*
X122501000Y-55180587D01*
X122501000Y-53381018D01*
X122505040Y-53340000D01*
X122488918Y-53176311D01*
X122441172Y-53018913D01*
X122363636Y-52873854D01*
X122285439Y-52778570D01*
X122285437Y-52778568D01*
X122259291Y-52746709D01*
X122227433Y-52720564D01*
X121161836Y-51654967D01*
X123079000Y-51654967D01*
X123079000Y-51977033D01*
X123141832Y-52292912D01*
X123265082Y-52590463D01*
X123444013Y-52858252D01*
X123671748Y-53085987D01*
X123939537Y-53264918D01*
X124237088Y-53388168D01*
X124552967Y-53451000D01*
X124875033Y-53451000D01*
X125190912Y-53388168D01*
X125488463Y-53264918D01*
X125756252Y-53085987D01*
X125983987Y-52858252D01*
X126122468Y-52651000D01*
X129805532Y-52651000D01*
X129944013Y-52858252D01*
X130171748Y-53085987D01*
X130439537Y-53264918D01*
X130737088Y-53388168D01*
X131052967Y-53451000D01*
X131375033Y-53451000D01*
X131690912Y-53388168D01*
X131988463Y-53264918D01*
X132256252Y-53085987D01*
X132483987Y-52858252D01*
X132662918Y-52590463D01*
X132786168Y-52292912D01*
X132849000Y-51977033D01*
X132849000Y-51654967D01*
X132786168Y-51339088D01*
X132662918Y-51041537D01*
X132483987Y-50773748D01*
X132256252Y-50546013D01*
X131988463Y-50367082D01*
X131690912Y-50243832D01*
X131375033Y-50181000D01*
X131052967Y-50181000D01*
X130737088Y-50243832D01*
X130439537Y-50367082D01*
X130171748Y-50546013D01*
X129944013Y-50773748D01*
X129805532Y-50981000D01*
X126122468Y-50981000D01*
X125983987Y-50773748D01*
X125756252Y-50546013D01*
X125488463Y-50367082D01*
X125190912Y-50243832D01*
X124875033Y-50181000D01*
X124552967Y-50181000D01*
X124237088Y-50243832D01*
X123939537Y-50367082D01*
X123671748Y-50546013D01*
X123444013Y-50773748D01*
X123265082Y-51041537D01*
X123141832Y-51339088D01*
X123079000Y-51654967D01*
X121161836Y-51654967D01*
X117205446Y-47698579D01*
X117179291Y-47666709D01*
X117052146Y-47562364D01*
X116907087Y-47484828D01*
X116749689Y-47437082D01*
X116627019Y-47425000D01*
X116627018Y-47425000D01*
X116586000Y-47420960D01*
X116544982Y-47425000D01*
X101183869Y-47425000D01*
X99337534Y-45578665D01*
X103213000Y-45578665D01*
X103213000Y-45861335D01*
X103268147Y-46138574D01*
X103376320Y-46399727D01*
X103533363Y-46634759D01*
X103733241Y-46834637D01*
X103968273Y-46991680D01*
X104229426Y-47099853D01*
X104506665Y-47155000D01*
X104789335Y-47155000D01*
X105066574Y-47099853D01*
X105327727Y-46991680D01*
X105562759Y-46834637D01*
X105762637Y-46634759D01*
X105919680Y-46399727D01*
X106027853Y-46138574D01*
X106083000Y-45861335D01*
X106083000Y-45578665D01*
X108293000Y-45578665D01*
X108293000Y-45861335D01*
X108348147Y-46138574D01*
X108456320Y-46399727D01*
X108613363Y-46634759D01*
X108813241Y-46834637D01*
X109048273Y-46991680D01*
X109309426Y-47099853D01*
X109586665Y-47155000D01*
X109869335Y-47155000D01*
X110146574Y-47099853D01*
X110407727Y-46991680D01*
X110642759Y-46834637D01*
X110842637Y-46634759D01*
X110999680Y-46399727D01*
X111107853Y-46138574D01*
X111163000Y-45861335D01*
X111163000Y-45578665D01*
X113373000Y-45578665D01*
X113373000Y-45861335D01*
X113428147Y-46138574D01*
X113536320Y-46399727D01*
X113693363Y-46634759D01*
X113893241Y-46834637D01*
X114128273Y-46991680D01*
X114389426Y-47099853D01*
X114666665Y-47155000D01*
X114949335Y-47155000D01*
X115226574Y-47099853D01*
X115487727Y-46991680D01*
X115722759Y-46834637D01*
X115922637Y-46634759D01*
X116079680Y-46399727D01*
X116187853Y-46138574D01*
X116243000Y-45861335D01*
X116243000Y-45578665D01*
X116187853Y-45301426D01*
X116079680Y-45040273D01*
X115922637Y-44805241D01*
X115722759Y-44605363D01*
X115487727Y-44448320D01*
X115226574Y-44340147D01*
X114949335Y-44285000D01*
X114666665Y-44285000D01*
X114389426Y-44340147D01*
X114128273Y-44448320D01*
X113893241Y-44605363D01*
X113693363Y-44805241D01*
X113536320Y-45040273D01*
X113428147Y-45301426D01*
X113373000Y-45578665D01*
X111163000Y-45578665D01*
X111107853Y-45301426D01*
X110999680Y-45040273D01*
X110842637Y-44805241D01*
X110642759Y-44605363D01*
X110407727Y-44448320D01*
X110146574Y-44340147D01*
X109869335Y-44285000D01*
X109586665Y-44285000D01*
X109309426Y-44340147D01*
X109048273Y-44448320D01*
X108813241Y-44605363D01*
X108613363Y-44805241D01*
X108456320Y-45040273D01*
X108348147Y-45301426D01*
X108293000Y-45578665D01*
X106083000Y-45578665D01*
X106027853Y-45301426D01*
X105919680Y-45040273D01*
X105762637Y-44805241D01*
X105562759Y-44605363D01*
X105327727Y-44448320D01*
X105066574Y-44340147D01*
X104789335Y-44285000D01*
X104506665Y-44285000D01*
X104229426Y-44340147D01*
X103968273Y-44448320D01*
X103733241Y-44605363D01*
X103533363Y-44805241D01*
X103376320Y-45040273D01*
X103268147Y-45301426D01*
X103213000Y-45578665D01*
X99337534Y-45578665D01*
X96593000Y-42834133D01*
X96593000Y-40756000D01*
X103871928Y-40756000D01*
X103871928Y-42556000D01*
X103884188Y-42680482D01*
X103920498Y-42800180D01*
X103979463Y-42910494D01*
X104058815Y-43007185D01*
X104155506Y-43086537D01*
X104265820Y-43145502D01*
X104385518Y-43181812D01*
X104510000Y-43194072D01*
X106310000Y-43194072D01*
X106434482Y-43181812D01*
X106554180Y-43145502D01*
X106664494Y-43086537D01*
X106761185Y-43007185D01*
X106840537Y-42910494D01*
X106899502Y-42800180D01*
X106935812Y-42680482D01*
X106948072Y-42556000D01*
X106948072Y-40756000D01*
X108189928Y-40756000D01*
X108189928Y-42556000D01*
X108202188Y-42680482D01*
X108238498Y-42800180D01*
X108297463Y-42910494D01*
X108376815Y-43007185D01*
X108473506Y-43086537D01*
X108583820Y-43145502D01*
X108703518Y-43181812D01*
X108828000Y-43194072D01*
X110628000Y-43194072D01*
X110752482Y-43181812D01*
X110872180Y-43145502D01*
X110982494Y-43086537D01*
X111079185Y-43007185D01*
X111158537Y-42910494D01*
X111217502Y-42800180D01*
X111253812Y-42680482D01*
X111266072Y-42556000D01*
X111266072Y-40756000D01*
X112507928Y-40756000D01*
X112507928Y-42556000D01*
X112520188Y-42680482D01*
X112556498Y-42800180D01*
X112615463Y-42910494D01*
X112694815Y-43007185D01*
X112791506Y-43086537D01*
X112901820Y-43145502D01*
X113021518Y-43181812D01*
X113146000Y-43194072D01*
X114946000Y-43194072D01*
X115070482Y-43181812D01*
X115190180Y-43145502D01*
X115300494Y-43086537D01*
X115397185Y-43007185D01*
X115476537Y-42910494D01*
X115535502Y-42800180D01*
X115571812Y-42680482D01*
X115584072Y-42556000D01*
X115584072Y-40756000D01*
X115571812Y-40631518D01*
X115535502Y-40511820D01*
X115476537Y-40401506D01*
X115397185Y-40304815D01*
X115370615Y-40283009D01*
X128455414Y-40283009D01*
X128455414Y-40996991D01*
X128594705Y-41697253D01*
X128867933Y-42356885D01*
X129264600Y-42950539D01*
X129769461Y-43455400D01*
X130363115Y-43852067D01*
X131022747Y-44125295D01*
X131723009Y-44264586D01*
X132436991Y-44264586D01*
X133137253Y-44125295D01*
X133796885Y-43852067D01*
X134390539Y-43455400D01*
X134895400Y-42950539D01*
X135292067Y-42356885D01*
X135565295Y-41697253D01*
X135704586Y-40996991D01*
X135704586Y-40283009D01*
X135565295Y-39582747D01*
X135292067Y-38923115D01*
X134895400Y-38329461D01*
X134390539Y-37824600D01*
X133796885Y-37427933D01*
X133137253Y-37154705D01*
X132436991Y-37015414D01*
X131723009Y-37015414D01*
X131022747Y-37154705D01*
X130363115Y-37427933D01*
X129769461Y-37824600D01*
X129264600Y-38329461D01*
X128867933Y-38923115D01*
X128594705Y-39582747D01*
X128455414Y-40283009D01*
X115370615Y-40283009D01*
X115300494Y-40225463D01*
X115190180Y-40166498D01*
X115171873Y-40160944D01*
X115238312Y-40094505D01*
X115406299Y-39843095D01*
X115522011Y-39563743D01*
X115581000Y-39267184D01*
X115581000Y-38964816D01*
X115522011Y-38668257D01*
X115406299Y-38388905D01*
X115238312Y-38137495D01*
X115024505Y-37923688D01*
X114773095Y-37755701D01*
X114493743Y-37639989D01*
X114197184Y-37581000D01*
X113894816Y-37581000D01*
X113598257Y-37639989D01*
X113318905Y-37755701D01*
X113067495Y-37923688D01*
X112853688Y-38137495D01*
X112685701Y-38388905D01*
X112569989Y-38668257D01*
X112511000Y-38964816D01*
X112511000Y-39267184D01*
X112569989Y-39563743D01*
X112685701Y-39843095D01*
X112853688Y-40094505D01*
X112920127Y-40160944D01*
X112901820Y-40166498D01*
X112791506Y-40225463D01*
X112694815Y-40304815D01*
X112615463Y-40401506D01*
X112556498Y-40511820D01*
X112520188Y-40631518D01*
X112507928Y-40756000D01*
X111266072Y-40756000D01*
X111253812Y-40631518D01*
X111217502Y-40511820D01*
X111158537Y-40401506D01*
X111079185Y-40304815D01*
X110982494Y-40225463D01*
X110872180Y-40166498D01*
X110853873Y-40160944D01*
X110920312Y-40094505D01*
X111088299Y-39843095D01*
X111204011Y-39563743D01*
X111263000Y-39267184D01*
X111263000Y-38964816D01*
X111204011Y-38668257D01*
X111088299Y-38388905D01*
X110920312Y-38137495D01*
X110706505Y-37923688D01*
X110455095Y-37755701D01*
X110175743Y-37639989D01*
X109879184Y-37581000D01*
X109576816Y-37581000D01*
X109280257Y-37639989D01*
X109000905Y-37755701D01*
X108749495Y-37923688D01*
X108535688Y-38137495D01*
X108367701Y-38388905D01*
X108251989Y-38668257D01*
X108193000Y-38964816D01*
X108193000Y-39267184D01*
X108251989Y-39563743D01*
X108367701Y-39843095D01*
X108535688Y-40094505D01*
X108602127Y-40160944D01*
X108583820Y-40166498D01*
X108473506Y-40225463D01*
X108376815Y-40304815D01*
X108297463Y-40401506D01*
X108238498Y-40511820D01*
X108202188Y-40631518D01*
X108189928Y-40756000D01*
X106948072Y-40756000D01*
X106935812Y-40631518D01*
X106899502Y-40511820D01*
X106840537Y-40401506D01*
X106761185Y-40304815D01*
X106664494Y-40225463D01*
X106554180Y-40166498D01*
X106535873Y-40160944D01*
X106602312Y-40094505D01*
X106770299Y-39843095D01*
X106886011Y-39563743D01*
X106945000Y-39267184D01*
X106945000Y-38964816D01*
X106886011Y-38668257D01*
X106770299Y-38388905D01*
X106602312Y-38137495D01*
X106388505Y-37923688D01*
X106137095Y-37755701D01*
X105857743Y-37639989D01*
X105561184Y-37581000D01*
X105258816Y-37581000D01*
X104962257Y-37639989D01*
X104682905Y-37755701D01*
X104431495Y-37923688D01*
X104217688Y-38137495D01*
X104049701Y-38388905D01*
X103933989Y-38668257D01*
X103875000Y-38964816D01*
X103875000Y-39267184D01*
X103933989Y-39563743D01*
X104049701Y-39843095D01*
X104217688Y-40094505D01*
X104284127Y-40160944D01*
X104265820Y-40166498D01*
X104155506Y-40225463D01*
X104058815Y-40304815D01*
X103979463Y-40401506D01*
X103920498Y-40511820D01*
X103884188Y-40631518D01*
X103871928Y-40756000D01*
X96593000Y-40756000D01*
X96593000Y-39157018D01*
X96597040Y-39116000D01*
X96589891Y-39043410D01*
X96580918Y-38952311D01*
X96533172Y-38794913D01*
X96455636Y-38649854D01*
X96351291Y-38522709D01*
X96319428Y-38496560D01*
X95361446Y-37538579D01*
X95335291Y-37506709D01*
X95208146Y-37402364D01*
X95063087Y-37324828D01*
X94905689Y-37277082D01*
X94783019Y-37265000D01*
X94783018Y-37265000D01*
X94742000Y-37260960D01*
X94700982Y-37265000D01*
X89957018Y-37265000D01*
X89916000Y-37260960D01*
X89874981Y-37265000D01*
X89752311Y-37277082D01*
X89594913Y-37324828D01*
X89449854Y-37402364D01*
X89322709Y-37506709D01*
X89296558Y-37538574D01*
X88338574Y-38496559D01*
X88306710Y-38522709D01*
X88261594Y-38577683D01*
X88202364Y-38649855D01*
X88124828Y-38794914D01*
X88077082Y-38952312D01*
X88060960Y-39116000D01*
X88063129Y-39138023D01*
X88009465Y-39173880D01*
X87814880Y-39368465D01*
X87661995Y-39597273D01*
X87630000Y-39674515D01*
X87598005Y-39597273D01*
X87445120Y-39368465D01*
X87250535Y-39173880D01*
X87021727Y-39020995D01*
X86767490Y-38915686D01*
X86497592Y-38862000D01*
X86222408Y-38862000D01*
X85952510Y-38915686D01*
X85698273Y-39020995D01*
X85469465Y-39173880D01*
X85274880Y-39368465D01*
X85121995Y-39597273D01*
X85090000Y-39674515D01*
X85058005Y-39597273D01*
X84905120Y-39368465D01*
X84710535Y-39173880D01*
X84481727Y-39020995D01*
X84227490Y-38915686D01*
X83957592Y-38862000D01*
X83682408Y-38862000D01*
X83412510Y-38915686D01*
X83158273Y-39020995D01*
X82929465Y-39173880D01*
X82734880Y-39368465D01*
X82581995Y-39597273D01*
X82550000Y-39674515D01*
X82518005Y-39597273D01*
X82365120Y-39368465D01*
X82170535Y-39173880D01*
X81941727Y-39020995D01*
X81687490Y-38915686D01*
X81417592Y-38862000D01*
X81142408Y-38862000D01*
X80872510Y-38915686D01*
X80618273Y-39020995D01*
X80389465Y-39173880D01*
X80194880Y-39368465D01*
X80041995Y-39597273D01*
X80012308Y-39668943D01*
X80007636Y-39655977D01*
X79945656Y-39540020D01*
X79705565Y-39473040D01*
X78919605Y-40259000D01*
X79705565Y-41044960D01*
X79945656Y-40977980D01*
X80009485Y-40842240D01*
X80041995Y-40920727D01*
X80194880Y-41149535D01*
X80389465Y-41344120D01*
X80618273Y-41497005D01*
X80872510Y-41602314D01*
X81142408Y-41656000D01*
X81417592Y-41656000D01*
X81687490Y-41602314D01*
X81941727Y-41497005D01*
X82170535Y-41344120D01*
X82365120Y-41149535D01*
X82518005Y-40920727D01*
X82550000Y-40843485D01*
X82581995Y-40920727D01*
X82734880Y-41149535D01*
X82929465Y-41344120D01*
X83158273Y-41497005D01*
X83412510Y-41602314D01*
X83682408Y-41656000D01*
X83957592Y-41656000D01*
X84227490Y-41602314D01*
X84481727Y-41497005D01*
X84710535Y-41344120D01*
X84905120Y-41149535D01*
X85058005Y-40920727D01*
X85090000Y-40843485D01*
X85121995Y-40920727D01*
X85274880Y-41149535D01*
X85469465Y-41344120D01*
X85698273Y-41497005D01*
X85952510Y-41602314D01*
X86222408Y-41656000D01*
X86497592Y-41656000D01*
X86767490Y-41602314D01*
X87021727Y-41497005D01*
X87250535Y-41344120D01*
X87445120Y-41149535D01*
X87598005Y-40920727D01*
X87630000Y-40843485D01*
X87661995Y-40920727D01*
X87814880Y-41149535D01*
X88009465Y-41344120D01*
X88238273Y-41497005D01*
X88492510Y-41602314D01*
X88762408Y-41656000D01*
X89037592Y-41656000D01*
X89307490Y-41602314D01*
X89561727Y-41497005D01*
X89790535Y-41344120D01*
X89985120Y-41149535D01*
X90138005Y-40920727D01*
X90170000Y-40843485D01*
X90201995Y-40920727D01*
X90354880Y-41149535D01*
X90549465Y-41344120D01*
X90778273Y-41497005D01*
X91032510Y-41602314D01*
X91302408Y-41656000D01*
X91577592Y-41656000D01*
X91643102Y-41642969D01*
X99837563Y-49837432D01*
X99863709Y-49869291D01*
X99990854Y-49973636D01*
X100135913Y-50051172D01*
X100293311Y-50098918D01*
X100415981Y-50111000D01*
X100415982Y-50111000D01*
X100457000Y-50115040D01*
X100498018Y-50111000D01*
X115986133Y-50111000D01*
X120069001Y-54193869D01*
X120069000Y-58886981D01*
X120064960Y-58928000D01*
X120069000Y-58969018D01*
X120081082Y-59091688D01*
X120128828Y-59249086D01*
X120206364Y-59394145D01*
X120310709Y-59521291D01*
X120342579Y-59547446D01*
X127435001Y-66639869D01*
X127435000Y-77759132D01*
X126238000Y-78956132D01*
X126238000Y-78856408D01*
X126184314Y-78586510D01*
X126079005Y-78332273D01*
X125926120Y-78103465D01*
X125731535Y-77908880D01*
X125502727Y-77755995D01*
X125425485Y-77724000D01*
X125502727Y-77692005D01*
X125731535Y-77539120D01*
X125926120Y-77344535D01*
X126079005Y-77115727D01*
X126184314Y-76861490D01*
X126238000Y-76591592D01*
X126238000Y-76316408D01*
X126184314Y-76046510D01*
X126079005Y-75792273D01*
X125926120Y-75563465D01*
X125731535Y-75368880D01*
X125502727Y-75215995D01*
X125425485Y-75184000D01*
X125502727Y-75152005D01*
X125731535Y-74999120D01*
X125926120Y-74804535D01*
X126079005Y-74575727D01*
X126184314Y-74321490D01*
X126238000Y-74051592D01*
X126238000Y-73776408D01*
X126184314Y-73506510D01*
X126079005Y-73252273D01*
X125926120Y-73023465D01*
X125731535Y-72828880D01*
X125502727Y-72675995D01*
X125425485Y-72644000D01*
X125502727Y-72612005D01*
X125731535Y-72459120D01*
X125926120Y-72264535D01*
X126079005Y-72035727D01*
X126184314Y-71781490D01*
X126238000Y-71511592D01*
X126238000Y-71236408D01*
X126184314Y-70966510D01*
X126079005Y-70712273D01*
X125926120Y-70483465D01*
X125731535Y-70288880D01*
X125549877Y-70167500D01*
X125731535Y-70046120D01*
X125926120Y-69851535D01*
X126079005Y-69622727D01*
X126184314Y-69368490D01*
X126238000Y-69098592D01*
X126238000Y-68823408D01*
X126184314Y-68553510D01*
X126079005Y-68299273D01*
X125926120Y-68070465D01*
X125731535Y-67875880D01*
X125502727Y-67722995D01*
X125248490Y-67617686D01*
X124978592Y-67564000D01*
X124703408Y-67564000D01*
X124433510Y-67617686D01*
X124179273Y-67722995D01*
X123950465Y-67875880D01*
X123755880Y-68070465D01*
X123602995Y-68299273D01*
X123497686Y-68553510D01*
X123444000Y-68823408D01*
X123444000Y-69098592D01*
X123497686Y-69368490D01*
X123602995Y-69622727D01*
X123755880Y-69851535D01*
X123950465Y-70046120D01*
X124132123Y-70167500D01*
X123950465Y-70288880D01*
X123755880Y-70483465D01*
X123602995Y-70712273D01*
X123497686Y-70966510D01*
X123444000Y-71236408D01*
X123444000Y-71511592D01*
X123497686Y-71781490D01*
X123602995Y-72035727D01*
X123755880Y-72264535D01*
X123950465Y-72459120D01*
X124179273Y-72612005D01*
X124256515Y-72644000D01*
X124179273Y-72675995D01*
X123950465Y-72828880D01*
X123755880Y-73023465D01*
X123602995Y-73252273D01*
X123497686Y-73506510D01*
X123444000Y-73776408D01*
X123444000Y-74051592D01*
X123497686Y-74321490D01*
X123602995Y-74575727D01*
X123755880Y-74804535D01*
X123950465Y-74999120D01*
X124179273Y-75152005D01*
X124256515Y-75184000D01*
X124179273Y-75215995D01*
X123950465Y-75368880D01*
X123755880Y-75563465D01*
X123747249Y-75576381D01*
X113395446Y-65224579D01*
X113369291Y-65192709D01*
X113242146Y-65088364D01*
X113097087Y-65010828D01*
X112939689Y-64963082D01*
X112817019Y-64951000D01*
X112817018Y-64951000D01*
X112776000Y-64946960D01*
X112734982Y-64951000D01*
X111342657Y-64951000D01*
X111430088Y-64920795D01*
X111604044Y-64827814D01*
X111699808Y-64563413D01*
X116288192Y-64563413D01*
X116383956Y-64827814D01*
X116673571Y-64968704D01*
X116985108Y-65050384D01*
X117306595Y-65069718D01*
X117625675Y-65025961D01*
X117930088Y-64920795D01*
X118104044Y-64827814D01*
X118199808Y-64563413D01*
X117244000Y-63607605D01*
X116288192Y-64563413D01*
X111699808Y-64563413D01*
X110744000Y-63607605D01*
X109788192Y-64563413D01*
X109883956Y-64827814D01*
X110137178Y-64951000D01*
X108635867Y-64951000D01*
X107175462Y-63490595D01*
X109102282Y-63490595D01*
X109146039Y-63809675D01*
X109251205Y-64114088D01*
X109344186Y-64288044D01*
X109608587Y-64383808D01*
X110564395Y-63428000D01*
X110923605Y-63428000D01*
X111879413Y-64383808D01*
X112143814Y-64288044D01*
X112284704Y-63998429D01*
X112366384Y-63686892D01*
X112378189Y-63490595D01*
X115602282Y-63490595D01*
X115646039Y-63809675D01*
X115751205Y-64114088D01*
X115844186Y-64288044D01*
X116108587Y-64383808D01*
X117064395Y-63428000D01*
X117423605Y-63428000D01*
X118379413Y-64383808D01*
X118643814Y-64288044D01*
X118784704Y-63998429D01*
X118866384Y-63686892D01*
X118885718Y-63365405D01*
X118841961Y-63046325D01*
X118736795Y-62741912D01*
X118643814Y-62567956D01*
X118379413Y-62472192D01*
X117423605Y-63428000D01*
X117064395Y-63428000D01*
X116108587Y-62472192D01*
X115844186Y-62567956D01*
X115703296Y-62857571D01*
X115621616Y-63169108D01*
X115602282Y-63490595D01*
X112378189Y-63490595D01*
X112385718Y-63365405D01*
X112341961Y-63046325D01*
X112236795Y-62741912D01*
X112143814Y-62567956D01*
X111879413Y-62472192D01*
X110923605Y-63428000D01*
X110564395Y-63428000D01*
X109608587Y-62472192D01*
X109344186Y-62567956D01*
X109203296Y-62857571D01*
X109121616Y-63169108D01*
X109102282Y-63490595D01*
X107175462Y-63490595D01*
X107156289Y-63471422D01*
X107229937Y-63397774D01*
X107343205Y-63228256D01*
X107421226Y-63039898D01*
X107461000Y-62839939D01*
X107461000Y-62636061D01*
X107421226Y-62436102D01*
X107361780Y-62292587D01*
X109788192Y-62292587D01*
X110744000Y-63248395D01*
X111699808Y-62292587D01*
X116288192Y-62292587D01*
X117244000Y-63248395D01*
X118199808Y-62292587D01*
X118104044Y-62028186D01*
X117814429Y-61887296D01*
X117502892Y-61805616D01*
X117181405Y-61786282D01*
X116862325Y-61830039D01*
X116557912Y-61935205D01*
X116383956Y-62028186D01*
X116288192Y-62292587D01*
X111699808Y-62292587D01*
X111604044Y-62028186D01*
X111314429Y-61887296D01*
X111002892Y-61805616D01*
X110681405Y-61786282D01*
X110362325Y-61830039D01*
X110057912Y-61935205D01*
X109883956Y-62028186D01*
X109788192Y-62292587D01*
X107361780Y-62292587D01*
X107343205Y-62247744D01*
X107229937Y-62078226D01*
X107085774Y-61934063D01*
X106916256Y-61820795D01*
X106727898Y-61742774D01*
X106582776Y-61713908D01*
X103635835Y-58766967D01*
X109109000Y-58766967D01*
X109109000Y-59089033D01*
X109171832Y-59404912D01*
X109295082Y-59702463D01*
X109474013Y-59970252D01*
X109701748Y-60197987D01*
X109969537Y-60376918D01*
X110267088Y-60500168D01*
X110582967Y-60563000D01*
X110905033Y-60563000D01*
X111220912Y-60500168D01*
X111518463Y-60376918D01*
X111786252Y-60197987D01*
X112013987Y-59970252D01*
X112152468Y-59763000D01*
X115835532Y-59763000D01*
X115974013Y-59970252D01*
X116201748Y-60197987D01*
X116469537Y-60376918D01*
X116767088Y-60500168D01*
X117082967Y-60563000D01*
X117405033Y-60563000D01*
X117720912Y-60500168D01*
X118018463Y-60376918D01*
X118286252Y-60197987D01*
X118513987Y-59970252D01*
X118692918Y-59702463D01*
X118816168Y-59404912D01*
X118879000Y-59089033D01*
X118879000Y-58766967D01*
X118816168Y-58451088D01*
X118692918Y-58153537D01*
X118513987Y-57885748D01*
X118286252Y-57658013D01*
X118018463Y-57479082D01*
X117720912Y-57355832D01*
X117405033Y-57293000D01*
X117082967Y-57293000D01*
X116767088Y-57355832D01*
X116469537Y-57479082D01*
X116201748Y-57658013D01*
X115974013Y-57885748D01*
X115835532Y-58093000D01*
X112152468Y-58093000D01*
X112013987Y-57885748D01*
X111786252Y-57658013D01*
X111518463Y-57479082D01*
X111220912Y-57355832D01*
X110905033Y-57293000D01*
X110582967Y-57293000D01*
X110267088Y-57355832D01*
X109969537Y-57479082D01*
X109701748Y-57658013D01*
X109474013Y-57885748D01*
X109295082Y-58153537D01*
X109171832Y-58451088D01*
X109109000Y-58766967D01*
X103635835Y-58766967D01*
X98067533Y-53198665D01*
X103213000Y-53198665D01*
X103213000Y-53481335D01*
X103268147Y-53758574D01*
X103376320Y-54019727D01*
X103533363Y-54254759D01*
X103733241Y-54454637D01*
X103968273Y-54611680D01*
X104229426Y-54719853D01*
X104506665Y-54775000D01*
X104789335Y-54775000D01*
X105066574Y-54719853D01*
X105327727Y-54611680D01*
X105562759Y-54454637D01*
X105762637Y-54254759D01*
X105919680Y-54019727D01*
X106027853Y-53758574D01*
X106083000Y-53481335D01*
X106083000Y-53198665D01*
X108293000Y-53198665D01*
X108293000Y-53481335D01*
X108348147Y-53758574D01*
X108456320Y-54019727D01*
X108613363Y-54254759D01*
X108813241Y-54454637D01*
X109048273Y-54611680D01*
X109309426Y-54719853D01*
X109586665Y-54775000D01*
X109869335Y-54775000D01*
X110146574Y-54719853D01*
X110407727Y-54611680D01*
X110642759Y-54454637D01*
X110842637Y-54254759D01*
X110999680Y-54019727D01*
X111107853Y-53758574D01*
X111163000Y-53481335D01*
X111163000Y-53198665D01*
X113373000Y-53198665D01*
X113373000Y-53481335D01*
X113428147Y-53758574D01*
X113536320Y-54019727D01*
X113693363Y-54254759D01*
X113893241Y-54454637D01*
X114128273Y-54611680D01*
X114389426Y-54719853D01*
X114666665Y-54775000D01*
X114949335Y-54775000D01*
X115226574Y-54719853D01*
X115487727Y-54611680D01*
X115722759Y-54454637D01*
X115922637Y-54254759D01*
X116079680Y-54019727D01*
X116187853Y-53758574D01*
X116243000Y-53481335D01*
X116243000Y-53198665D01*
X116187853Y-52921426D01*
X116079680Y-52660273D01*
X115922637Y-52425241D01*
X115722759Y-52225363D01*
X115487727Y-52068320D01*
X115226574Y-51960147D01*
X114949335Y-51905000D01*
X114666665Y-51905000D01*
X114389426Y-51960147D01*
X114128273Y-52068320D01*
X113893241Y-52225363D01*
X113693363Y-52425241D01*
X113536320Y-52660273D01*
X113428147Y-52921426D01*
X113373000Y-53198665D01*
X111163000Y-53198665D01*
X111107853Y-52921426D01*
X110999680Y-52660273D01*
X110842637Y-52425241D01*
X110642759Y-52225363D01*
X110407727Y-52068320D01*
X110146574Y-51960147D01*
X109869335Y-51905000D01*
X109586665Y-51905000D01*
X109309426Y-51960147D01*
X109048273Y-52068320D01*
X108813241Y-52225363D01*
X108613363Y-52425241D01*
X108456320Y-52660273D01*
X108348147Y-52921426D01*
X108293000Y-53198665D01*
X106083000Y-53198665D01*
X106027853Y-52921426D01*
X105919680Y-52660273D01*
X105762637Y-52425241D01*
X105562759Y-52225363D01*
X105327727Y-52068320D01*
X105066574Y-51960147D01*
X104789335Y-51905000D01*
X104506665Y-51905000D01*
X104229426Y-51960147D01*
X103968273Y-52068320D01*
X103733241Y-52225363D01*
X103533363Y-52425241D01*
X103376320Y-52660273D01*
X103268147Y-52921426D01*
X103213000Y-53198665D01*
X98067533Y-53198665D01*
X94815000Y-49946133D01*
X94815000Y-46079285D01*
X94897205Y-45956256D01*
X94975226Y-45767898D01*
X95015000Y-45567939D01*
X95015000Y-45364061D01*
X94975226Y-45164102D01*
X94897205Y-44975744D01*
X94783937Y-44806226D01*
X94639774Y-44662063D01*
X94470256Y-44548795D01*
X94281898Y-44470774D01*
X94081939Y-44431000D01*
X93878061Y-44431000D01*
X93678102Y-44470774D01*
X93489744Y-44548795D01*
X93320226Y-44662063D01*
X93176063Y-44806226D01*
X93062795Y-44975744D01*
X92984774Y-45164102D01*
X92945000Y-45364061D01*
X92945000Y-45567939D01*
X92984774Y-45767898D01*
X93062795Y-45956256D01*
X93145000Y-46079285D01*
X93145001Y-49460135D01*
X87573444Y-43888579D01*
X87547289Y-43856709D01*
X87420144Y-43752364D01*
X87275085Y-43674828D01*
X87117687Y-43627082D01*
X86995017Y-43615000D01*
X86995016Y-43615000D01*
X86953998Y-43610960D01*
X86912980Y-43615000D01*
X75021868Y-43615000D01*
X72631433Y-41224565D01*
X77954040Y-41224565D01*
X78021020Y-41464656D01*
X78270048Y-41581756D01*
X78537135Y-41648023D01*
X78812017Y-41660910D01*
X79084133Y-41619922D01*
X79343023Y-41526636D01*
X79458980Y-41464656D01*
X79525960Y-41224565D01*
X78740000Y-40438605D01*
X77954040Y-41224565D01*
X72631433Y-41224565D01*
X71739446Y-40332579D01*
X71738165Y-40331017D01*
X77338090Y-40331017D01*
X77379078Y-40603133D01*
X77472364Y-40862023D01*
X77534344Y-40977980D01*
X77774435Y-41044960D01*
X78560395Y-40259000D01*
X77774435Y-39473040D01*
X77534344Y-39540020D01*
X77417244Y-39789048D01*
X77350977Y-40056135D01*
X77338090Y-40331017D01*
X71738165Y-40331017D01*
X71713291Y-40300709D01*
X71586146Y-40196364D01*
X71441087Y-40118828D01*
X71283689Y-40071082D01*
X71161019Y-40059000D01*
X71161018Y-40059000D01*
X71120000Y-40054960D01*
X71078982Y-40059000D01*
X64323018Y-40059000D01*
X64282000Y-40054960D01*
X64118311Y-40071082D01*
X63960913Y-40118828D01*
X63815854Y-40196364D01*
X63730990Y-40266010D01*
X63688709Y-40300709D01*
X63662563Y-40332568D01*
X61639504Y-42355628D01*
X61395033Y-42307000D01*
X61072967Y-42307000D01*
X60757088Y-42369832D01*
X60459537Y-42493082D01*
X60191748Y-42672013D01*
X59964013Y-42899748D01*
X59785082Y-43167537D01*
X59661832Y-43465088D01*
X59599000Y-43780967D01*
X42617121Y-43780967D01*
X43005018Y-43521783D01*
X43521783Y-43005018D01*
X43927802Y-42397367D01*
X44207474Y-41722181D01*
X44350049Y-41005408D01*
X44350049Y-40274592D01*
X44207474Y-39557819D01*
X44097963Y-39293435D01*
X77954040Y-39293435D01*
X78740000Y-40079395D01*
X79525960Y-39293435D01*
X79458980Y-39053344D01*
X79209952Y-38936244D01*
X78942865Y-38869977D01*
X78667983Y-38857090D01*
X78395867Y-38898078D01*
X78136977Y-38991364D01*
X78021020Y-39053344D01*
X77954040Y-39293435D01*
X44097963Y-39293435D01*
X43927802Y-38882633D01*
X43521783Y-38274982D01*
X43005018Y-37758217D01*
X42397367Y-37352198D01*
X41722181Y-37072526D01*
X41005408Y-36929951D01*
X40274592Y-36929951D01*
X39557819Y-37072526D01*
X38882633Y-37352198D01*
X38274982Y-37758217D01*
X37758217Y-38274982D01*
X37352198Y-38882633D01*
X37072526Y-39557819D01*
X36929951Y-40274592D01*
X36255234Y-40274592D01*
X36292437Y-39857751D01*
X36499672Y-39100226D01*
X36837777Y-38391375D01*
X37296067Y-37753596D01*
X37860055Y-37207054D01*
X38511913Y-36769023D01*
X39231038Y-36453349D01*
X39999768Y-36268794D01*
X40664207Y-36220000D01*
X132050608Y-36220000D01*
X132862249Y-36292437D01*
G37*
%TD.AperFunction*%
%TD*%
M02*
