M48
; DRILL file {KiCad (5.1.8)-1} date 02/19/21 09:53:47
; FORMAT={2:4/ absolute / inch / suppress leading zeros}
; #@! TF.CreationDate,2021-02-19T09:53:47-07:00
; #@! TF.GenerationSoftware,Kicad,Pcbnew,(5.1.8)-1
; #@! TF.FileFunction,Plated,1,2,PTH
FMAT,2
INCH,TZ
T1C0.0157
T2C0.0300
T3C0.0315
T4C0.0354
T5C0.0394
T6C0.0433
%
G90
G05
T1
X37000Y-17900
X41900Y-24700
T2
X31000Y-15850
X32000Y-15850
X33000Y-15850
X34000Y-15850
X35000Y-15850
X36000Y-15850
X37000Y-15850
X43200Y-27150
X43200Y-28100
X43200Y-29100
X43200Y-30100
X43200Y-31100
X43200Y-32100
X43200Y-33100
X43200Y-34100
X43200Y-35100
X43200Y-36100
X43200Y-37100
X43200Y-38100
X49150Y-27150
X49150Y-28100
X49150Y-29100
X49150Y-30100
X49150Y-31100
X49150Y-32100
X49150Y-33100
X49150Y-34100
X49150Y-35100
X49150Y-36100
X49150Y-37100
X49150Y-38100
X37100Y-38350
X37100Y-39600
X38100Y-38350
X38100Y-39600
X39100Y-38350
X39100Y-39600
T3
X45200Y-18000
X45200Y-21000
X41200Y-18000
X41200Y-21000
X43200Y-18000
X43200Y-21000
X40900Y-35200
X40900Y-38200
T4
X44900Y-15400
X44900Y-16400
X43200Y-15400
X43200Y-16400
X41500Y-15400
X41500Y-16400
T5
X24108Y-17300
X27100Y-17300
X39400Y-35400
X39400Y-36400
T6
X16400Y-23100
X16400Y-24872
X18959Y-23100
X18959Y-24872
X23000Y-23100
X23000Y-24872
X25559Y-23100
X25559Y-24872
X19700Y-26400
X19700Y-28172
X22259Y-26400
X22259Y-28172
X49100Y-20400
X49100Y-22172
X51659Y-20400
X51659Y-22172
X43600Y-23200
X43600Y-24972
X46159Y-23200
X46159Y-24972
X19700Y-19800
X19700Y-21572
X22259Y-19800
X22259Y-21572
T0
M30
