%TF.GenerationSoftware,KiCad,Pcbnew,(5.1.8)-1*%
%TF.CreationDate,2021-02-19T09:53:25-07:00*%
%TF.ProjectId,Ardu-Shift_PCB,41726475-2d53-4686-9966-745f5043422e,rev?*%
%TF.SameCoordinates,Original*%
%TF.FileFunction,Legend,Top*%
%TF.FilePolarity,Positive*%
%FSLAX46Y46*%
G04 Gerber Fmt 4.6, Leading zero omitted, Abs format (unit mm)*
G04 Created by KiCad (PCBNEW (5.1.8)-1) date 2021-02-19 09:53:25*
%MOMM*%
%LPD*%
G01*
G04 APERTURE LIST*
%ADD10C,0.300000*%
%ADD11C,0.120000*%
%ADD12C,0.250000*%
%ADD13C,0.150000*%
G04 APERTURE END LIST*
D10*
X40632000Y-90857196D02*
X40632000Y-89428625D01*
X41489142Y-91250053D02*
X38489142Y-89875053D01*
X41489142Y-89250053D01*
X41489142Y-88250053D02*
X39489142Y-88000053D01*
X40060571Y-88071482D02*
X39774857Y-87892910D01*
X39632000Y-87732196D01*
X39489142Y-87428625D01*
X39489142Y-87142910D01*
X41489142Y-85107196D02*
X38489142Y-84732196D01*
X41346285Y-85089339D02*
X41489142Y-85392910D01*
X41489142Y-85964339D01*
X41346285Y-86232196D01*
X41203428Y-86357196D01*
X40917714Y-86464339D01*
X40060571Y-86357196D01*
X39774857Y-86178625D01*
X39632000Y-86017910D01*
X39489142Y-85714339D01*
X39489142Y-85142910D01*
X39632000Y-84875053D01*
X39489142Y-82142910D02*
X41489142Y-82392910D01*
X39489142Y-83428625D02*
X41060571Y-83625053D01*
X41346285Y-83517910D01*
X41489142Y-83250053D01*
X41489142Y-82821482D01*
X41346285Y-82517910D01*
X41203428Y-82357196D01*
X40346285Y-80821482D02*
X40346285Y-78535767D01*
X41346285Y-77375053D02*
X41489142Y-76964339D01*
X41489142Y-76250053D01*
X41346285Y-75946482D01*
X41203428Y-75785767D01*
X40917714Y-75607196D01*
X40632000Y-75571482D01*
X40346285Y-75678625D01*
X40203428Y-75803625D01*
X40060571Y-76071482D01*
X39917714Y-76625053D01*
X39774857Y-76892910D01*
X39632000Y-77017910D01*
X39346285Y-77125053D01*
X39060571Y-77089339D01*
X38774857Y-76910767D01*
X38632000Y-76750053D01*
X38489142Y-76446482D01*
X38489142Y-75732196D01*
X38632000Y-75321482D01*
X41489142Y-74392910D02*
X38489142Y-74017910D01*
X41489142Y-73107196D02*
X39917714Y-72910767D01*
X39632000Y-73017910D01*
X39489142Y-73285767D01*
X39489142Y-73714339D01*
X39632000Y-74017910D01*
X39774857Y-74178625D01*
X41489142Y-71678625D02*
X39489142Y-71428625D01*
X38489142Y-71303625D02*
X38632000Y-71464339D01*
X38774857Y-71339339D01*
X38632000Y-71178625D01*
X38489142Y-71303625D01*
X38774857Y-71339339D01*
X39489142Y-70428625D02*
X39489142Y-69285767D01*
X41489142Y-70250053D02*
X38917714Y-69928625D01*
X38632000Y-69750053D01*
X38489142Y-69446482D01*
X38489142Y-69160767D01*
X39489142Y-68714339D02*
X39489142Y-67571482D01*
X38489142Y-68160767D02*
X41060571Y-68482196D01*
X41346285Y-68375053D01*
X41489142Y-68107196D01*
X41489142Y-67821482D01*
D11*
X126492000Y-67564000D02*
X126492000Y-100584000D01*
D12*
X107188000Y-42878285D02*
X107283238Y-42973523D01*
X107188000Y-43068761D01*
X107092761Y-42973523D01*
X107188000Y-42878285D01*
X107188000Y-43068761D01*
X111506000Y-42878285D02*
X111601238Y-42973523D01*
X111506000Y-43068761D01*
X111410761Y-42973523D01*
X111506000Y-42878285D01*
X111506000Y-43068761D01*
X115824000Y-42878285D02*
X115919238Y-42973523D01*
X115824000Y-43068761D01*
X115728761Y-42973523D01*
X115824000Y-42878285D01*
X115824000Y-43068761D01*
D13*
X60833047Y-41727428D02*
X61594952Y-41727428D01*
D11*
X47498000Y-56134000D02*
X39116000Y-56134000D01*
X47498000Y-47752000D02*
X47498000Y-56134000D01*
X47752000Y-47752000D02*
X47498000Y-47752000D01*
X39116000Y-65786000D02*
X39116000Y-56134000D01*
X47498000Y-65786000D02*
X39116000Y-65786000D01*
X47498000Y-74168000D02*
X47498000Y-65786000D01*
X58928000Y-74168000D02*
X47498000Y-74168000D01*
X58928000Y-65786000D02*
X58928000Y-74168000D01*
X67310000Y-65786000D02*
X58928000Y-65786000D01*
X67310000Y-56134000D02*
X67310000Y-65786000D01*
X59182000Y-56134000D02*
X67310000Y-56134000D01*
X59182000Y-47752000D02*
X59182000Y-56134000D01*
X47752000Y-47752000D02*
X59182000Y-47752000D01*
X108204000Y-100584000D02*
X108204000Y-67564000D01*
X113792000Y-100584000D02*
X108204000Y-100584000D01*
X113792000Y-102616000D02*
X113792000Y-100584000D01*
X120904000Y-102616000D02*
X113792000Y-102616000D01*
X120904000Y-100584000D02*
X120904000Y-102616000D01*
X126492000Y-100584000D02*
X120904000Y-100584000D01*
X108204000Y-67564000D02*
X126492000Y-67564000D01*
X75774437Y-64516000D02*
G75*
G03*
X75774437Y-64516000I-1606437J0D01*
G01*
X99480841Y-65024000D02*
G75*
G03*
X99480841Y-65024000I-1436841J0D01*
G01*
X99650437Y-40640000D02*
G75*
G03*
X99650437Y-40640000I-1606437J0D01*
G01*
X75604841Y-40640000D02*
G75*
G03*
X75604841Y-40640000I-1436841J0D01*
G01*
X100076000Y-38608000D02*
X72136000Y-38608000D01*
X100076000Y-67056000D02*
X100076000Y-38608000D01*
X72136000Y-67056000D02*
X100076000Y-67056000D01*
X72136000Y-38608000D02*
X72136000Y-67056000D01*
D13*
X62572000Y-86987571D02*
X62714857Y-87035190D01*
X62762476Y-87082809D01*
X62810095Y-87178047D01*
X62810095Y-87320904D01*
X62762476Y-87416142D01*
X62714857Y-87463761D01*
X62619619Y-87511380D01*
X62238666Y-87511380D01*
X62238666Y-86511380D01*
X62572000Y-86511380D01*
X62667238Y-86559000D01*
X62714857Y-86606619D01*
X62762476Y-86701857D01*
X62762476Y-86797095D01*
X62714857Y-86892333D01*
X62667238Y-86939952D01*
X62572000Y-86987571D01*
X62238666Y-86987571D01*
X63191047Y-87225666D02*
X63667238Y-87225666D01*
X63095809Y-87511380D02*
X63429142Y-86511380D01*
X63762476Y-87511380D01*
X63952952Y-86511380D02*
X64524380Y-86511380D01*
X64238666Y-87511380D02*
X64238666Y-86511380D01*
X64714857Y-86511380D02*
X65286285Y-86511380D01*
X65000571Y-87511380D02*
X65000571Y-86511380D01*
X65619619Y-86987571D02*
X65952952Y-86987571D01*
X66095809Y-87511380D02*
X65619619Y-87511380D01*
X65619619Y-86511380D01*
X66095809Y-86511380D01*
X67095809Y-87511380D02*
X66762476Y-87035190D01*
X66524380Y-87511380D02*
X66524380Y-86511380D01*
X66905333Y-86511380D01*
X67000571Y-86559000D01*
X67048190Y-86606619D01*
X67095809Y-86701857D01*
X67095809Y-86844714D01*
X67048190Y-86939952D01*
X67000571Y-86987571D01*
X66905333Y-87035190D01*
X66524380Y-87035190D01*
X67714857Y-87035190D02*
X67714857Y-87511380D01*
X67381523Y-86511380D02*
X67714857Y-87035190D01*
X68048190Y-86511380D01*
X69714857Y-87416142D02*
X69667238Y-87463761D01*
X69524380Y-87511380D01*
X69429142Y-87511380D01*
X69286285Y-87463761D01*
X69191047Y-87368523D01*
X69143428Y-87273285D01*
X69095809Y-87082809D01*
X69095809Y-86939952D01*
X69143428Y-86749476D01*
X69191047Y-86654238D01*
X69286285Y-86559000D01*
X69429142Y-86511380D01*
X69524380Y-86511380D01*
X69667238Y-86559000D01*
X69714857Y-86606619D01*
X70143428Y-86987571D02*
X70476761Y-86987571D01*
X70619619Y-87511380D02*
X70143428Y-87511380D01*
X70143428Y-86511380D01*
X70619619Y-86511380D01*
X71524380Y-87511380D02*
X71048190Y-87511380D01*
X71048190Y-86511380D01*
X72333904Y-87511380D02*
X71857714Y-87511380D01*
X71857714Y-86511380D01*
X72619619Y-87463761D02*
X72762476Y-87511380D01*
X73000571Y-87511380D01*
X73095809Y-87463761D01*
X73143428Y-87416142D01*
X73191047Y-87320904D01*
X73191047Y-87225666D01*
X73143428Y-87130428D01*
X73095809Y-87082809D01*
X73000571Y-87035190D01*
X72810095Y-86987571D01*
X72714857Y-86939952D01*
X72667238Y-86892333D01*
X72619619Y-86797095D01*
X72619619Y-86701857D01*
X72667238Y-86606619D01*
X72714857Y-86559000D01*
X72810095Y-86511380D01*
X73048190Y-86511380D01*
X73191047Y-86559000D01*
X45720000Y-96520000D02*
X45720000Y-76835000D01*
X90805000Y-96520000D02*
X45720000Y-96520000D01*
X90805000Y-76835000D02*
X90805000Y-96520000D01*
X45720000Y-76835000D02*
X90805000Y-76835000D01*
D11*
%TO.C,U3*%
X92202000Y-101600000D02*
X92202000Y-96393000D01*
X92202000Y-96393000D02*
X101219000Y-96393000D01*
X101219000Y-96393000D02*
X101219000Y-101600000D01*
X97790000Y-101600000D02*
X97790000Y-102743000D01*
X97790000Y-102743000D02*
X95631000Y-102743000D01*
X95631000Y-102743000D02*
X95631000Y-101600000D01*
X95631000Y-101600000D02*
X92202000Y-101600000D01*
X97790000Y-101600000D02*
X101219000Y-101600000D01*
%TO.C,F1*%
X102516000Y-96488000D02*
X102846000Y-96488000D01*
X102516000Y-89948000D02*
X102516000Y-96488000D01*
X102846000Y-89948000D02*
X102516000Y-89948000D01*
X105256000Y-96488000D02*
X104926000Y-96488000D01*
X105256000Y-89948000D02*
X105256000Y-96488000D01*
X104926000Y-89948000D02*
X105256000Y-89948000D01*
%TO.C,LS1*%
X71134000Y-43942000D02*
G75*
G03*
X71134000Y-43942000I-6100000J0D01*
G01*
%TO.C,B2*%
X98746000Y-93786000D02*
X101406000Y-93786000D01*
X98746000Y-91186000D02*
X98746000Y-93786000D01*
X101406000Y-91186000D02*
X101406000Y-93786000D01*
X98746000Y-91186000D02*
X101406000Y-91186000D01*
X98746000Y-89916000D02*
X98746000Y-88586000D01*
X98746000Y-88586000D02*
X100076000Y-88586000D01*
%TO.C,UP1*%
X51038000Y-55792000D02*
X55538000Y-55792000D01*
X49788000Y-51792000D02*
X49788000Y-53292000D01*
X55538000Y-49292000D02*
X51038000Y-49292000D01*
X56788000Y-53292000D02*
X56788000Y-51792000D01*
%TO.C,RIGHT1*%
X59420000Y-64174000D02*
X63920000Y-64174000D01*
X58170000Y-60174000D02*
X58170000Y-61674000D01*
X63920000Y-57674000D02*
X59420000Y-57674000D01*
X65170000Y-61674000D02*
X65170000Y-60174000D01*
%TO.C,R3*%
X105688000Y-46260000D02*
X106018000Y-46260000D01*
X106018000Y-46260000D02*
X106018000Y-52800000D01*
X106018000Y-52800000D02*
X105688000Y-52800000D01*
X103608000Y-46260000D02*
X103278000Y-46260000D01*
X103278000Y-46260000D02*
X103278000Y-52800000D01*
X103278000Y-52800000D02*
X103608000Y-52800000D01*
%TO.C,R2*%
X110768000Y-46260000D02*
X111098000Y-46260000D01*
X111098000Y-46260000D02*
X111098000Y-52800000D01*
X111098000Y-52800000D02*
X110768000Y-52800000D01*
X108688000Y-46260000D02*
X108358000Y-46260000D01*
X108358000Y-46260000D02*
X108358000Y-52800000D01*
X108358000Y-52800000D02*
X108688000Y-52800000D01*
%TO.C,R1*%
X115848000Y-46260000D02*
X116178000Y-46260000D01*
X116178000Y-46260000D02*
X116178000Y-52800000D01*
X116178000Y-52800000D02*
X115848000Y-52800000D01*
X113768000Y-46260000D02*
X113438000Y-46260000D01*
X113438000Y-46260000D02*
X113438000Y-52800000D01*
X113438000Y-52800000D02*
X113768000Y-52800000D01*
%TO.C,LEFT1*%
X42656000Y-64174000D02*
X47156000Y-64174000D01*
X41406000Y-60174000D02*
X41406000Y-61674000D01*
X47156000Y-57674000D02*
X42656000Y-57674000D01*
X48406000Y-61674000D02*
X48406000Y-60174000D01*
%TO.C,DOWN1*%
X51038000Y-72556000D02*
X55538000Y-72556000D01*
X49788000Y-68556000D02*
X49788000Y-70056000D01*
X55538000Y-66056000D02*
X51038000Y-66056000D01*
X56788000Y-70056000D02*
X56788000Y-68556000D01*
%TO.C,D3*%
X104150000Y-42096000D02*
X104150000Y-38676000D01*
X106670000Y-42096000D02*
X106670000Y-38676000D01*
X104150000Y-42096000D02*
X104330000Y-42096000D01*
X106490000Y-42096000D02*
X106670000Y-42096000D01*
X104150000Y-38676000D02*
X104315000Y-38676000D01*
X106505000Y-38676000D02*
X106670000Y-38676000D01*
X104150000Y-41976000D02*
X104330000Y-41976000D01*
X106490000Y-41976000D02*
X106670000Y-41976000D01*
X104150000Y-41856000D02*
X104330000Y-41856000D01*
X106490000Y-41856000D02*
X106670000Y-41856000D01*
%TO.C,D2*%
X108468000Y-42096000D02*
X108468000Y-38676000D01*
X110988000Y-42096000D02*
X110988000Y-38676000D01*
X108468000Y-42096000D02*
X108648000Y-42096000D01*
X110808000Y-42096000D02*
X110988000Y-42096000D01*
X108468000Y-38676000D02*
X108633000Y-38676000D01*
X110823000Y-38676000D02*
X110988000Y-38676000D01*
X108468000Y-41976000D02*
X108648000Y-41976000D01*
X110808000Y-41976000D02*
X110988000Y-41976000D01*
X108468000Y-41856000D02*
X108648000Y-41856000D01*
X110808000Y-41856000D02*
X110988000Y-41856000D01*
%TO.C,D1*%
X112786000Y-42096000D02*
X112786000Y-38676000D01*
X115306000Y-42096000D02*
X115306000Y-38676000D01*
X112786000Y-42096000D02*
X112966000Y-42096000D01*
X115126000Y-42096000D02*
X115306000Y-42096000D01*
X112786000Y-38676000D02*
X112951000Y-38676000D01*
X115141000Y-38676000D02*
X115306000Y-38676000D01*
X112786000Y-41976000D02*
X112966000Y-41976000D01*
X115126000Y-41976000D02*
X115306000Y-41976000D01*
X112786000Y-41856000D02*
X112966000Y-41856000D01*
X115126000Y-41856000D02*
X115306000Y-41856000D01*
%TO.C,B1*%
X125714000Y-57316000D02*
X130214000Y-57316000D01*
X124464000Y-53316000D02*
X124464000Y-54816000D01*
X130214000Y-50816000D02*
X125714000Y-50816000D01*
X131464000Y-54816000D02*
X131464000Y-53316000D01*
%TO.C,A1*%
X111744000Y-64428000D02*
X116244000Y-64428000D01*
X110494000Y-60428000D02*
X110494000Y-61928000D01*
X116244000Y-57928000D02*
X111744000Y-57928000D01*
X117494000Y-61928000D02*
X117494000Y-60428000D01*
%TO.C,U2*%
D13*
X116205095Y-82510380D02*
X116205095Y-83319904D01*
X116252714Y-83415142D01*
X116300333Y-83462761D01*
X116395571Y-83510380D01*
X116586047Y-83510380D01*
X116681285Y-83462761D01*
X116728904Y-83415142D01*
X116776523Y-83319904D01*
X116776523Y-82510380D01*
X117205095Y-82605619D02*
X117252714Y-82558000D01*
X117347952Y-82510380D01*
X117586047Y-82510380D01*
X117681285Y-82558000D01*
X117728904Y-82605619D01*
X117776523Y-82700857D01*
X117776523Y-82796095D01*
X117728904Y-82938952D01*
X117157476Y-83510380D01*
X117776523Y-83510380D01*
%TO.C,U3*%
X90424095Y-99274380D02*
X90424095Y-100083904D01*
X90471714Y-100179142D01*
X90519333Y-100226761D01*
X90614571Y-100274380D01*
X90805047Y-100274380D01*
X90900285Y-100226761D01*
X90947904Y-100179142D01*
X90995523Y-100083904D01*
X90995523Y-99274380D01*
X91376476Y-99274380D02*
X91995523Y-99274380D01*
X91662190Y-99655333D01*
X91805047Y-99655333D01*
X91900285Y-99702952D01*
X91947904Y-99750571D01*
X91995523Y-99845809D01*
X91995523Y-100083904D01*
X91947904Y-100179142D01*
X91900285Y-100226761D01*
X91805047Y-100274380D01*
X91519333Y-100274380D01*
X91424095Y-100226761D01*
X91376476Y-100179142D01*
%TO.C,F1*%
X104314666Y-87558571D02*
X103981333Y-87558571D01*
X103981333Y-88082380D02*
X103981333Y-87082380D01*
X104457523Y-87082380D01*
X105362285Y-88082380D02*
X104790857Y-88082380D01*
X105076571Y-88082380D02*
X105076571Y-87082380D01*
X104981333Y-87225238D01*
X104886095Y-87320476D01*
X104790857Y-87368095D01*
%TO.C,LS1*%
X67937142Y-51252380D02*
X67460952Y-51252380D01*
X67460952Y-50252380D01*
X68222857Y-51204761D02*
X68365714Y-51252380D01*
X68603809Y-51252380D01*
X68699047Y-51204761D01*
X68746666Y-51157142D01*
X68794285Y-51061904D01*
X68794285Y-50966666D01*
X68746666Y-50871428D01*
X68699047Y-50823809D01*
X68603809Y-50776190D01*
X68413333Y-50728571D01*
X68318095Y-50680952D01*
X68270476Y-50633333D01*
X68222857Y-50538095D01*
X68222857Y-50442857D01*
X68270476Y-50347619D01*
X68318095Y-50300000D01*
X68413333Y-50252380D01*
X68651428Y-50252380D01*
X68794285Y-50300000D01*
X69746666Y-51252380D02*
X69175238Y-51252380D01*
X69460952Y-51252380D02*
X69460952Y-50252380D01*
X69365714Y-50395238D01*
X69270476Y-50490476D01*
X69175238Y-50538095D01*
X68453047Y-41727428D02*
X69214952Y-41727428D01*
X68834000Y-42108380D02*
X68834000Y-41346476D01*
%TO.C,B2*%
X99671238Y-87514571D02*
X99814095Y-87562190D01*
X99861714Y-87609809D01*
X99909333Y-87705047D01*
X99909333Y-87847904D01*
X99861714Y-87943142D01*
X99814095Y-87990761D01*
X99718857Y-88038380D01*
X99337904Y-88038380D01*
X99337904Y-87038380D01*
X99671238Y-87038380D01*
X99766476Y-87086000D01*
X99814095Y-87133619D01*
X99861714Y-87228857D01*
X99861714Y-87324095D01*
X99814095Y-87419333D01*
X99766476Y-87466952D01*
X99671238Y-87514571D01*
X99337904Y-87514571D01*
X100290285Y-87133619D02*
X100337904Y-87086000D01*
X100433142Y-87038380D01*
X100671238Y-87038380D01*
X100766476Y-87086000D01*
X100814095Y-87133619D01*
X100861714Y-87228857D01*
X100861714Y-87324095D01*
X100814095Y-87466952D01*
X100242666Y-88038380D01*
X100861714Y-88038380D01*
%TO.C,UP1*%
X52078095Y-55840380D02*
X52078095Y-56649904D01*
X52125714Y-56745142D01*
X52173333Y-56792761D01*
X52268571Y-56840380D01*
X52459047Y-56840380D01*
X52554285Y-56792761D01*
X52601904Y-56745142D01*
X52649523Y-56649904D01*
X52649523Y-55840380D01*
X53125714Y-56840380D02*
X53125714Y-55840380D01*
X53506666Y-55840380D01*
X53601904Y-55888000D01*
X53649523Y-55935619D01*
X53697142Y-56030857D01*
X53697142Y-56173714D01*
X53649523Y-56268952D01*
X53601904Y-56316571D01*
X53506666Y-56364190D01*
X53125714Y-56364190D01*
X54649523Y-56840380D02*
X54078095Y-56840380D01*
X54363809Y-56840380D02*
X54363809Y-55840380D01*
X54268571Y-55983238D01*
X54173333Y-56078476D01*
X54078095Y-56126095D01*
%TO.C,U1*%
X85598095Y-52284380D02*
X85598095Y-53093904D01*
X85645714Y-53189142D01*
X85693333Y-53236761D01*
X85788571Y-53284380D01*
X85979047Y-53284380D01*
X86074285Y-53236761D01*
X86121904Y-53189142D01*
X86169523Y-53093904D01*
X86169523Y-52284380D01*
X87169523Y-53284380D02*
X86598095Y-53284380D01*
X86883809Y-53284380D02*
X86883809Y-52284380D01*
X86788571Y-52427238D01*
X86693333Y-52522476D01*
X86598095Y-52570095D01*
%TO.C,RIGHT1*%
X60166476Y-65476380D02*
X59833142Y-65000190D01*
X59595047Y-65476380D02*
X59595047Y-64476380D01*
X59976000Y-64476380D01*
X60071238Y-64524000D01*
X60118857Y-64571619D01*
X60166476Y-64666857D01*
X60166476Y-64809714D01*
X60118857Y-64904952D01*
X60071238Y-64952571D01*
X59976000Y-65000190D01*
X59595047Y-65000190D01*
X60595047Y-65476380D02*
X60595047Y-64476380D01*
X61595047Y-64524000D02*
X61499809Y-64476380D01*
X61356952Y-64476380D01*
X61214095Y-64524000D01*
X61118857Y-64619238D01*
X61071238Y-64714476D01*
X61023619Y-64904952D01*
X61023619Y-65047809D01*
X61071238Y-65238285D01*
X61118857Y-65333523D01*
X61214095Y-65428761D01*
X61356952Y-65476380D01*
X61452190Y-65476380D01*
X61595047Y-65428761D01*
X61642666Y-65381142D01*
X61642666Y-65047809D01*
X61452190Y-65047809D01*
X62071238Y-65476380D02*
X62071238Y-64476380D01*
X62071238Y-64952571D02*
X62642666Y-64952571D01*
X62642666Y-65476380D02*
X62642666Y-64476380D01*
X62976000Y-64476380D02*
X63547428Y-64476380D01*
X63261714Y-65476380D02*
X63261714Y-64476380D01*
X64404571Y-65476380D02*
X63833142Y-65476380D01*
X64118857Y-65476380D02*
X64118857Y-64476380D01*
X64023619Y-64619238D01*
X63928380Y-64714476D01*
X63833142Y-64762095D01*
%TO.C,R3*%
X106851333Y-49982380D02*
X106518000Y-49506190D01*
X106279904Y-49982380D02*
X106279904Y-48982380D01*
X106660857Y-48982380D01*
X106756095Y-49030000D01*
X106803714Y-49077619D01*
X106851333Y-49172857D01*
X106851333Y-49315714D01*
X106803714Y-49410952D01*
X106756095Y-49458571D01*
X106660857Y-49506190D01*
X106279904Y-49506190D01*
X107184666Y-48982380D02*
X107803714Y-48982380D01*
X107470380Y-49363333D01*
X107613238Y-49363333D01*
X107708476Y-49410952D01*
X107756095Y-49458571D01*
X107803714Y-49553809D01*
X107803714Y-49791904D01*
X107756095Y-49887142D01*
X107708476Y-49934761D01*
X107613238Y-49982380D01*
X107327523Y-49982380D01*
X107232285Y-49934761D01*
X107184666Y-49887142D01*
%TO.C,R2*%
X111847333Y-49982380D02*
X111514000Y-49506190D01*
X111275904Y-49982380D02*
X111275904Y-48982380D01*
X111656857Y-48982380D01*
X111752095Y-49030000D01*
X111799714Y-49077619D01*
X111847333Y-49172857D01*
X111847333Y-49315714D01*
X111799714Y-49410952D01*
X111752095Y-49458571D01*
X111656857Y-49506190D01*
X111275904Y-49506190D01*
X112228285Y-49077619D02*
X112275904Y-49030000D01*
X112371142Y-48982380D01*
X112609238Y-48982380D01*
X112704476Y-49030000D01*
X112752095Y-49077619D01*
X112799714Y-49172857D01*
X112799714Y-49268095D01*
X112752095Y-49410952D01*
X112180666Y-49982380D01*
X112799714Y-49982380D01*
%TO.C,R1*%
X116927333Y-49982380D02*
X116594000Y-49506190D01*
X116355904Y-49982380D02*
X116355904Y-48982380D01*
X116736857Y-48982380D01*
X116832095Y-49030000D01*
X116879714Y-49077619D01*
X116927333Y-49172857D01*
X116927333Y-49315714D01*
X116879714Y-49410952D01*
X116832095Y-49458571D01*
X116736857Y-49506190D01*
X116355904Y-49506190D01*
X117879714Y-49982380D02*
X117308285Y-49982380D01*
X117594000Y-49982380D02*
X117594000Y-48982380D01*
X117498761Y-49125238D01*
X117403523Y-49220476D01*
X117308285Y-49268095D01*
%TO.C,LEFT1*%
X43529428Y-65476380D02*
X43053238Y-65476380D01*
X43053238Y-64476380D01*
X43862761Y-64952571D02*
X44196095Y-64952571D01*
X44338952Y-65476380D02*
X43862761Y-65476380D01*
X43862761Y-64476380D01*
X44338952Y-64476380D01*
X45100857Y-64952571D02*
X44767523Y-64952571D01*
X44767523Y-65476380D02*
X44767523Y-64476380D01*
X45243714Y-64476380D01*
X45481809Y-64476380D02*
X46053238Y-64476380D01*
X45767523Y-65476380D02*
X45767523Y-64476380D01*
X46910380Y-65476380D02*
X46338952Y-65476380D01*
X46624666Y-65476380D02*
X46624666Y-64476380D01*
X46529428Y-64619238D01*
X46434190Y-64714476D01*
X46338952Y-64762095D01*
%TO.C,DOWN1*%
X50982857Y-73858380D02*
X50982857Y-72858380D01*
X51220952Y-72858380D01*
X51363809Y-72906000D01*
X51459047Y-73001238D01*
X51506666Y-73096476D01*
X51554285Y-73286952D01*
X51554285Y-73429809D01*
X51506666Y-73620285D01*
X51459047Y-73715523D01*
X51363809Y-73810761D01*
X51220952Y-73858380D01*
X50982857Y-73858380D01*
X52173333Y-72858380D02*
X52363809Y-72858380D01*
X52459047Y-72906000D01*
X52554285Y-73001238D01*
X52601904Y-73191714D01*
X52601904Y-73525047D01*
X52554285Y-73715523D01*
X52459047Y-73810761D01*
X52363809Y-73858380D01*
X52173333Y-73858380D01*
X52078095Y-73810761D01*
X51982857Y-73715523D01*
X51935238Y-73525047D01*
X51935238Y-73191714D01*
X51982857Y-73001238D01*
X52078095Y-72906000D01*
X52173333Y-72858380D01*
X52935238Y-72858380D02*
X53173333Y-73858380D01*
X53363809Y-73144095D01*
X53554285Y-73858380D01*
X53792380Y-72858380D01*
X54173333Y-73858380D02*
X54173333Y-72858380D01*
X54744761Y-73858380D01*
X54744761Y-72858380D01*
X55744761Y-73858380D02*
X55173333Y-73858380D01*
X55459047Y-73858380D02*
X55459047Y-72858380D01*
X55363809Y-73001238D01*
X55268571Y-73096476D01*
X55173333Y-73144095D01*
%TO.C,D3*%
X103147904Y-38044380D02*
X103147904Y-37044380D01*
X103386000Y-37044380D01*
X103528857Y-37092000D01*
X103624095Y-37187238D01*
X103671714Y-37282476D01*
X103719333Y-37472952D01*
X103719333Y-37615809D01*
X103671714Y-37806285D01*
X103624095Y-37901523D01*
X103528857Y-37996761D01*
X103386000Y-38044380D01*
X103147904Y-38044380D01*
X104052666Y-37044380D02*
X104671714Y-37044380D01*
X104338380Y-37425333D01*
X104481238Y-37425333D01*
X104576476Y-37472952D01*
X104624095Y-37520571D01*
X104671714Y-37615809D01*
X104671714Y-37853904D01*
X104624095Y-37949142D01*
X104576476Y-37996761D01*
X104481238Y-38044380D01*
X104195523Y-38044380D01*
X104100285Y-37996761D01*
X104052666Y-37949142D01*
%TO.C,D2*%
X107465904Y-38044380D02*
X107465904Y-37044380D01*
X107704000Y-37044380D01*
X107846857Y-37092000D01*
X107942095Y-37187238D01*
X107989714Y-37282476D01*
X108037333Y-37472952D01*
X108037333Y-37615809D01*
X107989714Y-37806285D01*
X107942095Y-37901523D01*
X107846857Y-37996761D01*
X107704000Y-38044380D01*
X107465904Y-38044380D01*
X108418285Y-37139619D02*
X108465904Y-37092000D01*
X108561142Y-37044380D01*
X108799238Y-37044380D01*
X108894476Y-37092000D01*
X108942095Y-37139619D01*
X108989714Y-37234857D01*
X108989714Y-37330095D01*
X108942095Y-37472952D01*
X108370666Y-38044380D01*
X108989714Y-38044380D01*
%TO.C,D1*%
X111783904Y-38044380D02*
X111783904Y-37044380D01*
X112022000Y-37044380D01*
X112164857Y-37092000D01*
X112260095Y-37187238D01*
X112307714Y-37282476D01*
X112355333Y-37472952D01*
X112355333Y-37615809D01*
X112307714Y-37806285D01*
X112260095Y-37901523D01*
X112164857Y-37996761D01*
X112022000Y-38044380D01*
X111783904Y-38044380D01*
X113307714Y-38044380D02*
X112736285Y-38044380D01*
X113022000Y-38044380D02*
X113022000Y-37044380D01*
X112926761Y-37187238D01*
X112831523Y-37282476D01*
X112736285Y-37330095D01*
%TO.C,B1*%
X127611238Y-57840571D02*
X127754095Y-57888190D01*
X127801714Y-57935809D01*
X127849333Y-58031047D01*
X127849333Y-58173904D01*
X127801714Y-58269142D01*
X127754095Y-58316761D01*
X127658857Y-58364380D01*
X127277904Y-58364380D01*
X127277904Y-57364380D01*
X127611238Y-57364380D01*
X127706476Y-57412000D01*
X127754095Y-57459619D01*
X127801714Y-57554857D01*
X127801714Y-57650095D01*
X127754095Y-57745333D01*
X127706476Y-57792952D01*
X127611238Y-57840571D01*
X127277904Y-57840571D01*
X128801714Y-58364380D02*
X128230285Y-58364380D01*
X128516000Y-58364380D02*
X128516000Y-57364380D01*
X128420761Y-57507238D01*
X128325523Y-57602476D01*
X128230285Y-57650095D01*
%TO.C,A1*%
X113331714Y-65190666D02*
X113807904Y-65190666D01*
X113236476Y-65476380D02*
X113569809Y-64476380D01*
X113903142Y-65476380D01*
X114760285Y-65476380D02*
X114188857Y-65476380D01*
X114474571Y-65476380D02*
X114474571Y-64476380D01*
X114379333Y-64619238D01*
X114284095Y-64714476D01*
X114188857Y-64762095D01*
%TD*%
M02*
